<svg width="40" height="40" viewBox="0 0 40 40" fill="none" xmlns="http://www.w3.org/2000/svg">
<rect width="40" height="40" rx="11.4286" fill="#297AFC" fill-opacity="0.05"/>
<path d="M19.9995 30.75C19.2703 30.7495 18.5712 30.4596 18.0556 29.944C17.5399 29.4283 17.25 28.7292 17.2495 28V25C17.2495 24.8011 17.3285 24.6103 17.4692 24.4697C17.6098 24.329 17.8006 24.25 17.9995 24.25H21.9995C22.1984 24.25 22.3892 24.329 22.5298 24.4697C22.6705 24.6103 22.7495 24.8011 22.7495 25V28C22.749 28.7292 22.4591 29.4283 21.9435 29.944C21.4279 30.4596 20.7287 30.7495 19.9995 30.75ZM18.7495 25.75V28C18.7495 28.3315 18.8812 28.6495 19.1156 28.8839C19.35 29.1183 19.668 29.25 19.9995 29.25C20.331 29.25 20.649 29.1183 20.8834 28.8839C21.1178 28.6495 21.2495 28.3315 21.2495 28V25.75H18.7495Z" fill="#297AFC"/>
<path d="M25.9995 25.75H13.9995C13.2702 25.75 12.5707 25.4603 12.055 24.9445C11.5392 24.4288 11.2495 23.7293 11.2495 23C11.2495 22.2706 11.5392 21.5712 12.055 21.0554C12.5707 20.5397 13.2702 20.25 13.9995 20.25H25.9995C26.7289 20.25 27.4283 20.5397 27.9441 21.0554C28.4598 21.5712 28.7495 22.2706 28.7495 23C28.7495 23.7293 28.4598 24.4288 27.9441 24.9445C27.4283 25.4603 26.7289 25.75 25.9995 25.75ZM13.9995 21.75C13.668 21.75 13.35 21.8817 13.1156 22.1161C12.8812 22.3505 12.7495 22.6685 12.7495 23C12.7495 23.3315 12.8812 23.6494 13.1156 23.8839C13.35 24.1183 13.668 24.25 13.9995 24.25H25.9995C26.331 24.25 26.649 24.1183 26.8834 23.8839C27.1178 23.6494 27.2495 23.3315 27.2495 23C27.2495 22.6685 27.1178 22.3505 26.8834 22.1161C26.649 21.8817 26.331 21.75 25.9995 21.75H13.9995Z" fill="#297AFC"/>
<path d="M27 22.02C26.8011 22.02 26.6103 21.941 26.4697 21.8003C26.329 21.6597 26.25 21.4689 26.25 21.27V12C26.2495 11.6686 26.1176 11.351 25.8833 11.1167C25.649 10.8824 25.3314 10.7505 25 10.75H20.24C20.0072 10.7498 19.779 10.8149 19.5812 10.9377C19.3835 11.0605 19.2241 11.2362 19.121 11.445L18.669 12.338C18.5997 12.4536 18.5017 12.5492 18.3844 12.6156C18.2672 12.682 18.1347 12.7169 18 12.7169C17.8653 12.7169 17.7328 12.682 17.6156 12.6156C17.4983 12.5492 17.4003 12.4536 17.331 12.338L16.88 11.448C16.7776 11.2382 16.6183 11.0613 16.4203 10.9375C16.2223 10.8138 15.9935 10.7481 15.76 10.748H15C14.6683 10.7485 14.3504 10.8807 14.116 11.1154C13.8816 11.3501 13.75 11.6683 13.75 12V21.27C13.75 21.4689 13.671 21.6597 13.5303 21.8003C13.3897 21.941 13.1989 22.02 13 22.02C12.8011 22.02 12.6103 21.941 12.4697 21.8003C12.329 21.6597 12.25 21.4689 12.25 21.27V12C12.2508 11.2709 12.5408 10.5719 13.0563 10.0563C13.5719 9.54077 14.2709 9.25078 15 9.24999H15.76C16.1987 9.24881 16.6313 9.35323 17.0212 9.55443C17.411 9.75564 17.7468 10.0477 18 10.406C18.2531 10.0476 18.5888 9.75543 18.9787 9.55421C19.3686 9.35299 19.8012 9.24864 20.24 9.24999H25C25.7291 9.25078 26.4281 9.54077 26.9437 10.0563C27.4592 10.5719 27.7492 11.2709 27.75 12V21.27C27.75 21.4689 27.671 21.6597 27.5303 21.8003C27.3897 21.941 27.1989 22.02 27 22.02Z" fill="#297AFC"/>
<path d="M17.9995 14.75C17.8006 14.75 17.6098 14.671 17.4692 14.5303C17.3285 14.3897 17.2495 14.1989 17.2495 14V12C17.2495 11.8011 17.3285 11.6103 17.4692 11.4697C17.6098 11.329 17.8006 11.25 17.9995 11.25C18.1984 11.25 18.3892 11.329 18.5298 11.4697C18.6705 11.6103 18.7495 11.8011 18.7495 12V14C18.7495 14.1989 18.6705 14.3897 18.5298 14.5303C18.3892 14.671 18.1984 14.75 17.9995 14.75Z" fill="#297AFC"/>
</svg>
