<svg width="50" height="50" viewBox="0 0 50 50" fill="none" xmlns="http://www.w3.org/2000/svg">
<circle cx="25" cy="25" r="25" fill="#3D57F9"/>
<path d="M21 17L22.1094 15.3359C21.4957 14.9268 20.7066 14.8886 20.0563 15.2367C19.406 15.5847 19 16.2624 19 17H21ZM21 33H19C19 33.7376 19.406 34.4153 20.0563 34.7633C20.7066 35.1114 21.4957 35.0732 22.1094 34.6641L21 33ZM33 25L34.1094 26.6641C34.6658 26.2932 35 25.6687 35 25C35 24.3313 34.6658 23.7068 34.1094 23.3359L33 25ZM21 17H19V33H21H23V17H21ZM21 33L22.1094 34.6641L34.1094 26.6641L33 25L31.8906 23.3359L19.8906 31.3359L21 33ZM33 25L34.1094 23.3359L22.1094 15.3359L21 17L19.8906 18.6641L31.8906 26.6641L33 25ZM45 25H43C43 34.9411 34.9411 43 25 43V45V47C37.1503 47 47 37.1503 47 25H45ZM25 45V43C15.0589 43 7 34.9411 7 25H5H3C3 37.1503 12.8497 47 25 47V45ZM5 25H7C7 15.0589 15.0589 7 25 7V5V3C12.8497 3 3 12.8497 3 25H5ZM25 5V7C34.9411 7 43 15.0589 43 25H45H47C47 12.8497 37.1503 3 25 3V5Z" fill="white"/>
</svg>
