<svg width="160" height="160" viewBox="0 0 160 160" fill="none" xmlns="http://www.w3.org/2000/svg">
<path d="M8.70256 98.3725C8.70256 95.771 8.70256 93.1719 8.70256 90.5704C8.7098 74.2422 8.63982 57.914 8.75324 41.5858C8.84495 28.431 14.784 18.3194 25.5062 10.9638C32.0655 6.46302 39.4356 4.44552 47.3753 4.59273C54.1493 4.71822 60.4359 6.68263 66.3146 9.96468C69.4567 11.7191 72.5047 13.6425 75.8302 15.631C74.5439 15.7879 73.5231 15.8965 72.5071 16.0413C60.6965 17.7137 51.8229 28.0473 51.5382 39.9544C51.1858 54.7526 64.6664 67.0072 79.8676 65.1538C84.2694 64.6181 88.2706 63.0953 91.9943 60.7617C96.3116 58.054 100.904 56.1982 106.061 55.841C112.567 55.3921 118.55 56.9318 123.862 60.6362C131.866 66.2181 136.186 73.914 135.805 83.7795C135.501 91.695 132.011 98.2374 125.618 102.919C116.199 109.819 106.129 110.444 95.7855 105.079C91.9026 103.064 88.8063 100.04 86.562 96.2706C79.1364 83.806 68.1704 76.5034 53.8983 74.6332C40.3575 72.8594 28.3876 76.8148 18.2736 86.1155C14.5644 89.5279 11.6081 93.5074 9.25038 97.9454C9.16108 98.1143 9.0549 98.2784 8.95837 98.4449C8.87149 98.4208 8.78461 98.3991 8.69774 98.3749L8.70256 98.3725Z" fill="#266BFF"/>
<path d="M43.1086 155.584C40.4178 154.855 37.6474 154.339 35.0507 153.359C20.7521 147.96 11.9146 137.788 9.49655 122.636C7.68659 111.296 10.8528 101.075 18.3991 92.4069C25.5858 84.1511 34.7442 79.4162 45.7101 78.8177C60.1849 78.0262 71.8555 83.5791 80.5554 95.2208C81.4652 96.4395 82.1337 97.8319 82.9614 99.1158C88.1548 107.159 95.6287 111.694 105.021 112.867C115.572 114.184 124.798 111.076 132.173 103.346C143.028 91.9653 143.385 74.6331 133.104 62.7357C125.478 53.9128 115.736 50.1939 104.169 51.3475C99.5937 51.8036 95.3415 53.365 91.4055 55.771C88.4902 57.5544 85.5388 59.2606 82.165 60.098C70.2 63.0663 58.8045 55.9037 56.3647 43.8446C54.7116 35.6708 58.9928 26.79 66.708 22.6754C73.8996 18.8407 81.2166 19.1327 88.3406 22.7381C94.0721 25.6389 99.6371 28.8726 105.224 32.0485C113.468 36.7351 121.661 41.511 129.883 46.2361C139.075 51.5212 146.136 58.7634 149.126 69.0898C153.764 85.1067 150.352 99.2582 137.909 110.728C130.189 117.845 121.236 123.019 111.233 126.275C106.015 127.974 100.689 128.905 95.2329 127.433C89.1877 125.802 84.3925 122.363 81.1225 117.022C73.0863 103.894 55.8049 99.9291 42.9952 106.812C29.7729 113.916 23.9496 129.279 30.9505 143.042C33.5062 148.064 37.3505 151.966 42.3605 154.65C42.6622 154.812 42.9469 155 43.2413 155.174C43.1955 155.311 43.1496 155.446 43.1062 155.584H43.1086Z" fill="#266BFF"/>
<path d="M100.453 132.73C97.1467 134.596 94.1421 136.287 91.14 137.982C83.7554 142.144 76.337 146.245 68.9982 150.487C58.1047 156.783 44.3611 154.032 36.8535 143.947C30.772 135.778 31.1557 124.892 37.8091 116.849C46.8347 105.941 63.3367 104.922 73.5207 114.73C75.0652 116.216 76.3201 118.041 77.5364 119.826C82.4812 127.083 89.1949 131.415 97.972 132.433C98.6839 132.515 99.3934 132.605 100.455 132.733L100.453 132.73Z" fill="#266BFF"/>
</svg>
