<svg width="40" height="40" viewBox="0 0 40 40" fill="none" xmlns="http://www.w3.org/2000/svg">
<path d="M40 20C40 16.1667 39.8333 12.6667 39.1667 10.6667C38.5 8.33333 37.6667 6.16667 35.6667 4.16667C33.1667 1.83333 31 1.16667 27.6667 0.5C25.3333 0.166667 22.5 0 20.8333 0H19.3333C17.5 0 14.8333 0.166667 12.3333 0.5C9 1.16667 6.66667 2 4.33333 4.16667C2.16667 6.16667 1.5 8.33333 0.833333 10.6667C0.166667 12.6667 0 16.1667 0 20C0 23.8333 0.166667 27.3333 0.833333 29.3333C1.5 31.6667 2.33333 33.8333 4.33333 35.8333C6.83333 38.1667 9 38.8333 12.3333 39.5C15 40 18.3333 40 20 40C21.6667 40 25 40 27.8333 39.5C31 38.8333 33.3333 38.1667 35.8333 35.8333C37.8333 34 38.6667 31.8333 39.3333 29.3333C39.8333 27.3333 40 23.8333 40 20Z" fill="#379DF1"/>
<path d="M10.8333 20.5H14.3333C15.6667 20.5 16.6667 21.5 16.6667 22.8333V28.6667C16.6667 30 15.6667 31 14.3333 31H10.8333C9.5 31 8.5 30 8.5 28.6667V20.5C8.5 14.1667 13.6667 9 20 9C26.3333 9 31.5 14.1667 31.5 20.5V28.6667C31.5 30 30.5 31 29.1667 31H25.6667C24.3333 31 23.3333 30 23.3333 28.6667V22.8333C23.3333 21.5 24.3333 20.5 25.6667 20.5H29.1667C29.1667 15.3333 25 11.3333 20 11.3333C15 11.3333 10.8333 15.5 10.8333 20.5Z" fill="white"/>
</svg>
