<svg width="25" height="25" viewBox="0 0 25 25" fill="none" xmlns="http://www.w3.org/2000/svg">
<path fill-rule="evenodd" clip-rule="evenodd" d="M15.625 4.16667C15.7211 4.06718 15.836 3.98782 15.9631 3.93323C16.0902 3.87863 16.2269 3.8499 16.3652 3.8487C16.5035 3.8475 16.6407 3.87385 16.7687 3.92623C16.8967 3.9786 17.013 4.05595 17.1108 4.15375C17.2086 4.25156 17.286 4.36786 17.3384 4.49588C17.3907 4.6239 17.4171 4.76106 17.4159 4.89938C17.4147 5.03769 17.386 5.17438 17.3314 5.30146C17.2768 5.42855 17.1974 5.54349 17.0979 5.63958L10.974 11.7635C10.7787 11.9589 10.669 12.2238 10.669 12.5C10.669 12.7762 10.7787 13.0411 10.974 13.2365L17.099 19.3604C17.2943 19.5559 17.404 19.8209 17.4039 20.0972C17.4038 20.3736 17.2939 20.6385 17.0984 20.8339C16.903 21.0292 16.6379 21.1388 16.3616 21.1388C16.0853 21.1387 15.8203 21.0288 15.625 20.8333L8.02813 13.2365C7.83285 13.0411 7.72314 12.7762 7.72314 12.5C7.72314 12.2238 7.83285 11.9589 8.02813 11.7635L15.625 4.16667Z" fill="#222222"/>
</svg>
