<svg width="28" height="28" viewBox="0 0 28 28" fill="none" xmlns="http://www.w3.org/2000/svg">
<path d="M8.03573 20.473C7.93493 20.4732 7.83634 20.4435 7.75247 20.3876C7.6686 20.3317 7.60322 20.2521 7.56463 20.159C7.52605 20.0659 7.51599 19.9634 7.53574 19.8645C7.55549 19.7657 7.60415 19.6749 7.67555 19.6038L19.6036 7.67577C19.8021 7.47723 20.1254 7.47723 20.3239 7.67577C20.5225 7.87432 20.5225 8.19632 20.3239 8.39614L8.39464 20.3254C8.29537 20.4247 8 20.5 8.03446 20.4743L8.03573 20.473Z" fill="#AAAAAA" stroke="#AAAAAA" stroke-width="0.5"/>
<path d="M19.9644 20.4731C19.8346 20.4731 19.7035 20.4235 19.6042 20.3242L7.67623 8.39491C7.58089 8.29929 7.52734 8.16976 7.52734 8.03473C7.52734 7.89969 7.58089 7.77017 7.67623 7.67455C7.77185 7.5792 7.90138 7.52566 8.03641 7.52566C8.17145 7.52566 8.30097 7.5792 8.3966 7.67455L20.3259 19.6038C20.4212 19.6994 20.4748 19.829 20.4748 19.964C20.4748 20.099 20.4212 20.2286 20.3259 20.3242C20.2266 20.4235 20.0968 20.4731 19.9657 20.4731H19.9644Z" fill="#AAAAAA" stroke="#AAAAAA" stroke-width="0.5"/>
</svg>
