<svg width="40" height="40" viewBox="0 0 40 40" fill="none" xmlns="http://www.w3.org/2000/svg">
<g clip-path="url(#clip0_27_143)">
<path d="M20 40C31.0457 40 40 31.0457 40 20C40 8.9543 31.0457 0 20 0C8.9543 0 0 8.9543 0 20C0 31.0457 8.9543 40 20 40Z" fill="#FF5A54"/>
<path fill-rule="evenodd" clip-rule="evenodd" d="M28.6053 38.0584C28.5632 38.0785 28.5207 38.0975 28.4783 38.1176L19.6321 30.1709L19.6533 30.1891L19.6753 30.206L19.6979 30.2216L19.7213 30.2361L19.7447 30.2493L19.769 30.2612L19.7935 30.2719L19.8185 30.2814L19.8438 30.2896L19.8693 30.2965L19.8953 30.3022L19.9213 30.3066L19.9475 30.3097L19.9738 30.3116L20 30.3125L20.0264 30.3119L20.0527 30.31L20.0789 30.3068L20.105 30.3024L20.1308 30.2968L20.1564 30.2898L20.1817 30.282L20.2067 30.2726L20.2312 30.2619L20.2554 30.25L20.2789 30.2368L20.3023 30.2223L20.3249 30.2067L20.3468 30.1898L20.3681 30.1716L20.3886 30.152L29.8459 20.6939L30.0725 20.4553L30.2847 20.208L30.4822 19.9528L30.665 19.6901L30.8334 19.4205L30.987 19.1445L31.126 18.8629L31.2504 18.5761L31.3597 18.2847L31.4548 17.9893L31.5353 17.6905L31.6011 17.3887L31.6523 17.0847L31.689 16.7789L31.7108 16.472L31.7182 16.1646L31.7108 15.8571L31.6889 15.5502L31.6523 15.2445L31.6011 14.9405L31.5353 14.6387L31.4548 14.3398L31.3597 14.0444L31.2504 13.753L31.126 13.4662L30.987 13.185L30.8333 12.9091L30.665 12.6394L30.4822 12.3767L30.2847 12.1214L39.7126 23.39C39.3591 25.4597 38.6799 27.4603 37.7001 29.3173C35.7454 33.0186 32.6834 36.0168 28.9418 37.8931C28.8301 37.9491 28.7182 38.0045 28.6053 38.0584Z" fill="url(#paint0_linear_27_143)"/>
<path fill-rule="evenodd" clip-rule="evenodd" d="M29.8458 11.6351C28.2002 9.9896 26.3643 9.38257 24.3892 9.83046C22.9695 10.1525 21.4945 11.0274 19.9999 12.4336C18.5054 11.0273 17.0305 10.1523 15.6106 9.83054C13.6356 9.38257 11.7996 9.98976 10.1541 11.6352C8.95476 12.8375 8.28125 14.4664 8.28125 16.1646C8.28125 17.8628 8.95476 19.4917 10.1541 20.694L19.6114 30.1513C19.7145 30.2543 19.8542 30.3122 19.9999 30.3122C20.1456 30.3122 20.2854 30.2543 20.3884 30.1513L29.8458 20.6939C31.0451 19.4916 31.7187 17.8627 31.7187 16.1645C31.7187 14.4663 31.0451 12.8374 29.8458 11.6351Z" fill="white"/>
</g>
<defs>
<linearGradient id="paint0_linear_27_143" x1="25" y1="20" x2="35" y2="31" gradientUnits="userSpaceOnUse">
<stop stop-color="#DB3A3C" stop-opacity="0.4"/>
<stop offset="1" stop-color="#DB3A3C" stop-opacity="0"/>
</linearGradient>
<clipPath id="clip0_27_143">
<rect width="40" height="40" fill="white"/>
</clipPath>
</defs>
</svg>
