<svg width="63" height="54" viewBox="0 0 63 54" fill="none" xmlns="http://www.w3.org/2000/svg">
<path d="M38.8419 8.16239H54.8874C56.0073 8.16228 57.1149 8.39855 58.1396 8.85616C59.1643 9.31377 60.0836 9.98265 60.8388 10.8202C61.5941 11.6577 62.1687 12.6454 62.526 13.7203C62.8833 14.7953 63.0155 15.9339 62.9142 17.0635L60.3474 45.6319C60.1654 47.6599 59.2416 49.5457 57.7572 50.9193C56.2729 52.2928 54.3352 53.0548 52.3246 53.0556H10.6233C8.6127 53.0548 6.67504 52.2928 5.19068 50.9193C3.70632 49.5457 2.78248 47.6599 2.60053 45.6319L0.0337302 17.0635C-0.137982 15.173 0.349619 13.2813 1.41182 11.7171L1.25467 8.16239C1.25467 5.99759 2.10374 3.92146 3.6151 2.39071C5.12646 0.859964 7.1763 0 9.31369 0H24.11C26.2472 0.000462297 28.2968 0.860729 29.8078 2.39158L33.1442 5.77081C34.6552 7.30166 36.7047 8.16193 38.8419 8.16239ZM5.30836 8.65214C6.17067 8.3338 7.09746 8.16239 8.06454 8.16239H29.8078L26.9589 5.27699C26.2034 4.51156 25.1786 4.08143 24.11 4.0812H9.31369C8.25813 4.081 7.24464 4.50033 6.49112 5.24901C5.73761 5.99769 5.30423 7.01594 5.28418 8.08485L5.30836 8.65214Z" fill="#FFAA2B"/>
</svg>
