<svg width="24" height="24" viewBox="0 0 24 24" fill="none" xmlns="http://www.w3.org/2000/svg">
<path d="M8.53846 3H4.38462C3.61991 3 3 3.61992 3 4.38462V8.53847C3 9.30317 3.61991 9.92308 4.38462 9.92308H8.53846C9.30316 9.92308 9.92308 9.30317 9.92308 8.53847V4.38462C9.92308 3.61992 9.30316 3 8.53846 3Z" stroke="#000001" stroke-width="1.38462" stroke-linecap="round" stroke-linejoin="round"/>
<path d="M19.6156 3.00001H15.4618C14.6971 3.00001 14.0771 3.61992 14.0771 4.38462V8.53847C14.0771 9.30317 14.6971 9.92308 15.4618 9.92308H19.6156C20.3803 9.92308 21.0002 9.30317 21.0002 8.53847V4.38462C21.0002 3.61992 20.3803 3.00001 19.6156 3.00001Z" stroke="#000001" stroke-width="1.38462" stroke-linecap="round" stroke-linejoin="round"/>
<path d="M8.53846 14.0769H4.38462C3.61991 14.0769 3 14.6968 3 15.4615V19.6154C3 20.3801 3.61991 21 4.38462 21H8.53846C9.30316 21 9.92308 20.3801 9.92308 19.6154V15.4615C9.92308 14.6968 9.30316 14.0769 8.53846 14.0769Z" stroke="#000001" stroke-width="1.38462" stroke-linecap="round" stroke-linejoin="round"/>
<path d="M19.6156 14.0769H15.4618C14.6971 14.0769 14.0771 14.6968 14.0771 15.4615V19.6154C14.0771 20.3801 14.6971 21 15.4618 21H19.6156C20.3803 21 21.0002 20.3801 21.0002 19.6154V15.4615C21.0002 14.6968 20.3803 14.0769 19.6156 14.0769Z" stroke="#000001" stroke-width="1.38462" stroke-linecap="round" stroke-linejoin="round"/>
</svg>
