<svg width="30" height="30" viewBox="0 0 30 30" fill="none" xmlns="http://www.w3.org/2000/svg">
<path d="M8.2001 6.11163C11.378 3.75196 12.9669 2.57213 14.7816 2.50409C14.9271 2.49864 15.0729 2.49864 15.2184 2.50409C17.0331 2.57213 18.622 3.75196 21.7999 6.11163C24.9778 8.47129 26.5667 9.65112 27.1908 11.3939C27.2409 11.5337 27.2859 11.6753 27.3258 11.8185C27.8232 13.6033 27.2163 15.5124 26.0025 19.3304C24.7886 23.1484 24.1817 25.0574 22.7528 26.2025C22.6381 26.2944 22.5202 26.3819 22.3993 26.465C20.8921 27.5 18.9281 27.5 15 27.5C11.0719 27.5 9.10788 27.5 7.60067 26.465C7.47977 26.3819 7.36188 26.2944 7.24725 26.2025C5.8183 25.0574 5.21138 23.1484 3.99753 19.3304C2.78369 15.5123 2.17677 13.6033 2.67421 11.8185C2.71412 11.6753 2.75915 11.5337 2.80921 11.3939C3.43328 9.65112 5.02222 8.47129 8.2001 6.11163Z" fill="white"/>
<path d="M3.99753 19.3304L4.95053 19.0274V19.0274L3.99753 19.3304ZM2.67421 11.8185L3.6375 12.087L2.67421 11.8185ZM8.2001 6.11163L7.60395 5.30875V5.30875L8.2001 6.11163ZM2.80921 11.3939L3.75067 11.731L2.80921 11.3939ZM7.60067 26.465L7.03458 27.2893V27.2893L7.60067 26.465ZM7.24725 26.2025L6.6219 26.9829V26.9829L7.24725 26.2025ZM26.0025 19.3304L25.0495 19.0274L26.0025 19.3304ZM22.7528 26.2025L23.3781 26.9829V26.9829L22.7528 26.2025ZM22.3993 26.465L22.9654 27.2893V27.2893L22.3993 26.465ZM21.7999 6.11163L22.3961 5.30876V5.30876L21.7999 6.11163ZM27.1908 11.3939L26.2493 11.731L27.1908 11.3939ZM27.3258 11.8185L26.3625 12.087L27.3258 11.8185ZM15.2184 2.50409L15.181 3.50339L15.2184 2.50409ZM14.7816 2.50409L14.819 3.50339L14.7816 2.50409ZM12.6167 20.7661C12.0644 20.7661 11.6167 21.2138 11.6167 21.7661C11.6167 22.3184 12.0644 22.7661 12.6167 22.7661V21.7661V20.7661ZM17.3833 22.7661C17.9356 22.7661 18.3833 22.3184 18.3833 21.7661C18.3833 21.2138 17.9356 20.7661 17.3833 20.7661V21.7661V22.7661ZM3.99753 19.3304L4.95053 19.0274C4.33716 17.0981 3.90197 15.7249 3.67379 14.6113C3.45019 13.52 3.44699 12.7706 3.6375 12.087L2.67421 11.8185L1.71093 11.55C1.404 12.6513 1.45553 13.7488 1.71449 15.0127C1.96887 16.2543 2.44406 17.7446 3.04454 19.6333L3.99753 19.3304ZM8.2001 6.11163L7.60395 5.30875C6.03246 6.47563 4.7891 7.39716 3.86761 8.2503C2.92828 9.11995 2.25341 9.97977 1.86775 11.0568L2.80921 11.3939L3.75067 11.731C3.98908 11.0653 4.42072 10.4638 5.22634 9.71789C6.04981 8.9555 7.18986 8.10729 8.79626 6.9145L8.2001 6.11163ZM2.67421 11.8185L3.6375 12.087C3.67096 11.9669 3.70871 11.8482 3.75067 11.731L2.80921 11.3939L1.86775 11.0568C1.80958 11.2192 1.75728 11.3837 1.71093 11.55L2.67421 11.8185ZM15 27.5V26.5C13.0138 26.5 11.6052 26.4986 10.5024 26.3767C9.42405 26.2575 8.73553 26.0312 8.16677 25.6406L7.60067 26.465L7.03458 27.2893C7.97302 27.9338 9.02013 28.225 10.2826 28.3646C11.5206 28.5014 13.0582 28.5 15 28.5V27.5ZM3.99753 19.3304L3.04454 19.6333C3.64497 21.5219 4.11773 23.0133 4.62614 24.1709C5.14347 25.3488 5.73456 26.2718 6.6219 26.9829L7.24725 26.2025L7.8726 25.4222C7.33099 24.9881 6.90414 24.384 6.45731 23.3667C6.00156 22.329 5.56395 20.9568 4.95053 19.0274L3.99753 19.3304ZM7.60067 26.465L8.16677 25.6406C8.06618 25.5715 7.96805 25.4987 7.8726 25.4222L7.24725 26.2025L6.6219 26.9829C6.7557 27.0901 6.89335 27.1923 7.03458 27.2893L7.60067 26.465ZM26.0025 19.3304L25.0495 19.0274C24.4361 20.9568 23.9984 22.329 23.5427 23.3667C23.0959 24.384 22.669 24.9881 22.1274 25.4222L22.7528 26.2025L23.3781 26.9829C24.2654 26.2718 24.8565 25.3488 25.3739 24.1709C25.8823 23.0133 26.355 21.5219 26.9555 19.6334L26.0025 19.3304ZM15 27.5V28.5C16.9418 28.5 18.4794 28.5014 19.7174 28.3646C20.9799 28.225 22.027 27.9338 22.9654 27.2893L22.3993 26.465L21.8332 25.6406C21.2645 26.0312 20.5759 26.2575 19.4976 26.3767C18.3948 26.4986 16.9862 26.5 15 26.5V27.5ZM22.7528 26.2025L22.1274 25.4222C22.0319 25.4987 21.9338 25.5715 21.8332 25.6406L22.3993 26.465L22.9654 27.2893C23.1066 27.1923 23.2443 27.0901 23.3781 26.9829L22.7528 26.2025ZM21.7999 6.11163L21.2037 6.9145C22.8101 8.10729 23.9502 8.9555 24.7737 9.71789C25.5793 10.4638 26.0109 11.0653 26.2493 11.731L27.1908 11.3939L28.1322 11.0568C27.7466 9.97977 27.0717 9.11995 26.1324 8.2503C25.2109 7.39716 23.9675 6.47563 22.3961 5.30876L21.7999 6.11163ZM26.0025 19.3304L26.9555 19.6334C27.5559 17.7446 28.0311 16.2543 28.2855 15.0127C28.5445 13.7488 28.596 12.6513 28.2891 11.55L27.3258 11.8185L26.3625 12.087C26.553 12.7706 26.5498 13.52 26.3262 14.6113C26.098 15.7249 25.6628 17.0981 25.0495 19.0274L26.0025 19.3304ZM27.1908 11.3939L26.2493 11.731C26.2913 11.8482 26.329 11.9669 26.3625 12.087L27.3258 11.8185L28.2891 11.55C28.2427 11.3838 28.1904 11.2192 28.1322 11.0568L27.1908 11.3939ZM21.7999 6.11163L22.3961 5.30876C20.8248 4.14204 19.5827 3.21806 18.5035 2.5857C17.4042 1.94157 16.3893 1.54729 15.2559 1.5048L15.2184 2.50409L15.181 3.50339C15.8622 3.52893 16.5491 3.75859 17.4924 4.3113C18.4558 4.87578 19.5971 5.72155 21.2037 6.9145L21.7999 6.11163ZM8.2001 6.11163L8.79626 6.9145C10.4029 5.72155 11.5442 4.87578 12.5076 4.3113C13.4509 3.75859 14.1378 3.52893 14.819 3.50339L14.7816 2.50409L14.7441 1.5048C13.6107 1.54729 12.5958 1.94157 11.4965 2.5857C10.4173 3.21806 9.17522 4.14204 7.60395 5.30875L8.2001 6.11163ZM15.2184 2.50409L15.2559 1.5048C15.0854 1.4984 14.9146 1.4984 14.7441 1.5048L14.7816 2.50409L14.819 3.50339C14.9396 3.49887 15.0604 3.49887 15.181 3.50339L15.2184 2.50409ZM12.6167 21.7661V22.7661H17.3833V21.7661V20.7661H12.6167V21.7661Z" fill="#3D57F9"/>
</svg>
