<svg width="30" height="30" viewBox="0 0 30 30" fill="none" xmlns="http://www.w3.org/2000/svg">
<path d="M3.99753 19.3304L4.85523 19.0577V19.0577L3.99753 19.3304ZM2.67421 11.8185L3.54117 12.0601L2.67421 11.8185ZM8.2001 6.11163L7.66356 5.38904V5.38904L8.2001 6.11163ZM2.80921 11.3939L3.65652 11.6973L2.80921 11.3939ZM7.60067 26.465L7.09119 27.2069V27.2069L7.60067 26.465ZM7.24725 26.2025L6.68443 26.9048V26.9048L7.24725 26.2025ZM26.0025 19.3304L25.1448 19.0577L26.0025 19.3304ZM22.7528 26.2025L23.3156 26.9048V26.9048L22.7528 26.2025ZM22.3993 26.465L22.9088 27.2069V27.2069L22.3993 26.465ZM21.7999 6.11163L22.3364 5.38904V5.38904L21.7999 6.11163ZM27.1908 11.3939L26.3435 11.6973L27.1908 11.3939ZM27.3258 11.8185L26.4588 12.0601L27.3258 11.8185ZM15.2184 2.50409L15.1847 3.40346L15.2184 2.50409ZM14.7816 2.50409L14.8153 3.40346L14.7816 2.50409ZM12.6167 20.8661C12.1197 20.8661 11.7167 21.269 11.7167 21.7661C11.7167 22.2631 12.1197 22.6661 12.6167 22.6661V21.7661V20.8661ZM17.3833 22.6661C17.8803 22.6661 18.2833 22.2631 18.2833 21.7661C18.2833 21.269 17.8803 20.8661 17.3833 20.8661V21.7661V22.6661ZM3.99753 19.3304L4.85523 19.0577C4.24251 17.1304 3.80532 15.7514 3.57583 14.6313C3.35046 13.5314 3.34484 12.7646 3.54117 12.0601L2.67421 11.8185L1.80726 11.5769C1.50615 12.6573 1.55526 13.7374 1.81246 14.9926C2.06553 16.2278 2.53872 17.7123 3.13984 19.6031L3.99753 19.3304ZM8.2001 6.11163L7.66356 5.38904C6.09033 6.55721 4.85213 7.47508 3.93554 8.32368C3.0029 9.18714 2.3402 10.034 1.9619 11.0905L2.80921 11.3939L3.65652 11.6973C3.90229 11.011 4.34609 10.3966 5.15841 9.64451C5.98678 8.87759 7.13199 8.02571 8.73664 6.83421L8.2001 6.11163ZM2.67421 11.8185L3.54117 12.0601C3.57528 11.9378 3.61376 11.8167 3.65652 11.6973L2.80921 11.3939L1.9619 11.0905C1.90454 11.2507 1.85296 11.4129 1.80726 11.5769L2.67421 11.8185ZM15 27.5V26.6C13.016 26.6 11.601 26.5987 10.4914 26.4761C9.40386 26.3558 8.69741 26.1263 8.11016 25.723L7.60067 26.465L7.09119 27.2069C8.01115 27.8386 9.04032 28.1266 10.2936 28.2652C11.5249 28.4013 13.0559 28.4 15 28.4V27.5ZM3.99753 19.3304L3.13984 19.6031C3.74091 21.4937 4.21193 22.9791 4.7177 24.1307C5.2315 25.3006 5.81438 26.2076 6.68443 26.9048L7.24725 26.2025L7.81006 25.5002C7.25117 25.0523 6.81611 24.4323 6.36576 23.4069C5.90737 22.3632 5.468 20.9851 4.85523 19.0577L3.99753 19.3304ZM7.60067 26.465L8.11016 25.723C8.00754 25.6526 7.90744 25.5782 7.81006 25.5002L7.24725 26.2025L6.68443 26.9048C6.81632 27.0105 6.952 27.1113 7.09119 27.2069L7.60067 26.465ZM26.0025 19.3304L25.1448 19.0577C24.532 20.9851 24.0926 22.3632 23.6342 23.4069C23.1839 24.4323 22.7488 25.0523 22.1899 25.5002L22.7528 26.2025L23.3156 26.9048C24.1856 26.2076 24.7685 25.3006 25.2823 24.1307C25.7881 22.9791 26.2591 21.4937 26.8602 19.6031L26.0025 19.3304ZM15 27.5V28.4C16.9441 28.4 18.4751 28.4013 19.7064 28.2652C20.9597 28.1266 21.9889 27.8386 22.9088 27.2069L22.3993 26.465L21.8898 25.723C21.3026 26.1263 20.5961 26.3558 19.5086 26.4761C18.399 26.5987 16.984 26.6 15 26.6V27.5ZM22.7528 26.2025L22.1899 25.5002C22.0926 25.5782 21.9925 25.6526 21.8898 25.723L22.3993 26.465L22.9088 27.2069C23.048 27.1113 23.1837 27.0105 23.3156 26.9048L22.7528 26.2025ZM21.7999 6.11163L21.2634 6.83421C22.868 8.02571 24.0132 8.87759 24.8416 9.64451C25.6539 10.3966 26.0977 11.011 26.3435 11.6973L27.1908 11.3939L28.0381 11.0905C27.6598 10.034 26.9971 9.18714 26.0645 8.32368C25.1479 7.47508 23.9097 6.55721 22.3364 5.38904L21.7999 6.11163ZM26.0025 19.3304L26.8602 19.6031C27.4613 17.7123 27.9345 16.2278 28.1875 14.9926C28.4447 13.7374 28.4939 12.6573 28.1927 11.5769L27.3258 11.8185L26.4588 12.0601C26.6552 12.7646 26.6495 13.5314 26.4242 14.6313C26.1947 15.7514 25.7575 17.1304 25.1448 19.0577L26.0025 19.3304ZM27.1908 11.3939L26.3435 11.6973C26.3862 11.8167 26.4247 11.9378 26.4588 12.0601L27.3258 11.8185L28.1927 11.5769C28.147 11.4129 28.0955 11.2507 28.0381 11.0905L27.1908 11.3939ZM21.7999 6.11163L22.3364 5.38904C20.7634 4.22102 19.5264 3.30094 18.4529 2.67198C17.3614 2.03242 16.363 1.64637 15.2521 1.60473L15.2184 2.50409L15.1847 3.40346C15.8885 3.42985 16.5919 3.66774 17.543 4.22502C18.5121 4.7929 19.6585 5.64257 21.2634 6.83421L21.7999 6.11163ZM8.2001 6.11163L8.73664 6.83421C10.3415 5.64257 11.4879 4.7929 12.457 4.22502C13.4081 3.66774 14.1115 3.42985 14.8153 3.40346L14.7816 2.50409L14.7479 1.60473C13.637 1.64637 12.6386 2.03242 11.5471 2.67198C10.4736 3.30094 9.23661 4.22101 7.66356 5.38904L8.2001 6.11163ZM15.2184 2.50409L15.2521 1.60473C15.0841 1.59842 14.9159 1.59842 14.7479 1.60473L14.7816 2.50409L14.8153 3.40346C14.9384 3.39885 15.0616 3.39885 15.1847 3.40346L15.2184 2.50409ZM12.6167 21.7661V22.6661H17.3833V21.7661V20.8661H12.6167V21.7661Z" fill="#5E5F60"/>
</svg>
