<svg width="35" height="35" viewBox="0 0 35 35" fill="none" xmlns="http://www.w3.org/2000/svg">
<circle cx="17.5" cy="17.5" r="17.5" transform="matrix(-1 0 0 1 35 0)" fill="#3D57F9"/>
<path fill-rule="evenodd" clip-rule="evenodd" d="M18.5335 12.8815C18.4509 12.8329 18.3523 12.7945 18.2436 12.7686C18.1348 12.7428 18.018 12.7299 17.9001 12.7309C17.7821 12.7318 17.6653 12.7465 17.5564 12.7741C17.4476 12.8017 17.3489 12.8417 17.2661 12.8917C17.1833 12.9416 17.1181 13.0006 17.0743 13.0652C17.0304 13.1298 17.0089 13.1986 17.0108 13.2677C17.0127 13.3368 17.0381 13.4048 17.0855 13.4677C17.1329 13.5306 17.2014 13.5872 17.2868 13.6341L22.5502 16.6261C22.718 16.7215 22.8133 16.8527 22.8151 16.9907C22.8169 17.1288 22.7251 17.2624 22.5598 17.3622L17.3758 20.4911C17.2105 20.591 17.1187 20.7247 17.1206 20.8628C17.1225 21.0009 17.2179 21.1321 17.3859 21.2275C17.5539 21.3229 17.7807 21.3748 18.0163 21.3716C18.252 21.3685 18.4773 21.3106 18.6426 21.2108L25.0723 17.3293C25.2376 17.2295 25.3295 17.0959 25.3276 16.9578C25.3258 16.8198 25.2305 16.6886 25.0627 16.5932L18.5335 12.8815Z" fill="white"/>
<path fill-rule="evenodd" clip-rule="evenodd" d="M14.534 12.9338C14.4514 12.8851 14.3528 12.8467 14.244 12.8209C14.1353 12.795 14.0185 12.7822 13.9005 12.7831C13.7826 12.7841 13.6657 12.7988 13.5569 12.8264C13.4481 12.854 13.3494 12.8939 13.2666 12.9439C13.1838 12.9939 13.1186 13.0529 13.0748 13.1174C13.0309 13.182 13.0094 13.2508 13.0113 13.32C13.0132 13.3891 13.0386 13.4571 13.086 13.52C13.1334 13.5829 13.2018 13.6394 13.2873 13.6863L18.5506 16.6784C18.7185 16.7738 18.8138 16.905 18.8156 17.043C18.8174 17.181 18.7256 17.3146 18.5603 17.4145L13.3763 20.5434C13.211 20.6432 13.1192 20.7769 13.1211 20.915C13.123 21.0531 13.2184 21.1843 13.3864 21.2797C13.5544 21.3752 13.7812 21.427 14.0168 21.4239C14.2525 21.4207 14.4778 21.3629 14.6431 21.263L21.0728 17.3815C21.2381 17.2817 21.3299 17.1481 21.3281 17.0101C21.3263 16.872 21.231 16.7409 21.0632 16.6454L14.534 12.9338Z" fill="white"/>
</svg>
