<svg width="35" height="35" viewBox="0 0 35 35" fill="none" xmlns="http://www.w3.org/2000/svg">
<circle cx="17.5" cy="17.5" r="17.5" transform="matrix(-1 0 0 1 35 0)" fill="#3D57F9"/>
<g clip-path="url(#clip0_2537_1034)">
<path fill-rule="evenodd" clip-rule="evenodd" d="M17.7402 21.4827C17.8222 21.5324 17.9202 21.572 18.0286 21.5993C18.137 21.6266 18.2536 21.641 18.3716 21.6416C18.4896 21.6422 18.6066 21.629 18.7158 21.6028C18.8249 21.5767 18.9242 21.538 19.0076 21.4891C19.091 21.4402 19.157 21.3821 19.2017 21.3181C19.2463 21.2541 19.2688 21.1856 19.2678 21.1165C19.2668 21.0473 19.2423 20.979 19.1957 20.9155C19.1491 20.852 19.0814 20.7945 18.9966 20.7465L13.7729 17.6858C13.6063 17.5881 13.5128 17.4557 13.5128 17.3177C13.5128 17.1796 13.6063 17.0472 13.7729 16.9496L18.9975 13.8889C19.1641 13.7912 19.2576 13.6587 19.2575 13.5206C19.2574 13.3825 19.1637 13.2501 18.997 13.1524C18.8303 13.0548 18.6042 13 18.3685 13.0001C18.1328 13.0001 17.9068 13.055 17.7402 13.1527L11.2601 16.9496C11.0936 17.0472 11 17.1796 11 17.3177C11 17.4557 11.0936 17.5881 11.2601 17.6858L17.7402 21.4827Z" fill="white"/>
<path fill-rule="evenodd" clip-rule="evenodd" d="M21.7402 21.4827C21.8222 21.5324 21.9202 21.572 22.0286 21.5993C22.137 21.6266 22.2536 21.641 22.3716 21.6416C22.4896 21.6422 22.6066 21.629 22.7158 21.6028C22.8249 21.5767 22.9242 21.538 23.0076 21.4891C23.091 21.4402 23.157 21.3821 23.2017 21.3181C23.2463 21.2541 23.2688 21.1856 23.2678 21.1165C23.2668 21.0473 23.2423 20.979 23.1957 20.9155C23.1491 20.852 23.0814 20.7945 22.9966 20.7465L17.7729 17.6858C17.6063 17.5881 17.5128 17.4557 17.5128 17.3177C17.5128 17.1796 17.6063 17.0472 17.7729 16.9496L22.9975 13.8889C23.1641 13.7912 23.2576 13.6587 23.2575 13.5206C23.2574 13.3825 23.1637 13.2501 22.997 13.1524C22.8303 13.0548 22.6042 13 22.3685 13.0001C22.1328 13.0001 21.9068 13.055 21.7402 13.1527L15.2601 16.9496C15.0936 17.0472 15 17.1796 15 17.3177C15 17.4557 15.0936 17.5881 15.2601 17.6858L21.7402 21.4827Z" fill="white"/>
</g>
<defs>
<clipPath id="clip0_2537_1034">
<rect width="16.33" height="16.33" fill="white" transform="matrix(1 -8.74228e-08 -8.74228e-08 -1 7 25.3301)"/>
</clipPath>
</defs>
</svg>
