<svg width="35" height="35" viewBox="0 0 35 35" fill="none" xmlns="http://www.w3.org/2000/svg">
    <circle cx="17.5" cy="17.5" r="17.5" fill="#3D57F9" />
    <path
        d="M17.1815 23.2273C17.1815 23.0866 17.1257 22.9517 17.0262 22.8523C16.9268 22.7529 16.7919 22.697 16.6513 22.697H10.6471C9.79794 22.697 9.22724 22.0931 9.22724 21.1946V13.2401C9.22724 12.4261 9.725 11.5607 10.6471 11.5607H22.8441C23.7497 11.5607 24.606 12.377 24.606 13.2401V19.5152C24.606 19.6559 24.6619 19.7907 24.7613 19.8902C24.8607 19.9896 24.9956 20.0455 25.1362 20.0455C25.2769 20.0455 25.4118 19.9896 25.5112 19.8902C25.6106 19.7907 25.6665 19.6559 25.6665 19.5152V13.2401C25.6665 11.8061 24.3213 10.5 22.8441 10.5H10.6471C9.25619 10.5 8.1665 11.7035 8.1665 13.2401V21.1946C8.1665 22.6795 9.20978 23.7575 10.6471 23.7575H16.6513C16.7919 23.7575 16.9268 23.7016 17.0262 23.6022C17.1257 23.5028 17.1815 23.3679 17.1815 23.2273Z"
        fill="white" />
    <path
        d="M19.0747 16.9148C19.0738 16.7586 19.0364 16.6047 18.9656 16.4655C18.8947 16.3263 18.7924 16.2055 18.6667 16.1128L16.1326 14.253C15.9634 14.1274 15.7579 14.0603 15.5472 14.0617C14.986 14.0617 14.5293 14.4945 14.5293 15.0264V18.7499C14.5293 19.2818 14.986 19.7145 15.5472 19.7145C15.756 19.7162 15.9596 19.6503 16.1278 19.5267L18.7012 17.6615C18.8178 17.5752 18.9125 17.4626 18.9774 17.3329C19.0423 17.2031 19.0757 17.0599 19.0747 16.9148ZM15.566 18.7612C15.4774 16.8954 15.4798 16.9415 15.4774 16.8954L15.4795 18.7499L15.4754 15.0409C15.477 16.4655 15.3855 17.9144 15.477 16.4655C15.473 17.7068 15.566 18.7612 15.566 18.7612ZM23.7615 21.1276L23.2634 22.1998L22.7653 21.1276C22.7391 21.0711 22.7019 21.0202 22.656 20.978C22.6101 20.9359 22.5564 20.9031 22.4978 20.8817C22.4393 20.8603 22.3771 20.8506 22.3148 20.8532C22.2525 20.8559 22.1914 20.8707 22.1348 20.897C22.0783 20.9232 22.0275 20.9604 21.9853 21.0063C21.9431 21.0522 21.9103 21.1059 21.8889 21.1645C21.8675 21.223 21.8578 21.2852 21.8604 21.3475C21.8631 21.4098 21.8779 21.4709 21.9042 21.5275L22.74 23.3266L21.9042 25.1256C21.8704 25.198 21.8554 25.2777 21.8606 25.3574C21.8659 25.437 21.8911 25.5141 21.934 25.5814C21.9769 25.6487 22.0361 25.7042 22.1061 25.7425C22.1761 25.7809 22.2547 25.801 22.3346 25.8009C22.4251 25.8009 22.5138 25.775 22.5902 25.7263C22.6665 25.6776 22.7274 25.6081 22.7655 25.5259L23.2636 24.4536L23.7617 25.5259C23.8148 25.6401 23.9111 25.7285 24.0294 25.7717C24.1477 25.8149 24.2783 25.8094 24.3926 25.7564C24.4491 25.7301 24.5 25.693 24.5422 25.647C24.5844 25.6011 24.6171 25.5473 24.6385 25.4888C24.6599 25.4302 24.6696 25.368 24.6669 25.3057C24.6642 25.2434 24.6493 25.1822 24.623 25.1256L23.7872 23.3266L24.623 21.5275C24.6493 21.4709 24.6641 21.4097 24.6667 21.3474C24.6693 21.2851 24.6596 21.2229 24.6382 21.1643C24.6168 21.1058 24.584 21.052 24.5418 21.0061C24.4996 20.9602 24.4487 20.923 24.3922 20.8968C24.3356 20.8705 24.2744 20.8557 24.2121 20.853C24.1498 20.8504 24.0876 20.8601 24.029 20.8816C23.9704 20.903 23.9167 20.9358 23.8708 20.978C23.8249 21.0202 23.7877 21.071 23.7615 21.1276ZM18.8065 24.5692C18.8062 24.517 18.8161 24.4653 18.8359 24.4171C18.8556 24.3688 18.8846 24.3249 18.9214 24.2879C18.9581 24.2509 19.0018 24.2215 19.0499 24.2014C19.098 24.1813 19.1497 24.1709 19.2018 24.1709C19.5039 24.1705 19.8679 24.1705 19.8679 24.1705C20.505 24.1705 21.1789 23.479 21.1789 22.8249V21.1329C21.1789 20.4476 20.4616 19.8959 19.8679 19.8959H18.3563C18.1079 19.8959 17.8814 20.0746 17.8566 20.3219C17.8498 20.3881 17.8569 20.4549 17.8776 20.5181C17.8982 20.5814 17.9319 20.6396 17.9764 20.689C18.0209 20.7384 18.0754 20.7779 18.1361 20.8049C18.1969 20.8319 18.2627 20.8459 18.3292 20.8459H19.8679C20.0148 20.8459 20.2259 21.0452 20.229 21.1329V22.8249C20.2269 22.9475 19.9859 23.21 19.8679 23.2207H18.8587C17.9849 23.2207 17.8543 23.8282 17.8543 24.1905V25.4669C17.8543 26.1321 18.2393 26.5452 18.8587 26.5452H20.677C20.9255 26.5452 21.1519 26.3665 21.1767 26.1192C21.1835 26.0531 21.1764 25.9862 21.1558 25.923C21.1351 25.8597 21.1015 25.8015 21.0569 25.7521C21.0124 25.7027 20.958 25.6633 20.8972 25.6362C20.8364 25.6092 20.7706 25.5952 20.7041 25.5952L19.206 25.5944C19.1017 25.5945 19.0017 25.5533 18.9278 25.4799C18.8538 25.4065 18.8118 25.3069 18.811 25.2027C18.8092 25.0055 18.8077 24.7671 18.8065 24.5692Z"
        fill="white" />
</svg>
