<svg width="35" height="35" viewBox="0 0 35 35" fill="none" xmlns="http://www.w3.org/2000/svg">
<circle cx="17.5" cy="17.5" r="17.5" fill="#3D57F9"/>
<path d="M18.3485 22.0606C18.3485 21.92 18.2926 21.7851 18.1932 21.6856C18.0938 21.5862 17.9589 21.5303 17.8183 21.5303H11.8141C10.9649 21.5303 10.3942 20.9265 10.3942 20.028V12.0735C10.3942 11.2594 10.892 10.3941 11.8141 10.3941H24.0111C24.9167 10.3941 25.773 11.2103 25.773 12.0735V18.3486C25.773 18.4892 25.8288 18.6241 25.9283 18.7235C26.0277 18.823 26.1626 18.8788 26.3032 18.8788C26.4439 18.8788 26.5787 18.823 26.6782 18.7235C26.7776 18.6241 26.8335 18.4892 26.8335 18.3486V12.0735C26.8335 10.6394 25.4883 9.33334 24.0111 9.33334H11.8141C10.4232 9.33334 9.3335 10.5369 9.3335 12.0735V20.028C9.3335 21.5129 10.3768 22.5908 11.8141 22.5908H17.8183C17.9589 22.5908 18.0938 22.535 18.1932 22.4355C18.2926 22.3361 18.3485 22.2012 18.3485 22.0606Z" fill="white"/>
<path d="M20.2412 15.7481C20.2403 15.5919 20.2029 15.4381 20.1321 15.2989C20.0612 15.1596 19.9589 15.0389 19.8332 14.9461L17.2991 13.0863C17.1299 12.9607 16.9244 12.8936 16.7137 12.8951C16.1525 12.8951 15.6958 13.3278 15.6958 13.8597V17.5832C15.6958 18.1151 16.1525 18.5479 16.7137 18.5479C16.9225 18.5495 17.1261 18.4836 17.2943 18.36L19.8677 16.4948C19.9843 16.4086 20.079 16.296 20.1439 16.1662C20.2088 16.0364 20.2422 15.8932 20.2412 15.7481ZM16.7325 17.5945C16.6439 15.7287 16.6463 15.7748 16.6439 15.7287L16.646 17.5832L16.6419 13.8742C16.6435 15.2989 16.552 16.7477 16.6435 15.2989C16.6395 16.5401 16.7325 17.5945 16.7325 17.5945ZM24.928 19.9609L24.4299 21.0331L23.9318 19.9609C23.9056 19.9044 23.8684 19.8536 23.8225 19.8114C23.7766 19.7692 23.7229 19.7364 23.6643 19.715C23.6058 19.6936 23.5436 19.6839 23.4813 19.6866C23.419 19.6892 23.3579 19.704 23.3013 19.7303C23.2448 19.7566 23.194 19.7937 23.1518 19.8396C23.1096 19.8855 23.0768 19.9392 23.0554 19.9978C23.034 20.0563 23.0243 20.1185 23.0269 20.1808C23.0296 20.2431 23.0444 20.3043 23.0707 20.3608L23.9065 22.1599L23.0707 23.959C23.0369 24.0313 23.0219 24.111 23.0272 24.1907C23.0324 24.2703 23.0576 24.3474 23.1005 24.4147C23.1434 24.4821 23.2026 24.5375 23.2726 24.5758C23.3427 24.6142 23.4212 24.6343 23.5011 24.6342C23.5916 24.6342 23.6803 24.6084 23.7567 24.5596C23.833 24.5109 23.8939 24.4414 23.932 24.3593L24.4301 23.2869L24.9282 24.3593C24.9813 24.4734 25.0776 24.5619 25.1959 24.6051C25.3142 24.6483 25.4448 24.6427 25.5591 24.5897C25.6156 24.5634 25.6665 24.5263 25.7087 24.4804C25.7509 24.4345 25.7836 24.3807 25.805 24.3221C25.8264 24.2635 25.8361 24.2013 25.8334 24.139C25.8307 24.0767 25.8158 24.0155 25.7895 23.959L24.9537 22.1599L25.7895 20.3608C25.8158 20.3042 25.8306 20.2431 25.8332 20.1807C25.8358 20.1184 25.8261 20.0562 25.8047 19.9977C25.7833 19.9391 25.7505 19.8853 25.7083 19.8394C25.6661 19.7935 25.6152 19.7564 25.5587 19.7301C25.5021 19.7038 25.4409 19.689 25.3786 19.6864C25.3163 19.6838 25.2541 19.6935 25.1955 19.7149C25.137 19.7363 25.0832 19.7691 25.0373 19.8113C24.9914 19.8535 24.9542 19.9044 24.928 19.9609Z" fill="white"/>
<path d="M19.0908 23.1746C19.0078 23.1044 19.0015 23.0045 19.0716 22.8747L19.2184 22.6068C19.2886 22.477 19.4024 22.4675 19.5597 22.5781C19.6916 22.6716 19.8405 22.7482 20.0063 22.8077C20.1722 22.8652 20.3573 22.8939 20.5614 22.8939C20.8422 22.8939 21.0431 22.8184 21.1644 22.6674C21.2856 22.5143 21.3462 22.3431 21.3462 22.1538C21.3462 21.9602 21.2739 21.7869 21.1293 21.6338C20.9868 21.4785 20.7847 21.4009 20.5231 21.4009H20.2775C20.1393 21.4009 20.0701 21.3446 20.0701 21.2318V20.8809C20.0701 20.764 20.1393 20.7055 20.2775 20.7055H20.4689C20.6646 20.7055 20.8368 20.6449 20.9857 20.5236C21.1367 20.4024 21.2122 20.2503 21.2122 20.0674C21.2122 19.925 21.1622 19.8069 21.0623 19.7133C20.9644 19.6176 20.8039 19.5698 20.5806 19.5698C20.37 19.5698 20.1882 19.6006 20.0351 19.6623C19.8819 19.724 19.7607 19.7984 19.6714 19.8856C19.5438 20.0111 19.4343 20.0058 19.3428 19.8697L19.1578 19.5985C19.0876 19.4964 19.1089 19.3922 19.2216 19.2859C19.3747 19.1391 19.5725 19.0307 19.8149 18.9605C20.0574 18.8903 20.2945 18.8552 20.5263 18.8552C21.0729 18.8552 21.4791 18.9647 21.745 19.1838C22.0108 19.4007 22.1437 19.6666 22.1437 19.9813C22.1437 20.2153 22.0523 20.429 21.8694 20.6225C21.6865 20.8139 21.4929 20.9458 21.2888 21.0181V21.0309C21.5312 21.0904 21.7609 21.2212 21.9778 21.4232C22.1948 21.6232 22.3032 21.872 22.3032 22.1697C22.3032 22.6355 22.1565 22.9917 21.863 23.2384C21.5695 23.4851 21.1218 23.6085 20.52 23.6085C20.2669 23.6085 20.0042 23.5702 19.732 23.4936C19.4619 23.4149 19.2482 23.3086 19.0908 23.1746Z" fill="white"/>
</svg>
