<svg width="35" height="35" viewBox="0 0 35 35" fill="none" xmlns="http://www.w3.org/2000/svg">
<circle cx="17.5" cy="17.5" r="17.5" fill="#3D57F9"/>
<path d="M26.2425 8.16667H10.9091C10.5828 8.16667 10.3184 8.43114 10.3184 8.7574V19.0339H15.1304C19.9153 14.2489 18.8933 15.2709 20.2636 13.901H17.572C17.2537 13.901 16.98 13.6562 16.9653 13.3384C16.9498 12.9991 17.2196 12.7195 17.5554 12.7195H21.6896C22.0383 12.7195 22.2804 13.0075 22.2804 13.3103V17.4278C22.2804 17.7458 22.0363 18.0194 21.7187 18.0346C21.3795 18.0507 21.099 17.7805 21.099 17.4446V14.7363C19.729 16.1066 20.7512 15.0843 15.9661 19.8695V24.6816H26.2425C26.5688 24.6816 26.8333 24.4171 26.8333 24.0908V8.7574C26.8333 8.4311 26.5688 8.16667 26.2425 8.16667Z" fill="white"/>
<path d="M10.8602 24.1396C10.6297 23.9089 10.6297 23.5346 10.8602 23.3039L13.9489 20.2153H8.75724C8.43094 20.2153 8.1665 20.4798 8.1665 20.806V26.2425C8.1665 26.5688 8.43097 26.8333 8.75724 26.8333H14.1938C14.5201 26.8333 14.7845 26.5688 14.7845 26.2425V21.0509L11.6959 24.1397C11.4654 24.3701 11.0909 24.3703 10.8602 24.1397V24.1396Z" fill="white"/>
</svg>
