<svg width="35" height="35" viewBox="0 0 35 35" fill="none" xmlns="http://www.w3.org/2000/svg">
<!--    <circle cx="17.5" cy="17.5" r="17.5" fill="#3D57F9" />-->
    <path
        d="M17.5 9C13.3579 9 10 12.3579 10 16.5V23C10 24.6569 11.3431 26 13 26H14C14.5523 26 15 25.5523 15 25V20C15 19.4477 14.5523 19 14 19H12V16.5C12 13.4624 14.4624 11 17.5 11C20.5376 11 23 13.4624 23 16.5V19H21C20.4477 19 20 19.4477 20 20V25C20 25.5523 20.4477 26 21 26H22C23.6569 26 25 24.6569 25 23V16.5C25 12.3579 21.6421 9 17.5 9Z"
        fill="white" />
</svg>