<svg width="45" height="45" viewBox="0 0 45 45" fill="none" xmlns="http://www.w3.org/2000/svg">
    <g clip-path="url(#clip_fit)">
        <path
            d="M11.4771 11.1745H17.0643C17.6815 11.1745 18.1817 11.6748 18.1817 12.2919C18.1817 12.9091 17.6815 13.4094 17.0643 13.4094H14.1746L18.9718 18.2066C19.4082 18.643 19.4083 19.3506 18.9718 19.7869C18.5354 20.2233 17.8278 20.2232 17.3914 19.7867L12.5942 14.9895V17.8792C12.5942 18.4963 12.0939 18.9966 11.4767 18.9966C10.8595 18.9966 10.3592 18.4963 10.3592 17.8792V12.2919C10.3592 11.6748 10.8595 11.1745 11.4771 11.1745Z"
            fill="white" />

        <path
            d="M33.826 33.5235H28.2388C27.6216 33.5235 27.1213 33.0232 27.1213 32.4061C27.1213 31.7889 27.6216 31.2886 28.2388 31.2886H31.1285L26.3313 26.4914C25.8949 26.055 25.8948 25.3474 26.3313 24.9111C26.7677 24.4747 27.4753 24.4748 27.9117 24.9113L32.7089 29.7085V26.8188C32.7089 26.2017 33.2092 25.7014 33.8264 25.7014C34.4435 25.7014 34.9438 26.2017 34.9438 26.8188V32.4061C34.9438 33.0232 34.4435 33.5235 33.826 33.5235Z"
            fill="white" />

        <rect x="15.5" y="15.5" width="14" height="14" rx="1.5" stroke="white" stroke-width="2"
            stroke-dasharray="3 2" opacity="0.7" />
    </g>
    <defs>
        <clipPath id="clip_fit">
            <rect width="24.5846" height="24.5846" fill="white"
                transform="translate(10.3592 10.1745)" />
        </clipPath>
    </defs>
</svg>