<svg width="35" height="35" viewBox="0 0 35 35" fill="none" xmlns="http://www.w3.org/2000/svg">
<circle cx="17.5" cy="17.5" r="17.5" fill="#3D57F9"/>
<path d="M17.5002 9.33333C12.9865 9.33333 9.3335 12.9859 9.3335 17.5C9.3335 22.0136 12.986 25.6667 17.5002 25.6667C22.0139 25.6667 25.6668 22.0141 25.6668 17.5C25.6668 12.9864 22.0143 9.33333 17.5002 9.33333ZM18.3388 20.7418C18.3388 20.9998 17.9626 21.2578 17.5003 21.2578C17.0166 21.2578 16.6726 20.9998 16.6726 20.7418V16.6461C16.6726 16.3452 17.0166 16.1409 17.5003 16.1409C17.9626 16.1409 18.3388 16.3452 18.3388 16.6461V20.7418ZM17.5004 15.152C17.0059 15.152 16.6189 14.7865 16.6189 14.3779C16.6189 13.9694 17.0059 13.6147 17.5004 13.6147C17.9841 13.6147 18.3711 13.9694 18.3711 14.3779C18.3711 14.7865 17.9841 15.152 17.5004 15.152Z" fill="white"/>
</svg>
