<svg width="45" height="45" viewBox="0 0 45 45" fill="none" xmlns="http://www.w3.org/2000/svg">
<circle cx="22.5" cy="22.5" r="22.5" fill="#3D57F9"/>
<path d="M29.7366 19.8347H28.4329V18.1585C28.4329 14.9237 25.7037 12.2919 22.349 12.2919C18.9943 12.2919 16.2651 14.9237 16.2651 18.1585V19.8347H14.9614C14.9044 19.8347 14.8478 19.8455 14.7951 19.8665C14.7423 19.8876 14.6944 19.9185 14.6541 19.9574C14.6137 19.9963 14.5817 20.0425 14.5599 20.0934C14.538 20.1442 14.5268 20.1987 14.5269 20.2538V30.7299C14.5269 31.6543 15.3064 32.406 16.2651 32.406H28.4329C29.3916 32.406 30.1712 31.6543 30.1712 30.7298V20.2538C30.1712 20.1987 30.16 20.1442 30.1381 20.0934C30.1163 20.0425 30.0843 19.9963 30.0439 19.9574C30.0036 19.9185 29.9557 19.8876 29.9029 19.8665C29.8502 19.8455 29.7937 19.8347 29.7366 19.8347ZM23.6502 28.5884C23.6569 28.647 23.6507 28.7063 23.6321 28.7624C23.6134 28.8185 23.5827 28.8702 23.542 28.9141C23.5012 28.958 23.4513 28.9932 23.3955 29.0172C23.3397 29.0413 23.2793 29.0537 23.2182 29.0537H21.4799C21.4188 29.0537 21.3583 29.0413 21.3025 29.0172C21.2468 28.9932 21.1968 28.958 21.1561 28.9141C21.1153 28.8702 21.0846 28.8185 21.066 28.7624C21.0473 28.7063 21.0412 28.647 21.0479 28.5884L21.322 26.2112C20.8769 25.899 20.6108 25.4051 20.6108 24.8632C20.6108 23.9388 21.3903 23.1871 22.349 23.1871C23.3077 23.1871 24.0873 23.9388 24.0873 24.8632C24.0873 25.4051 23.8212 25.899 23.3761 26.2112L23.6502 28.5884ZM25.8255 19.8347H18.8725V18.1585C18.8725 16.3101 20.4321 14.8062 22.349 14.8062C24.2659 14.8062 25.8255 16.3101 25.8255 18.1585V19.8347Z" fill="white"/>
</svg>
