<svg width="45" height="45" viewBox="0 0 61 61" fill="none" xmlns="http://www.w3.org/2000/svg">
<circle cx="30.5" cy="30.5" r="30.5" fill="#3D57F9"/>
<path d="M28.0643 22.4198C28.0643 20.8485 26.7905 19.5746 25.2192 19.5746C23.6478 19.5746 22.374 20.8485 22.374 22.4198V39.4907C22.374 41.062 23.6478 42.3358 25.2192 42.3358C26.7905 42.3358 28.0643 41.062 28.0643 39.4907V22.4198Z" fill="white"/>
<path d="M39.4452 22.4198C39.4452 20.8485 38.1714 19.5746 36.6 19.5746C35.0287 19.5746 33.7549 20.8485 33.7549 22.4198V39.4907C33.7549 41.062 35.0287 42.3358 36.6 42.3358C38.1714 42.3358 39.4452 41.062 39.4452 39.4907V22.4198Z" fill="white"/>
</svg>
