<svg width="35" height="35" viewBox="0 0 35 35" fill="none" xmlns="http://www.w3.org/2000/svg">
    <circle cx="17.5" cy="17.5" r="17.5" fill="white" />
    <path
        d="M18.6136 26.1595C18.7641 26.2739 18.9508 26.3281 19.1374 26.3281C19.2759 26.3281 19.4204 26.298 19.5469 26.2318C19.848 26.0752 20.0407 25.7621 20.0407 25.4249V9.07086C20.0407 8.73366 19.848 8.42055 19.5469 8.264C19.2519 8.11346 18.8845 8.13755 18.6136 8.33625L12.255 12.8703H9.06971C8.56994 12.8703 8.1665 13.2798 8.1665 13.7736V20.7222C8.1665 21.216 8.56994 21.6254 9.06971 21.6254H12.255L18.6136 26.1595ZM26.5678 14.8737C26.3985 14.7045 26.1689 14.6095 25.9296 14.6095C25.6902 14.6095 25.4606 14.7045 25.2913 14.8737L24.1942 15.9708L23.0971 14.8737C23.0138 14.7874 22.9141 14.7186 22.8039 14.6712C22.6937 14.6239 22.5752 14.599 22.4553 14.598C22.3354 14.5969 22.2164 14.6198 22.1054 14.6652C21.9944 14.7106 21.8936 14.7777 21.8088 14.8625C21.724 14.9473 21.6569 15.0481 21.6115 15.1591C21.5661 15.2701 21.5432 15.389 21.5443 15.509C21.5453 15.6289 21.5702 15.7474 21.6176 15.8576C21.6649 15.9678 21.7337 16.0675 21.82 16.1508L22.9171 17.2479L21.82 18.3444C21.7322 18.4273 21.662 18.527 21.6135 18.6375C21.5649 18.7481 21.5391 18.8672 21.5374 18.9879C21.5356 19.1086 21.5582 19.2285 21.6036 19.3403C21.6489 19.4522 21.7163 19.5538 21.8017 19.6392C21.887 19.7246 21.9886 19.792 22.1004 19.8375C22.2123 19.8829 22.3321 19.9055 22.4528 19.9038C22.5735 19.9022 22.6927 19.8763 22.8032 19.8278C22.9138 19.7794 23.0135 19.7092 23.0965 19.6215L24.1942 18.525L25.2907 19.6215C25.4671 19.7979 25.6983 19.8865 25.9296 19.8865C26.1608 19.8865 26.392 19.7979 26.5678 19.6215C26.737 19.4522 26.832 19.2226 26.832 18.9832C26.832 18.7439 26.737 18.5143 26.5678 18.345L25.4719 17.2479L26.569 16.1508C26.7382 15.9814 26.8332 15.7519 26.8332 15.5125C26.8332 15.2732 26.7382 15.0436 26.569 14.8743L26.5678 14.8737Z"
        fill="#3D57F9" />
</svg>
