<svg width="35" height="35" viewBox="0 0 35 35" fill="none" xmlns="http://www.w3.org/2000/svg">
<circle cx="17.5" cy="17.5" r="17.5" fill="#3D57F9"/>
<path d="M18.6435 9.74069C19.8483 8.83681 21.8237 9.51649 21.8237 10.9981V23.9927C21.8237 25.2501 20.0952 26.2697 18.6435 25.2501L13.2987 21.239H11.2551C10.2592 21.239 9.3335 20.5531 9.3335 19.5752V15.4156C9.3335 14.5246 10.203 13.7518 11.2551 13.7518H13.2982L18.6435 9.74069ZM24.818 14.4714C25.3744 15.2559 25.6682 16.1588 25.6668 17.0795C25.6668 18.235 25.2105 19.3323 24.389 20.2133C24.2285 20.3839 23.9965 20.4925 23.7438 20.5153C23.491 20.5382 23.2381 20.4734 23.0404 20.3351C22.8427 20.1969 22.7163 19.9965 22.6889 19.7777C22.6614 19.559 22.7352 19.3398 22.894 19.168C23.4463 18.5771 23.7469 17.8396 23.7453 17.0795C23.7453 16.4564 23.5483 15.8603 23.1803 15.3416C23.047 15.1535 23.0055 14.9273 23.0649 14.7127C23.1243 14.4981 23.2797 14.3127 23.4969 14.1973C23.7141 14.0819 23.9754 14.0459 24.2232 14.0973C24.4711 14.1487 24.6847 14.2833 24.818 14.4714Z" fill="white"/>
</svg>
