<svg width="45" height="45" viewBox="0 0 45 45" fill="none" xmlns="http://www.w3.org/2000/svg">
<circle cx="22.5" cy="22.5" r="22.5" fill="#3D57F9"/>
<g clip-path="url(#clip0_71_1674)">
<path d="M30.9864 20.1004H25.3992C24.782 20.1004 24.2817 19.6 24.2817 18.9829V13.3957C24.2817 12.7785 24.7821 12.2782 25.3992 12.2782C26.0164 12.2782 26.5167 12.7785 26.5167 13.3957V16.2854L31.3139 11.4882C31.7469 11.0699 32.4334 11.0699 32.8665 11.4882C33.3103 11.9169 33.3227 12.6243 32.8939 13.0682L28.0967 17.8655H30.9864C31.6036 17.8655 32.1039 18.3658 32.1039 18.9829C32.1039 19.6001 31.6036 20.1004 30.9864 20.1004Z" fill="white"/>
<path d="M13.0936 24.584H18.6809C19.2981 24.584 19.7983 25.0843 19.7983 25.7014V31.2886C19.7983 31.9058 19.298 32.4061 18.6809 32.4061C18.0637 32.4061 17.5634 31.9058 17.5634 31.2886V28.3989L12.7662 33.1961C12.3332 33.6144 11.6466 33.6144 11.2136 33.1961C10.7697 32.7674 10.7574 32.06 11.1862 31.6161L15.9834 26.8189H13.0936C12.4765 26.8189 11.9762 26.3185 11.9762 25.7014C11.9762 25.0842 12.4765 24.584 13.0936 24.584Z" fill="white"/>
</g>
<defs>
<clipPath id="clip0_71_1674">
<rect width="22.349" height="22.349" fill="white" transform="translate(11.1748 11.1745)"/>
</clipPath>
</defs>
</svg>
