<svg width="45" height="45" viewBox="0 0 45 45" fill="none" xmlns="http://www.w3.org/2000/svg">
<circle cx="22.5" cy="22.5" r="22.5" fill="#3D57F9"/>
<g clip-path="url(#clip0_71_1669)">
<path d="M26.0039 20.1141C26.3002 20.114 26.5844 19.9963 26.7939 19.7867L31.5911 14.9895V17.8792C31.5911 18.4963 32.0914 18.9966 32.7086 18.9966C33.3257 18.9966 33.826 18.4963 33.826 17.8792V12.2919C33.826 11.6748 33.3257 11.1745 32.7086 11.1745H27.1214C26.5042 11.1745 26.0039 11.6748 26.0039 12.2919C26.0039 12.9091 26.5042 13.4094 27.1214 13.4094H30.0111L25.2139 18.2066C24.7775 18.643 24.7776 19.3506 25.2141 19.7869C25.4236 19.9963 25.7077 20.114 26.0039 20.1141ZM12.5945 33.5235H18.1817C18.7989 33.5235 19.2992 33.0232 19.2992 32.4061C19.2992 31.7889 18.7989 31.2886 18.1817 31.2886H15.292L20.0892 26.4914C20.518 26.0474 20.5057 25.3401 20.0618 24.9113C19.6288 24.4931 18.9422 24.4931 18.5092 24.9113L13.712 29.7085V26.8188C13.712 26.2017 13.2117 25.7014 12.5945 25.7014C11.9774 25.7014 11.4771 26.2017 11.4771 26.8188V32.4061C11.4771 33.0232 11.9773 33.5235 12.5945 33.5235Z" fill="white"/>
</g>
<defs>
<clipPath id="clip0_71_1669">
<rect width="22.349" height="22.349" fill="white" transform="translate(11.4771 11.1745)"/>
</clipPath>
</defs>
</svg>
