<svg width="40" height="40" viewBox="0 0 40 40" fill="none" xmlns="http://www.w3.org/2000/svg">
<rect width="40" height="40" rx="11.4286" fill="#297AFC" fill-opacity="0.05"/>
<path d="M24.5721 17.4627H23.313L21.8359 21.3119C20.4873 21.0042 19.2165 20.4294 18.1008 19.6227C19.4037 18.22 20.2714 16.4795 20.6014 14.6069H22.4338C22.6203 14.6069 22.7992 14.534 22.9311 14.4041C23.0631 14.2743 23.1372 14.0982 23.1372 13.9146C23.1372 13.731 23.0631 13.5549 22.9311 13.4251C22.7992 13.2952 22.6203 13.2223 22.4338 13.2223H17.7737V11.6923C17.7737 11.5087 17.6996 11.3326 17.5677 11.2028C17.4358 11.0729 17.2569 11 17.0703 11C16.8838 11 16.7049 11.0729 16.573 11.2028C16.441 11.3326 16.3669 11.5087 16.3669 11.6923V13.2223H11.7034C11.5168 13.2223 11.3379 13.2952 11.206 13.4251C11.0741 13.5549 11 13.731 11 13.9146C11 14.0982 11.0741 14.2743 11.206 14.4041C11.3379 14.534 11.5168 14.6069 11.7034 14.6069H13.5393C13.8677 16.4793 14.7342 18.2199 16.0363 19.6227C14.8366 20.4874 13.4621 21.0883 12.0059 21.3846C11.8193 21.4043 11.6484 21.4962 11.5306 21.64C11.4129 21.7838 11.358 21.9677 11.3781 22.1513C11.3981 22.3349 11.4915 22.5032 11.6376 22.6191C11.7837 22.7349 11.9705 22.789 12.1571 22.7692C12.2092 22.7705 12.2613 22.7647 12.3118 22.7519C14.0466 22.4026 15.6755 21.662 17.0703 20.5884C18.3288 21.5598 19.7831 22.2561 21.3365 22.6308L18.8851 29H20.7034L21.653 26.3138H26.204L27.1641 29H29L24.5721 17.4627ZM19.1911 14.6069C18.8988 16.1451 18.1668 17.5693 17.0809 18.7123C15.9942 17.5698 15.262 16.1454 14.9707 14.6069H19.1911ZM22.2438 24.6973L23.9426 19.91L25.6272 24.6973H22.2438Z" fill="#297AFC"/>
</svg>
