<svg width="25" height="23" viewBox="0 0 25 23" fill="none" xmlns="http://www.w3.org/2000/svg">
<path d="M17.7478 0.0366866C19.6187 0.176126 21.3773 0.980392 22.7038 2.30322C23.4317 3.02851 24.0092 3.8897 24.4032 4.83758C24.7972 5.78546 25 6.80145 25 7.82749C25 8.85354 24.7972 9.86953 24.4032 10.8174C24.0092 11.7653 23.4317 12.6265 22.7038 13.3518L13.3959 22.6316C13.2797 22.7483 13.1415 22.841 12.9893 22.9042C12.8371 22.9674 12.6738 23 12.5088 23C12.3439 23 12.1806 22.9674 12.0283 22.9042C11.8761 22.841 11.7379 22.7483 11.6218 22.6316L2.31385 13.3518C0.908067 11.96 0.0834266 10.0889 0.0059913 8.11525C-0.071444 6.14159 0.604078 4.21198 1.89652 2.715C3.18897 1.21802 5.00233 0.26486 6.97145 0.0474689C8.94057 -0.169922 10.9192 0.364601 12.5088 1.5434C14.0178 0.431894 15.8768 -0.102753 17.7478 0.0366866Z" fill="#EB5757"/>
</svg>
