<svg width="30" height="30" viewBox="0 0 30 30" fill="none" xmlns="http://www.w3.org/2000/svg">
<path d="M6.1739 27.5031C8.2651 27.5031 9.96035 25.7593 9.96035 23.6082C9.96035 21.4571 8.2651 19.7133 6.1739 19.7133C4.0827 19.7133 2.38745 21.4571 2.38745 23.6082C2.38745 25.7593 4.0827 27.5031 6.1739 27.5031Z" stroke="#5E5F60" stroke-width="1.8" stroke-linecap="round" stroke-linejoin="round"/>
<path d="M23.213 22.6345C25.3042 22.6345 26.9994 20.8906 26.9994 18.7395C26.9994 16.5884 25.3042 14.8446 23.213 14.8446C21.1218 14.8446 19.4265 16.5884 19.4265 18.7395C19.4265 20.8906 21.1218 22.6345 23.213 22.6345Z" stroke="#5E5F60" stroke-width="1.8" stroke-linecap="round" stroke-linejoin="round"/>
<path d="M26.9992 18.7394V3.47133C26.9984 3.32233 26.9644 3.17551 26.8997 3.04218C26.8351 2.90884 26.7415 2.79255 26.6263 2.70225C26.5111 2.61195 26.3773 2.55005 26.2351 2.52132C26.093 2.49259 25.9464 2.4978 25.8065 2.53654L10.6607 6.85991C10.4605 6.91534 10.2836 7.03682 10.1571 7.20569C10.0305 7.37456 9.96137 7.58148 9.96021 7.79469V23.6081" stroke="#5E5F60" stroke-width="1.8" stroke-linecap="round" stroke-linejoin="round"/>
<path d="M9.96021 12.8971L26.9992 8.02844" stroke="#5E5F60" stroke-width="1.8" stroke-linecap="round" stroke-linejoin="round"/>
</svg>
