<svg width="30" height="30" viewBox="0 0 30 30" fill="none" xmlns="http://www.w3.org/2000/svg">
<path d="M6.78645 26.7899C8.87765 26.7899 10.5729 25.046 10.5729 22.8949C10.5729 20.7438 8.87765 19 6.78645 19C4.69525 19 3 20.7438 3 22.8949C3 25.046 4.69525 26.7899 6.78645 26.7899Z" fill="white" stroke="white" stroke-linecap="round" stroke-linejoin="round"/>
<path d="M23.7864 22.7899C25.8776 22.7899 27.5729 21.046 27.5729 18.8949C27.5729 16.7438 25.8776 15 23.7864 15C21.6953 15 20 16.7438 20 18.8949C20 21.046 21.6953 22.7899 23.7864 22.7899Z" fill="white" stroke="white" stroke-linecap="round" stroke-linejoin="round"/>
<path d="M26.9995 18.7394V3.47133C26.9987 3.32233 26.9646 3.17551 26.9 3.04218C26.8353 2.90884 26.7418 2.79255 26.6266 2.70225C26.5113 2.61195 26.3775 2.55005 26.2354 2.52132C26.0933 2.49259 25.9466 2.4978 25.8067 2.53654L10.6609 6.85991C10.4608 6.91534 10.2839 7.03682 10.1573 7.20569C10.0308 7.37456 9.96161 7.58148 9.96045 7.79469V23.6081" stroke="white" stroke-width="2" stroke-linecap="round" stroke-linejoin="round"/>
<path d="M9.96045 12.8971L26.9995 8.02844" stroke="white" stroke-width="1.8" stroke-linecap="round" stroke-linejoin="round"/>
<path d="M25.7178 2.87711L10.7178 7.28887C10.2923 7.41404 10 7.80463 10 8.24824V11.6635C10 12.3311 10.6417 12.8113 11.2822 12.6229L26.2822 8.21113C26.7077 8.08596 27 7.69537 27 7.25176V3.83647C27 3.16887 26.3583 2.68873 25.7178 2.87711Z" fill="white"/>
</svg>
