<svg width="303" height="174" viewBox="0 0 303 174" fill="none" xmlns="http://www.w3.org/2000/svg">
<g clip-path="url(#clip0_194_360)">
<path d="M73.1416 150.219C73.8265 150.51 74.0276 151.387 74.1794 152.065C74.2694 152.46 74.8593 152.325 74.7722 151.933C74.5739 151.045 74.3032 150.055 73.38 149.66C73.226 149.597 73.0467 149.666 72.9813 149.821C72.9159 149.975 72.9869 150.153 73.1416 150.219Z" fill="#3F81EB"/>
<path d="M79.3581 154.162C79.2702 154.555 79.8636 154.687 79.9508 154.294C80.0858 153.684 79.3686 152.663 78.9545 152.192C78.8434 152.066 78.6507 152.055 78.5263 152.165C78.4011 152.276 78.3885 152.467 78.4988 152.593C78.747 152.875 79.4333 153.831 79.3581 154.161V154.162Z" fill="#3F81EB"/>
<path d="M85.1458 156.814C85.034 157.199 85.6176 157.369 85.728 156.981C85.9712 156.141 84.7935 154.441 84.2922 153.721C84.1952 153.584 84.0053 153.549 83.8696 153.646C83.7325 153.741 83.6988 153.931 83.7944 154.068C84.1045 154.513 85.2969 156.284 85.1458 156.814Z" fill="#3F81EB"/>
<path d="M91.4845 160.284C91.5253 160.684 92.1279 160.626 92.0892 160.223C91.983 159.162 91.0254 156.527 90.3876 157.033C90.2562 157.137 90.2344 157.328 90.3384 157.459C90.9761 158.262 91.3833 159.264 91.4845 160.284Z" fill="#3F81EB"/>
<path d="M98.9939 164.748C99.8271 164.748 98.9102 161.784 98.238 162.292C98.1023 162.39 98.0728 162.579 98.1719 162.715C99.2505 164.197 98.295 164.748 98.9939 164.748Z" fill="#3F81EB"/>
<path d="M97.9596 168.178C98.0109 168.019 97.9237 167.848 97.7641 167.797C97.6059 167.746 97.4336 167.833 97.3823 167.992C97.1636 168.67 96.7439 168.793 96.2102 168.443C96.0717 168.355 95.8825 168.389 95.7897 168.53C95.6983 168.671 95.737 168.858 95.8769 168.95C96.7017 169.493 97.6017 169.286 97.9596 168.178Z" fill="#3F81EB"/>
<path d="M90.6683 164.256C88.8212 164.348 88.1891 165.351 87.7919 165.069C87.6541 164.975 87.4642 165.01 87.3693 165.148C87.2744 165.286 87.3102 165.476 87.448 165.571C88.2981 166.151 88.8993 164.95 90.6986 164.862C90.8652 164.853 90.9946 164.711 90.9861 164.543C90.9777 164.377 90.823 164.264 90.6676 164.256H90.6683Z" fill="#3F81EB"/>
<path d="M86.8585 161.422C86.18 161.753 85.4614 161.987 84.7224 162.122C84.5572 162.153 84.4482 162.312 84.4777 162.475C84.5094 162.646 84.6753 162.75 84.8307 162.72C85.6252 162.575 86.3965 162.322 87.1243 161.967C87.2747 161.894 87.3373 161.713 87.2642 161.561C87.1911 161.412 87.0118 161.348 86.8585 161.421V161.422Z" fill="#3F81EB"/>
<path d="M81.7037 159.096C80.8529 159.221 80.0155 159.731 79.24 159.749C79.0726 159.753 78.9397 159.891 78.9439 160.06C78.9475 160.225 79.0825 160.356 79.247 160.356H79.254C80.1892 160.334 80.971 159.82 81.7944 159.695C81.9603 159.671 82.0749 159.517 82.0489 159.351C82.025 159.186 81.8759 159.067 81.7044 159.096L81.7037 159.096Z" fill="#3F81EB"/>
<path d="M74.884 156.284C74.3869 156.425 73.8737 156.525 73.3611 156.58C73.1944 156.597 73.0742 156.746 73.0918 156.913C73.108 157.069 73.2401 157.184 73.3934 157.184C73.4033 157.184 73.4145 157.184 73.4258 157.182C73.9735 157.124 74.5205 157.018 75.0507 156.867C75.2117 156.822 75.3052 156.653 75.2595 156.493C75.2138 156.331 75.0486 156.237 74.8847 156.284H74.884Z" fill="#3F81EB"/>
<path d="M97.8752 136.005C98.9327 134.027 98.3477 133.018 97.8963 133.239C97.7458 133.313 97.6839 133.495 97.7577 133.646C98.0861 134.314 97.6684 135.105 97.3387 135.722C97.151 136.076 97.6853 136.36 97.8752 136.005Z" fill="#3F81EB"/>
<path d="M100.254 141.177C100.754 140.802 100.877 139.562 100.87 138.936C100.868 138.77 100.733 138.636 100.567 138.636H100.563C100.396 138.638 100.261 138.775 100.264 138.943C100.267 139.31 100.165 140.484 99.8902 140.693C99.7559 140.793 99.7292 140.983 99.8304 141.117C99.9317 141.253 100.125 141.276 100.254 141.177V141.177Z" fill="#3F81EB"/>
<path d="M99.3931 154.688C99.0507 154.536 99.1575 154.139 98.7828 154.243C98.6204 154.285 98.5226 154.451 98.5655 154.612C98.6358 154.881 98.8475 155.11 99.1491 155.243C99.675 155.472 100.422 155.365 101.489 156.199C101.804 156.448 102.18 155.967 101.863 155.722C100.715 154.826 99.7327 154.837 99.3931 154.688V154.688Z" fill="#3F81EB"/>
<path d="M98.3365 150.331C98.2522 150.475 98.3 150.662 98.4448 150.746C99.1409 151.154 99.8904 151.467 100.672 151.674C100.822 151.718 100.999 151.628 101.043 151.459C101.086 151.297 100.989 151.131 100.828 151.088C100.098 150.894 99.3996 150.603 98.7507 150.223C98.6058 150.136 98.4202 150.186 98.3358 150.331H98.3365Z" fill="#3F81EB"/>
<path d="M98.1205 146.472C98.2534 146.558 98.446 146.525 98.5388 146.377C98.6288 146.236 98.5859 146.048 98.4439 145.958C97.7183 145.5 96.7487 145.337 96.151 144.844C96.0217 144.737 95.8304 144.757 95.7235 144.886C95.6174 145.015 95.6357 145.206 95.765 145.313C96.4843 145.905 97.4124 146.025 98.1205 146.471V146.472Z" fill="#3F81EB"/>
<path d="M95.117 139.376C94.6501 139.159 94.1973 138.9 93.7698 138.605C93.6313 138.51 93.4436 138.543 93.3472 138.682C93.2523 138.82 93.2861 139.009 93.4246 139.105C93.8809 139.42 94.3647 139.696 94.8618 139.926C95.2253 140.097 95.4812 139.545 95.1177 139.376H95.117Z" fill="#3F81EB"/>
<path d="M282.011 130.692C281.937 130.466 281.697 130.34 281.465 130.414C281.237 130.488 281.113 130.733 281.187 130.96L282.522 135.089C282.698 135.635 283.523 135.367 283.347 134.821L282.011 130.692Z" fill="#3F81EB"/>
<path d="M281.245 135.337C281.133 135.123 280.866 135.045 280.659 135.158C280.448 135.27 280.368 135.533 280.48 135.744L282.126 138.837C282.393 139.342 283.163 138.939 282.892 138.431L281.246 135.337H281.245Z" fill="#3F81EB"/>
<path d="M291.295 144.126C291.412 144.336 291.676 144.409 291.885 144.293C293.234 143.538 294.298 142.265 294.803 140.799C294.881 140.573 294.761 140.326 294.535 140.248C294.31 140.172 294.061 140.29 293.983 140.516C293.547 141.783 292.628 142.884 291.461 143.536C291.252 143.652 291.178 143.917 291.295 144.125V144.126Z" fill="#3F81EB"/>
<path d="M295.444 129.752L296.584 128.343C296.945 127.899 296.272 127.351 295.91 127.797L294.769 129.206C294.408 129.653 295.084 130.197 295.444 129.751V129.752Z" fill="#3F81EB"/>
<path d="M294.608 160.193C294.427 160.035 294.153 160.056 293.997 160.235C293.839 160.415 293.859 160.69 294.039 160.846L294.412 161.17C294.593 161.327 294.866 161.307 295.023 161.125C295.179 160.944 295.16 160.67 294.978 160.514L294.608 160.192V160.193Z" fill="#3F81EB"/>
<path d="M290.713 159.868C290.552 159.688 290.277 159.674 290.101 159.833C289.922 159.993 289.907 160.267 290.066 160.446L290.883 161.358C291.265 161.785 291.912 161.207 291.529 160.779L290.713 159.868Z" fill="#3F81EB"/>
<path d="M284.575 161.934C284.462 161.722 284.198 161.643 283.989 161.753C283.777 161.864 283.696 162.127 283.808 162.338L284.047 162.787C284.317 163.294 285.081 162.887 284.812 162.38L284.576 161.933L284.575 161.934Z" fill="#3F81EB"/>
<path d="M287.619 169.437L286.403 168.721C286.2 168.601 285.932 168.667 285.81 168.875C285.689 169.081 285.758 169.347 285.964 169.468L287.179 170.184C287.388 170.307 287.651 170.234 287.772 170.03C287.894 169.824 287.825 169.559 287.619 169.437Z" fill="#3F81EB"/>
<path d="M294.898 168.176L293.786 167.67C293.569 167.574 293.312 167.667 293.212 167.885C293.113 168.104 293.209 168.36 293.427 168.459L294.54 168.964C294.762 169.064 295.016 168.964 295.113 168.749C295.212 168.531 295.116 168.274 294.898 168.176Z" fill="#3F81EB"/>
<path d="M111.417 164.988H256.932C257.172 164.988 257.366 164.794 257.366 164.554V44.2415C257.366 44.0017 257.172 43.8077 256.932 43.8077H111.417C111.177 43.8077 110.983 44.0017 110.983 44.2415V164.554C110.983 164.794 111.177 164.988 111.417 164.988ZM127.317 155.473L121.352 159.678C120.659 160.173 119.705 159.67 119.705 158.82V150.41C119.705 149.56 120.658 149.066 121.352 149.551L127.317 153.765C127.916 154.181 127.916 155.057 127.317 155.473ZM256.498 164.121H134.444V145.111H256.498V164.121ZM256.498 44.6753V144.244H111.85V44.6753H256.498Z" fill="#3F81EB"/>
<path d="M241.317 50.7678H252.409C252.649 50.7678 252.843 50.5738 252.843 50.334C252.843 50.0942 252.649 49.9002 252.409 49.9002H241.317C241.077 49.9002 240.883 50.0942 240.883 50.334C240.883 50.5738 241.077 50.7678 241.317 50.7678Z" fill="#3F81EB"/>
<path d="M241.317 54.2047H252.409C252.649 54.2047 252.843 54.0106 252.843 53.7708C252.843 53.5311 252.649 53.337 252.409 53.337H241.317C241.077 53.337 240.883 53.5311 240.883 53.7708C240.883 54.0106 241.077 54.2047 241.317 54.2047Z" fill="#3F81EB"/>
<path d="M241.317 57.6415H252.409C252.649 57.6415 252.843 57.4474 252.843 57.2077C252.843 56.9679 252.649 56.7739 252.409 56.7739H241.317C241.077 56.7739 240.883 56.9679 240.883 57.2077C240.883 57.4474 241.077 57.6415 241.317 57.6415Z" fill="#3F81EB"/>
<path d="M148.632 156.192H158.034V158.491C158.034 158.881 158.351 159.197 158.741 159.197H162.157C162.547 159.197 162.863 158.881 162.863 158.491V156.192H247.01V153.04H162.863V150.741C162.863 150.351 162.547 150.034 162.157 150.034H158.741C158.351 150.034 158.034 150.351 158.034 150.741V153.04H148.632V156.192Z" fill="#3F81EB"/>
<path d="M119.224 55.9927C121.311 55.9927 123.007 54.301 123.007 52.2134C123.007 50.1259 121.311 48.43 119.224 48.43C117.136 48.43 115.445 50.1217 115.445 52.2134C115.445 54.3052 117.136 55.9927 119.224 55.9927ZM118.843 51.459C118.843 51.5757 118.81 51.684 118.754 51.7782C118.857 52.0953 119.109 52.3463 119.426 52.4483C119.838 52.2029 120.363 52.4989 120.363 52.9805C120.363 54.2166 117.634 53.5515 117.602 51.4941C117.602 51.4822 117.602 51.4709 117.602 51.459C117.602 50.6363 118.843 50.642 118.843 51.459Z" fill="#3F81EB"/>
<path d="M129.248 55.9927C131.336 55.9927 133.031 54.301 133.031 52.2134C133.031 50.1259 131.336 48.43 129.248 48.43C127.16 48.43 125.469 50.1217 125.469 52.2134C125.469 54.3052 127.16 55.9927 129.248 55.9927ZM127.817 51.4231C127.817 51.3416 127.883 51.2755 127.965 51.2755H130.182C130.264 51.2755 130.33 51.3416 130.33 51.4231V51.9153L130.774 51.608C130.829 51.5701 130.904 51.6095 130.904 51.6763V52.7619C130.904 52.8287 130.829 52.868 130.774 52.8301L130.33 52.5228V53.0565C130.33 53.138 130.264 53.2041 130.182 53.2041H127.965C127.883 53.2041 127.817 53.138 127.817 53.0565V51.4231Z" fill="#3F81EB"/>
<path d="M139.273 55.9927C141.36 55.9927 143.056 54.301 143.056 52.2134C143.056 50.1259 141.36 48.43 139.273 48.43C137.185 48.43 135.493 50.1217 135.493 52.2134C135.493 54.3052 137.185 55.9927 139.273 55.9927ZM138.366 50.7917C138.366 50.2904 138.773 49.8833 139.276 49.8833C139.779 49.8833 140.185 50.2918 140.185 50.7917V51.8373C140.185 52.3386 139.777 52.7457 139.276 52.7457C138.775 52.7457 138.366 52.3351 138.366 51.8373V50.7917ZM137.956 51.8682C138.013 51.8682 138.06 51.9153 138.06 51.9723C138.06 52.2978 138.186 52.6023 138.416 52.8294C138.645 53.06 138.95 53.1865 139.276 53.1865C139.946 53.1865 140.491 52.6416 140.491 51.9716C140.491 51.9146 140.538 51.8675 140.595 51.8675C140.652 51.8675 140.699 51.9146 140.699 51.9716C140.699 52.7204 140.116 53.3293 139.38 53.3841V54.1561H140.033C140.091 54.1561 140.137 54.2025 140.137 54.2602C140.137 54.3179 140.091 54.3643 140.033 54.3643C139.946 54.3643 138.432 54.3643 138.519 54.3643C138.461 54.3643 138.415 54.3179 138.415 54.2602C138.415 54.2025 138.461 54.1561 138.519 54.1561H139.172V53.3841C138.83 53.3595 138.511 53.221 138.269 52.9756C138 52.7098 137.852 52.3526 137.852 51.9716C137.852 51.9146 137.899 51.8675 137.956 51.8675L137.956 51.8682Z" fill="#3F81EB"/>
<path d="M219.696 80.459H221.78V84.1082C221.78 84.5884 222.241 84.9168 222.68 84.7937C222.69 84.7909 222.7 84.7874 222.71 84.7839H225.91C226.093 84.8444 226.345 84.831 226.526 84.7058L233.118 80.459C234.365 80.459 227.608 80.459 251.391 80.4576C252.302 80.4576 253.047 79.7208 253.047 78.8102V63.1694C253.047 62.2589 252.302 61.5136 251.391 61.5136C245.011 61.5136 226.839 61.5136 219.697 61.5136C218.786 61.5136 218.045 62.2546 218.045 63.1652V78.806C218.045 79.7172 218.787 80.459 219.697 80.459H219.696ZM218.912 63.1652C218.912 62.7328 219.264 62.3805 219.696 62.3805H247.747C248.135 62.3805 248.529 62.7011 248.529 63.1694V78.8102C248.529 79.1414 248.308 79.4212 248.053 79.5295C247.768 79.649 227.23 79.5316 229.115 79.6603C229.028 79.7165 228.596 79.9943 228.683 79.938L222.647 83.8164C222.5 80.6299 222.977 79.5914 222.213 79.5914H219.696C219.263 79.5914 218.911 79.2391 218.911 78.806V63.1652H218.912Z" fill="#3F81EB"/>
<path d="M242.775 73.7675C244.404 73.7675 245.722 72.4498 245.722 70.82C245.722 69.1902 244.404 67.8725 242.775 67.8725C241.145 67.8725 239.827 69.1972 239.827 70.82C239.827 72.4428 241.152 73.7675 242.775 73.7675Z" fill="#3F81EB"/>
<path d="M233.722 73.7675C235.352 73.7675 236.67 72.4498 236.67 70.82C236.67 69.1902 235.352 67.8725 233.722 67.8725C232.092 67.8725 230.775 69.1972 230.775 70.82C230.775 72.4428 232.099 73.7675 233.722 73.7675Z" fill="#3F81EB"/>
<path d="M224.669 73.7675C226.299 73.7675 227.617 72.4498 227.617 70.82C227.617 69.1902 226.299 67.8725 224.669 67.8725C223.04 67.8725 221.722 69.1972 221.722 70.82C221.722 72.4428 223.047 73.7675 224.669 73.7675Z" fill="#3F81EB"/>
<path d="M185.674 64.8477C186.334 65.1044 186.634 63.8472 185.525 63.9808C185.744 63.497 186.496 61.3561 185.648 61.2991C184.94 61.2344 185.385 62.2012 184.732 63.6299C184.666 63.7734 184.556 64.0117 184.594 64.2965C184.715 65.1852 185.588 64.8175 185.675 64.8477H185.674Z" fill="#3F81EB"/>
<path d="M184.008 61.6275C183.498 61.6275 183.498 62.3967 184.008 62.3967C184.517 62.3967 184.517 61.6275 184.008 61.6275Z" fill="#3F81EB"/>
<path d="M187.924 61.8616C188.092 62.0275 188.365 62.0303 188.538 61.8588C188.707 61.6886 188.704 61.4144 188.535 61.245C187.875 60.5925 186.247 60.7408 186.558 61.5135C186.809 62.1428 187.442 61.3821 187.923 61.8616H187.924Z" fill="#3F81EB"/>
<path d="M187.41 61.9825C186.902 61.9509 186.855 62.7194 187.363 62.7503C187.871 62.782 187.918 62.0135 187.41 61.9825Z" fill="#3F81EB"/>
<path d="M186.176 65.5305C186.03 65.3399 185.757 65.3033 185.568 65.451C185.22 65.7182 185.035 65.5965 184.866 65.4714C184.706 65.3526 184.562 65.2302 184.307 65.4334C184.054 65.6331 184.105 65.9122 184.315 66.1323C184.768 66.6069 185.566 66.5802 186.056 66.171C186.264 65.9966 186.357 65.7681 186.175 65.5305H186.176Z" fill="#3F81EB"/>
<path d="M156.991 91.7785C157.231 91.7785 157.425 91.5844 157.425 91.3447V90.1163C157.425 89.8766 157.231 89.6825 156.991 89.6825C156.751 89.6825 156.557 89.8766 156.557 90.1163V91.3447C156.557 91.5844 156.751 91.7785 156.991 91.7785Z" fill="#3F81EB"/>
<path d="M202.415 110.768L200.566 109.728C200.357 109.608 200.092 109.685 199.976 109.893C199.858 110.102 199.933 110.366 200.141 110.483C201.486 111.113 202.224 111.99 202.58 111.357C202.697 111.149 202.623 110.884 202.415 110.768Z" fill="#3F81EB"/>
<path d="M194.486 95.5472C194.631 96.1062 195.47 95.8861 195.326 95.3306L194.859 93.5257C194.799 93.2937 194.564 93.1531 194.331 93.2142C194.099 93.2747 193.959 93.5117 194.019 93.7423L194.487 95.5472H194.486Z" fill="#3F81EB"/>
<path d="M122.94 72.0758C121.413 72.7747 122.104 74.7293 123.171 76.1658C122.483 77.4771 123.8 79.3551 124.802 80.4499C124.98 80.6693 128.939 85.5074 132.912 85.9869C132.482 86.6612 131.704 87.1583 132.147 87.5767C132.892 88.3396 150.597 106.148 158.591 106.885C161.556 107.145 167.391 103.365 169.689 101.77C169.355 108.72 169.23 113.411 169.195 114.402C166.581 114.402 163.612 114.522 162.306 115.025C161.193 115.454 160.636 116.907 161.745 117.887C160.071 118.704 159.942 120.578 162.251 121.422C161.686 122.988 163.649 123.902 165.314 124.144C166.358 127.102 177.132 126.467 180.222 124.063C180.315 124.299 180.266 124.944 180.77 124.944C188.359 124.371 217.394 122.335 217.869 114.445C218.665 101.277 216.464 90.3737 213.265 83.0416V83.0331C212.502 81.2521 211.482 79.3291 210.135 78.0044C210.115 77.9637 209.979 77.8012 209.901 77.7703C206.059 74.0185 198.751 71.4409 193.497 70.3138L192.726 69.7091V67.5822C193.402 66.8151 194.388 65.6106 194.989 64.712C195.313 64.4434 195.56 64.0237 195.687 63.5111C196.195 62.4403 196.286 61.4123 195.257 61.0101C195.708 59.779 196.705 56.4413 195.361 53.9529C194.356 52.115 190.315 51.5251 186.995 52.0025C180.578 52.9334 180.082 57.3757 182.677 58.713C182.643 58.8952 182.607 59.0857 182.591 59.2769C182.134 63.1926 181.015 67.3487 185.235 68.1032L185.029 69.7168C181.22 71 177.737 71.9689 172.502 75.0598C172.499 75.0612 172.495 75.0598 172.491 75.0619C171.674 75.3748 170.981 75.8403 170.386 76.3725C166.241 79.1013 162.344 82.5213 158.548 86.7273C138.896 75.5084 140.931 75.6708 139.685 77.3674C139.13 69.2155 135.86 69.6655 135.919 69.752C134.114 69.752 133.816 71.5512 134.099 73.3646C131.816 70.9817 128.202 67.4394 126.896 67.4394C125.984 67.4394 125.536 67.8275 125.321 68.1524C125.168 68.383 125.036 68.7317 125.068 69.2246C123.594 68.5447 121.823 69.6542 122.941 72.0758H122.94ZM178.041 114.465C178.243 115.349 177.314 111.26 180.006 123.116C176.948 126.067 163.676 125.807 166.498 122.986C166.937 122.545 168.239 122.873 168.127 122.119C168.084 121.885 167.859 121.72 167.625 121.754C166.542 121.93 165.653 122.181 165.318 123.261C162.474 122.799 162.183 121.198 164.881 120.814C165.446 120.733 165.329 119.882 164.759 119.955C164.09 120.05 163.187 120.198 162.744 120.665C161.617 120.303 160.919 119.685 161.759 118.849C161.847 118.762 162.117 118.662 162.03 118.706C163.19 118.262 164.171 118.615 164.092 117.899C164.035 117.373 163.464 117.525 162.943 117.606C162.581 117.448 162.095 117.163 162.016 116.776C161.806 115.677 163.663 115.54 164.65 115.444C170.694 114.886 173.463 115.895 173.061 114.764C172.65 114.259 170.41 113.337 170.124 112.03C170.131 111.89 170.138 111.75 170.139 111.609C170.977 109.114 175.889 112.501 178.042 114.464L178.041 114.465ZM170.079 113.579C170.166 113.661 170.461 113.993 171.053 114.426C170.728 114.42 170.14 114.412 170.053 114.411L170.079 113.579ZM194.762 62.7285C194.762 63.9098 193.575 63.902 193.575 62.7285C193.575 62.2343 193.843 61.8356 194.165 61.8356C194.551 61.8356 194.763 62.339 194.763 62.7285H194.762ZM194.598 54.3706C195.539 56.0982 195.171 58.6287 194.52 60.4744C194.256 60.3935 193.634 60.4125 193.369 60.4413C193.356 57.2492 191.563 53.9769 188.173 52.7492C191.112 52.5411 193.973 53.2259 194.597 54.3706H194.598ZM185.199 53.2955C188.99 54.0542 191.29 55.4569 193.206 60.4638C193.103 60.4898 193.004 60.5292 192.91 60.5805C192.751 60.2845 191.934 60.1776 192.318 59.5554C192.43 59.3817 192.439 59.1736 192.344 59.0006C191.753 58.0374 185.419 59.5821 182.902 57.8391C181.493 56.9939 181.634 54.4493 185.2 53.2962L185.199 53.2955ZM183.191 61.2942C183.541 61.7196 184.043 61.0579 184.513 61.4742C184.945 61.8525 185.516 61.2021 185.085 60.8224C184.541 60.3464 183.681 60.3914 183.275 60.6768C183.34 60.2367 183.406 59.7944 183.447 59.3733C183.455 59.2776 183.473 59.1736 183.491 59.0787C185.999 59.9379 189.925 59.4541 191.398 59.5209C191.216 60.1692 191.598 60.7549 192.169 61.0811L192.225 61.3005C191.778 62.1133 191.776 63.1975 192.139 63.9942C191.395 64.6537 190.558 65.0186 189.597 65.2162C189.222 64.698 187.799 64.7697 187.985 65.683C188.133 66.4494 189.344 66.0325 189.606 65.5944C190.671 65.4791 191.619 65.1627 192.49 64.5313C193 65.1037 193.598 65.0137 193.685 65.0319C191.347 68.0842 191.904 66.3081 191.857 69.7463C191.77 69.8293 190.326 71.2081 190.418 71.1209L187.935 73.4806L187.669 73.4068C187.618 73.3203 185.711 70.0339 185.833 70.2435L186.05 68.5285C187.252 68.5827 187.796 67.5625 187.801 67.5512C187.893 67.3621 187.687 67.1673 187.504 67.2812C187.117 67.5259 186.491 67.5273 186.068 67.4922C185.099 66.6154 182.205 68.2283 183.19 61.2935L183.191 61.2942ZM140.764 77.3899L143.157 78.7814C138.174 85.3914 136.058 87.088 137.532 87.088C137.936 87.088 137.616 87.1443 143.914 79.2215L158.205 87.5324V91.4586C158.205 91.6983 158.399 91.8924 158.639 91.8924C158.879 91.8924 159.073 91.6983 159.073 91.4586V87.4501C162.114 84.059 165.225 81.1896 168.476 78.78C167.772 80.0154 167.464 81.0714 167.44 81.1614C167.286 81.7127 168.121 81.9468 168.274 81.3935C168.284 81.3604 169.018 78.8222 170.887 77.0918C174.875 74.4713 179.093 72.4962 183.674 71.0865L184.298 75.907C184.317 76.0997 184.54 76.201 184.697 76.1067L187.714 74.3637L190.627 76.6095C190.784 76.7353 190.984 76.6418 191.026 76.5138L193.627 71.2081C205.052 73.7464 209.354 78.4833 209.441 78.5255C209.45 78.5339 209.459 78.5339 209.459 78.543C209.632 78.8826 213.071 81.7492 215.563 93.2304C215.629 93.537 215.689 93.8682 215.753 94.186C214.393 91.962 212.699 90.6127 212.587 90.5248C212.396 90.3765 212.125 90.4102 211.978 90.5987C211.83 90.7878 211.863 91.0592 212.052 91.2076C212.09 91.2378 215.637 94.0678 216.437 98.2127C217.071 102.763 217.382 108.151 217.002 114.395C216.91 115.905 215.276 117.096 213.959 117.828C213.95 117.837 213.933 117.837 213.924 117.846C210.693 119.639 205.443 120.951 200.062 121.896C192.372 123.187 190.736 119.463 190.667 119.296C190.579 119.076 190.328 118.964 190.106 119.055C189.883 119.143 189.774 119.395 189.862 119.618C189.914 119.751 190.856 121.982 194.404 122.767C188.095 123.611 182.562 123.978 181.117 124.063L178.542 112.714L181.249 112.021C183.128 120.815 182.729 121.602 183.522 121.458C184.338 121.299 183.596 120.485 182.091 111.805L199.359 107.377L203.354 109.93C203.558 110.06 203.826 109.998 203.953 109.799C204.082 109.596 204.023 109.329 203.821 109.2L199.811 106.637L196.446 93.0237C196.385 92.7896 196.151 92.6426 195.925 92.7031C195.691 92.7636 195.543 92.9977 195.605 93.2318L198.908 106.601L177.918 111.976C177.326 112.135 177.722 112.833 177.73 113.047C175.869 111.516 172.229 108.991 170.193 110.268C170.292 107.62 170.356 106.176 170.434 104.44C170.862 100.482 173.806 97.9638 173.839 97.9364C174.022 97.7831 174.047 97.5096 173.894 97.3261C173.741 97.1426 173.467 97.118 173.284 97.2705C173.184 97.3542 171.687 98.624 170.608 100.797L170.958 94.3308C170.971 94.091 170.787 93.8871 170.548 93.8745C170.297 93.8471 170.105 94.0446 170.092 94.2837L169.747 100.669C166.732 102.821 161.19 106.268 158.669 106.02C156.653 105.834 153.921 104.446 150.986 102.495C150.985 102.493 150.983 102.491 150.982 102.49C146.304 99.3032 144.939 94.2485 144.925 94.1979C144.865 93.9673 144.632 93.8239 144.397 93.8878C144.166 93.9483 144.027 94.1838 144.087 94.4159C144.123 94.5565 144.714 96.739 146.432 99.176C140.276 94.3589 134.35 88.5533 133.032 87.2406L140.766 77.3913L140.764 77.3899ZM126.895 68.3071C127.661 68.3071 130.846 71.1322 134.496 75.0492C134.761 75.8501 134.646 76.5898 135.203 76.5898C135.482 76.5898 135.689 76.3296 135.625 76.0561C135.199 74.292 134.015 70.6196 135.918 70.6196H135.922C138.159 70.6238 138.795 75.9964 138.862 78.2611L133.506 85.1685C128.982 85.1418 121.208 76.1946 124.82 76.1946C124.946 76.1946 125.732 76.3423 128.779 79.2426C129.195 79.6378 129.792 79.0099 129.377 78.614C127.148 76.4927 125.367 74.7265 123.795 75.552C122.897 74.3047 122.341 72.7585 123.884 72.7585C124.003 72.7585 124.735 72.89 127.508 75.4894C127.93 75.8803 128.517 75.2489 128.1 74.8559C127.193 74.0058 124.942 71.8683 123.811 71.8965C123.257 70.8228 123.191 69.9137 124.399 69.9137C124.503 69.9137 125.135 70.0184 127.415 72.0835C127.84 72.4702 128.422 71.8255 127.997 71.4416C127.205 70.7237 126.599 70.2308 126.112 69.875C125.747 68.9406 125.884 68.3071 126.895 68.3071H126.895Z" fill="#3F81EB"/>
<path d="M217.552 136.793H161.935C161.696 136.793 161.501 136.987 161.501 137.227C161.501 137.466 161.696 137.66 161.935 137.66H217.552C217.792 137.66 217.986 137.466 217.986 137.227C217.986 136.987 217.792 136.793 217.552 136.793Z" fill="#3F81EB"/>
<path d="M92.973 46.874C92.1279 46.874 91.0943 47.5398 90.6738 48.354C90.2541 49.1689 90.6014 49.8348 91.4466 49.8348C92.2917 49.8348 93.326 49.1689 93.7458 48.354C94.1655 47.5398 93.8182 46.874 92.973 46.874Z" fill="#3F81EB"/>
<path d="M299.091 160.566C293.228 155.139 278.984 154.764 279.127 165.308C277.401 165.659 275.693 166.096 274.095 166.639C276.948 163.202 279.502 159.032 281.726 154.717C289.851 157.319 297.477 153.792 300.777 143.785C304.198 133.416 302.018 119.33 294.081 116.712C286.149 114.095 276.014 124.118 272.593 134.489C268.949 145.537 274.344 151.959 280.846 154.415C278.028 159.872 274.698 165.074 270.938 168.784V157.312C273.449 154.217 272.794 150.126 270.938 146.622C270.745 10.7007 271.338 18.7542 270.522 18.7542C247.759 18.7521 110.477 18.7374 103.466 18.7367C103.223 18.7367 103.032 18.9272 103.032 19.1705V134.631C101.906 129.553 98.0672 125.724 93.191 127.521C92.7312 127.677 92.2981 127.834 91.8558 127.877C91.0796 127.973 90.3301 127.685 90.1908 126.854C89.9145 125.198 87.9135 124.494 86.1071 126.481C83.7313 129.117 83.8185 133.643 86.2977 136.175C88.1842 138.1 90.5783 138.725 89.8266 141.732C88.5322 146.908 95.9437 145.955 92.6447 149.197C92.1504 149.663 91.9585 149.909 91.7518 150.246C90.2731 148.713 87.9465 147.846 85.8301 148.4C85.1889 148.564 84.5814 148.85 83.983 149.128C81.3738 150.355 80.8211 150.12 78.8587 148.391C73.2099 143.475 67.9717 144.63 65.6718 148.573C63.8359 151.838 63.078 149.544 61.8222 149.544C57.7448 149.544 59.4569 159.062 66.114 159.619C66.7208 159.671 67.3192 159.645 67.9091 159.619C72.8309 159.34 71.7776 161.477 73.3456 162.888C75.0478 164.396 78.2407 162.836 79.1456 163.651C80.163 164.533 78.0326 167.397 81.6339 170.423C87.8417 175.616 92.3311 168.054 96.7608 173.069H54.7903C52.7351 100.714 52.6079 113.103 53.9768 82.4299C59.3908 80.5019 58.1998 81.1199 58.2483 79.5365C60.4096 80.0182 63.1891 79.6919 65.3526 79.2736H79.5893C80.8724 79.2736 82.086 78.5015 82.5979 77.3744L96.6005 48.5551V48.5467C96.824 48.0756 96.9246 47.5708 96.9162 47.068C97.4421 42.8929 94.418 42.3248 90.2365 42.1919H77.6304C76.4597 42.1919 75.3417 42.8768 74.7863 43.9434L66.2118 61.6043C66.1858 61.5958 66.1597 61.5958 66.1337 61.5958C64.8969 61.8461 60.9806 60.9911 58.5647 64.5869L57.3736 66.3665L57.2991 65.2464C57.2906 65.1248 57.2386 65.0123 57.143 64.9342C57.0473 64.8646 56.9264 64.8302 56.8048 64.8477L53.8397 65.29C53.5191 62.5239 53.1633 59.689 52.7126 56.8976C51.3331 48.2837 44.8476 40.8771 36.1697 38.7445V37.3467C38.9393 35.8786 39.1291 32.3673 39.2993 32.1964C39.3077 32.1099 39.4294 31.4251 39.499 30.4365C41.5317 29.0816 41.4283 26.3184 41.1717 24.7413C41.7349 23.0137 41.7799 19.8954 40.3575 19.6943C38.58 19.4426 40.8862 21.9401 36.9326 21.5062C32.9705 21.064 27.283 19.2956 26.6411 26.4309C26.4238 28.9431 25.4662 34.7593 29.121 36.2675V38.1708C24.4467 38.5399 19.9397 40.3652 16.3067 43.4772C14.3562 45.1415 12.7348 47.1187 11.4777 49.2948C11.4692 49.2948 11.4692 49.3032 11.4601 49.3124C7.491 54.8642 7.14999 69.4124 7.50647 69.9474C7.58452 74.9585 8.17373 79.7707 9.19746 83.178C9.7698 90.8251 10.5847 98.7668 11.4432 106.552C11.4495 106.607 11.4671 106.659 11.4917 106.706C7.84608 115.926 8.17865 128.139 10.0124 141.484L8.6188 173.071H0.433823C0.19406 173.071 0 173.265 0 173.504C0 173.744 0.19406 173.938 0.433823 173.938C307.674 173.737 295.652 174.361 295.652 173.504C295.652 173.265 295.458 173.071 295.218 173.071H291.568C298.896 171.39 304.441 165.521 299.091 160.569V160.566ZM273.417 134.759C276.304 126.004 285.929 114.937 293.811 117.535C301.16 119.96 303.182 133.73 299.955 143.514C296.837 152.969 289.794 156.314 282.128 153.93C288.223 141.849 291.734 128.931 291.976 128.024C292.038 127.793 291.9 127.555 291.669 127.493C291.437 127.434 291.201 127.569 291.138 127.801C291.078 128.023 287.465 141.325 281.242 153.638C275.084 151.347 269.951 145.27 273.417 134.759V134.759ZM270.939 148.719C270.939 148.727 270.947 148.727 270.947 148.737C271.953 151.381 271.918 153.783 270.939 155.681V148.719ZM76.8661 46.0042C77.2999 45.1633 78.1753 44.6254 79.0943 44.6254H93.5995C95.3827 44.6254 96.5934 46.5491 95.8193 48.1712L81.8083 76.9997C81.4265 77.8406 80.5427 78.4045 79.5885 78.4045H68.9933C72.08 77.5488 77.7921 75.4641 77.1171 72.3444C78.0101 71.5294 78.5648 70.6449 78.6429 69.8996C80.0041 68.5707 80.5603 66.7567 79.1372 66.3018C79.623 65.4784 79.7003 64.7148 79.3017 64.2121C78.9635 63.7959 78.0621 63.2847 75.7038 64.4898C72.8949 65.9376 69.418 66.3538 66.9557 66.4319L76.8654 46.0049L76.8661 46.0042ZM59.2833 65.0699C61.3103 62.0381 64.6066 62.6751 65.4475 62.4951C63.2756 67.1504 62.0064 67.7108 66.5225 67.3157C69.0629 67.2721 72.9469 66.8994 76.1032 65.2612C77.7422 64.4202 78.4699 64.5588 78.626 64.7584C78.7961 64.9708 78.6429 65.6029 78.0396 66.3383C77.5369 66.6329 74.4108 68.3964 72.0047 67.9822C71.7643 67.9421 71.5442 68.0996 71.5034 68.3359C71.4626 68.5721 71.6208 68.7964 71.8571 68.8372C73.958 69.1993 76.6826 68.1531 78.4762 67.0872C79.7102 67.0379 78.9065 68.4238 78.0403 69.2703C77.8842 69.328 74.4748 71.4451 71.8479 70.988C71.6166 70.9466 71.3874 71.1055 71.3466 71.3417C71.3058 71.578 71.464 71.8016 71.7003 71.843C73.572 72.1644 75.8128 71.3923 77.5038 70.538C77.283 70.9184 76.9258 71.3551 76.4161 71.7966C75.9176 72.0912 72.788 73.8645 70.3798 73.4405C70.1464 73.4018 69.9193 73.5579 69.8785 73.7942C69.8377 74.0304 69.9959 74.254 70.2322 74.2955C72.1636 74.6281 74.5092 73.7921 76.2466 72.8815C75.4128 76.9997 62.3397 79.7348 58.1871 78.6302L57.465 67.7713L59.2826 65.0699H59.2833ZM29.3017 29.6441C30.871 28.664 30.5504 32.6352 31.2873 32.4966C32.4924 32.2709 30.0906 23.8265 36.0903 25.7081C36.0903 25.7081 37.2356 26.0069 38.4084 26.099C38.5941 26.9884 38.6658 27.9173 38.6721 28.7828C37.6006 28.4362 36.6907 28.8749 36.6457 28.8981C36.5396 28.9522 36.4974 29.083 36.5515 29.1892C36.6056 29.2954 36.7343 29.3411 36.8426 29.2841C36.882 29.2644 37.7201 28.8552 38.6749 29.2349C38.6651 29.8445 38.6292 30.4028 38.587 30.8577C38.3487 33.1541 37.6631 35.6846 35.577 36.6703C34.594 36.5241 32.9867 36.1114 32.5655 35.5875C32.2962 35.2346 31.7084 35.4237 31.7084 35.9054C31.7176 36.0762 31.8652 37.6027 35.3007 38.7621V42.45L29.9858 38.2277C29.893 35.7654 30.1651 36.0579 29.7524 35.6269C29.3502 33.86 28.5866 30.0878 29.301 29.6441H29.3017ZM8.40716 66.9775C8.77489 64.0778 10.1432 61.3343 11.806 59.6686C11.9797 59.504 11.9881 59.2263 11.8236 59.0533C11.6591 58.8804 11.3813 58.8712 11.2077 59.0358C11.1296 59.1054 10.1931 60.0068 9.2741 61.6366C9.2741 61.0643 9.29168 60.4919 9.30856 59.9287C9.48223 53.8594 12.2391 48.1023 16.8692 44.1318C20.4494 41.0571 24.9431 39.2831 29.5731 39.0026L35.4666 43.6811C35.7577 43.9075 36.169 43.7043 36.169 43.3429V39.6298C41.2188 40.9305 45.5858 44.1311 48.4686 48.4433C45.5113 46.1484 42.2144 46.6919 42.1652 46.6989C41.9303 46.7411 41.7743 46.9654 41.8157 47.2009C41.8572 47.4379 42.0942 47.5911 42.3178 47.5525C46.2362 46.8817 50.6666 49.6049 51.8534 57.0333C52.3041 59.8254 52.6508 62.6428 52.9805 65.4173C42.0274 67.0534 33.4979 68.3274 28.3138 69.1023C28.6246 60.0019 29.2314 59.2509 28.4094 59.1926C28.1577 59.1665 27.9672 59.3662 27.9587 59.6004L27.4307 69.4187L22.7156 74.1338C22.5461 74.3032 22.5461 74.5774 22.7156 74.7469C22.885 74.9164 23.1592 74.9164 23.3287 74.7469L28.0579 70.0177L50.0324 66.7328L50.7446 78.8629C50.758 79.0936 50.9485 79.2708 51.177 79.2708C51.1855 79.2708 51.1939 79.2708 51.2023 79.2701C51.4414 79.2567 51.6242 79.0507 51.6094 78.8123L50.8923 66.6048C52.7534 66.3292 55.2192 66.0479 56.4659 65.7744C56.7689 71.3705 56.7886 72.1615 56.7844 72.2297C56.802 72.3753 56.8955 73.3927 57.2984 78.979C57.3005 79.024 57.3286 79.0605 57.3448 79.1006L57.42 80.2361C49.7342 83.1351 42.3389 85.3422 36.6373 86.7203C38.5737 85.0047 38.8781 82.8074 38.8816 82.7737C38.9105 82.536 38.741 82.3216 38.5041 82.292C38.2706 82.2674 38.0505 82.432 38.0217 82.6696C38.0013 82.8306 37.5345 86.1226 33.7686 87.377C24.8573 89.3021 15.9664 90.0713 12.0746 86.8862C11.2857 86.2443 10.6093 84.9266 10.063 83.1583C8.45357 78.0424 8.07881 68.2895 8.40716 66.9796V66.9775ZM10.2803 85.9131C15.084 95.074 43.3471 86.1381 53.0937 82.7399C52.8582 88.1237 52.5861 94.3371 52.3801 99.1809H16.9409C16.7011 99.1809 16.5071 99.375 16.5071 99.6147C16.5071 99.8545 16.7011 100.049 16.9409 100.049H52.3421C52.2317 102.649 52.1438 104.792 52.096 106.072H12.256C11.5192 99.3616 10.8167 92.547 10.2796 85.9138L10.2803 85.9131ZM32.1205 142.182L33.9408 127.148C33.9668 126.914 34.201 126.74 34.4175 126.767C34.6601 126.801 34.8254 127.018 34.7993 127.252L32.9874 142.286C32.9698 142.468 32.8313 142.616 32.6576 142.65L36.2407 173.066H28.6147L32.4059 142.624C32.2238 142.572 32.0937 142.382 32.1198 142.182H32.1205ZM97.4934 172.57C94.2689 168.756 90.3146 171.014 88.0949 171.373C84.2186 172.005 79.9373 169.289 80.2917 165.391C80.6636 160.339 75.791 163.878 73.9193 162.235C72.5869 161.05 73.3667 158.449 67.8676 158.75C67.2868 158.776 66.7405 158.793 66.1942 158.75C61.529 158.357 59.4471 152.638 60.9658 150.851V150.842C61.2435 150.513 61.7807 150.278 62.171 150.496C62.3116 150.572 62.5478 150.804 62.7869 150.946C63.6974 151.493 64.8674 151.033 65.5438 150.296C66.1829 149.596 66.4726 148.818 66.9395 148.18C68.776 145.62 73.2605 144.684 78.2885 149.039C79.0753 149.733 79.8339 150.453 80.8549 150.677C82.7554 151.123 84.4112 149.653 86.0572 149.229C87.7032 148.798 89.8006 149.374 91.3285 151.05C91.299 151.137 91.2153 151.314 91.1548 151.57C91.1464 151.579 91.1464 151.588 91.1464 151.596C90.1733 154.321 91.602 158.804 96.5393 161.047C97.4343 161.455 98.4236 161.899 99.1661 162.642C100.318 163.776 100.971 165.487 100.65 167.335C91.2068 160.441 79.7432 155.216 70.6505 152.663C70.2673 152.561 70.093 153.128 70.486 153.252C79.379 155.677 91.1436 161.109 100.526 167.993C100.082 170.081 100.255 171.657 102.583 172.569H97.4934V172.57ZM103.034 146.844V150.045C100.58 144.574 97.5025 139.233 94.2774 133.875C94.1909 133.737 94.0088 133.693 93.8611 133.771C93.7226 133.858 93.6706 134.049 93.757 134.196C97.2079 139.936 100.503 145.658 103.034 151.536V171.809C101.029 171.055 101.01 170.043 101.387 168.157C103.218 159.01 93.132 162.184 91.8579 154.346C91.1597 149.926 94.6999 149.732 94.3899 147.618C94.1438 145.788 90.7477 145.109 90.5058 143.257C90.3012 141.855 92.0689 140.18 89.3267 137.604C88.4401 136.781 87.6174 136.284 86.9164 135.566C84.7487 133.347 84.6707 129.367 86.7519 127.061C88.0337 125.662 89.1952 126.041 89.3443 127.009C89.5995 128.371 90.7969 128.873 91.9543 128.743C93.3605 128.587 96.8044 126.437 100.018 130.138C102.725 133.284 102.139 136.866 103.035 138.592C102.935 143.263 103.347 145.955 102.542 146.479C102.22 146.69 102.513 147.347 103.035 146.844L103.034 146.844ZM165.173 26.7121H253.001C253.851 26.7121 254.614 27.0503 255.169 27.6051C255.723 28.1598 256.07 28.9227 256.07 29.7728C256.07 31.4631 254.691 32.8334 253.001 32.8334H165.173C164.323 32.8334 163.56 32.4952 163.005 31.9405C162.45 31.3857 162.112 30.6228 162.112 29.7728C162.112 28.0825 163.482 26.7121 165.173 26.7121ZM140.801 25.4894C143.168 25.4894 145.085 27.4138 145.085 29.7721C145.085 32.1303 143.169 34.0463 140.801 34.0463C138.434 34.0463 136.527 32.1388 136.527 29.7721C136.527 27.4054 138.434 25.4894 140.801 25.4894ZM129.625 25.4894C131.992 25.4894 133.909 27.4138 133.909 29.7721C133.909 32.1303 131.993 34.0463 129.625 34.0463C127.258 34.0463 125.351 32.1388 125.351 29.7721C125.351 27.4054 127.258 25.4894 129.625 25.4894ZM118.449 25.3509C120.764 25.3509 122.637 27.2324 122.637 29.5471C122.637 31.8617 120.764 33.7264 118.449 33.7264C116.134 33.7264 114.27 31.8533 114.27 29.5471C114.27 27.2409 116.134 25.3509 118.449 25.3509ZM264.454 172.657C93.2606 172.657 107.216 172.909 103.9 172.066V40.3772H264.454V172.657V172.657ZM270.94 173.066V169.996C271.615 169.37 272.275 168.699 272.922 167.988C272.929 167.985 272.938 167.986 272.946 167.983C274.858 167.214 277.001 166.627 279.177 166.177C279.503 169.491 281.373 172.072 284.749 173.066H270.939H270.94ZM288.472 172.626C283.296 172.835 280.397 170.087 280.034 166.008C287.317 164.628 294.682 164.731 294.782 164.733C295.01 164.756 295.218 164.547 295.222 164.307C295.227 164.067 295.036 163.87 294.796 163.866C294.698 163.866 287.344 163.762 279.997 165.136C280.003 160.753 283.004 157.923 287.928 157.724C292.864 157.508 300.184 160.302 300.343 164.683C300.496 168.811 293.974 172.403 288.472 172.626Z" fill="#3F81EB"/>
<path d="M80.6749 62.7855C82.6556 62.7855 84.767 61.2464 85.3886 59.3501C86.0094 57.4537 84.9062 55.9146 82.9256 55.9146C80.9449 55.9146 78.8412 57.4537 78.2196 59.3501C77.5988 61.2464 78.6942 62.7855 80.6749 62.7855Z" fill="#3F81EB"/>
<path d="M56.7835 72.2276C56.7758 72.1665 56.7814 72.2551 56.7835 72.2276V72.2276Z" fill="#3F81EB"/>
<path d="M35.8334 33.5119C36.4788 34.0393 37.703 33.4177 36.9647 32.1599C36.933 32.0734 36.3677 31.2985 36.566 30.0709C36.611 29.7854 36.1821 29.7207 36.1378 30.0013C35.8742 31.6445 36.7552 32.4467 36.7798 32.8299C36.8009 33.1885 36.3804 33.3987 36.1083 33.1766C36.0155 33.1013 35.8791 33.114 35.8031 33.2068C35.7272 33.2996 35.7413 33.436 35.8334 33.5119Z" fill="#3F81EB"/>
<path d="M33.2038 28.8826C33.2136 28.877 34.3231 28.3279 35.4418 29.0415C35.6858 29.1948 35.9164 28.8299 35.6752 28.6759C34.3492 27.8294 33.0604 28.4678 33.0055 28.4966C32.8993 28.5508 32.8572 28.6822 32.9113 28.7884C32.9654 28.8946 33.0948 28.9375 33.2031 28.8826H33.2038Z" fill="#3F81EB"/>
<path d="M34.4042 29.635C34.0527 29.635 33.7644 29.9162 33.7644 30.2748C33.7644 30.6334 34.0527 30.9146 34.4042 30.9146C34.7558 30.9146 35.0441 30.6264 35.0441 30.2748C35.0441 29.9232 34.7628 29.635 34.4042 29.635Z" fill="#3F81EB"/>
<path d="M38.059 31.1702C38.4029 31.0891 38.6159 30.7445 38.5348 30.4005C38.4536 30.0566 38.109 29.8436 37.7651 29.9248C37.4211 30.006 37.2081 30.3506 37.2893 30.6945C37.3705 31.0384 37.7151 31.2514 38.059 31.1702Z" fill="#3F81EB"/>
<path d="M36.6596 34.4436C35.6422 34.8788 34.8653 34.2917 34.8315 34.2664C34.7366 34.1919 34.6002 34.2108 34.5285 34.3044C34.4546 34.3986 34.4708 34.5336 34.565 34.6074C35.0895 35.0272 35.9895 35.1987 36.8291 34.8429C36.9394 34.7958 36.9908 34.6686 36.9444 34.5582C36.8959 34.4464 36.7658 34.4007 36.6596 34.4429V34.4436Z" fill="#3F81EB"/>
<path d="M71.933 28.1092C77.6381 28.1092 82.285 23.4616 82.285 17.7572C82.285 12.0528 77.6381 7.40524 71.933 7.40524C66.2279 7.40524 61.5811 12.0437 61.5811 17.7572C61.5811 23.4707 66.2279 28.1092 71.933 28.1092ZM69.4531 14.3239C69.4531 13.7607 70.0944 13.4309 70.5542 13.7516L75.7735 17.4106C76.1637 17.6883 76.1637 18.2691 75.7735 18.5461L70.5542 22.2051C70.0944 22.5258 69.4531 22.1967 69.4531 21.6328V14.3239Z" fill="#3F81EB"/>
<path d="M287.035 24.1007L290.153 21.8494C290.347 21.7094 290.391 21.4387 290.25 21.244C290.109 21.0499 289.838 21.0063 289.645 21.1469L286.527 23.3983C286.333 23.5389 286.289 23.8096 286.43 24.0037C286.571 24.1985 286.843 24.2407 287.035 24.1007Z" fill="#3F81EB"/>
<path d="M184.916 4.64902C185.192 4.64902 185.391 4.40012 185.344 4.13786L184.652 0.35509C184.61 0.118843 184.378 -0.030218 184.148 0.00634408C183.912 0.0492342 183.757 0.275638 183.799 0.511182L184.49 4.29395C184.528 4.50277 184.711 4.64972 184.916 4.64972V4.64902Z" fill="#3F81EB"/>
<path d="M290.147 105.405C291.158 105.405 291.98 104.584 291.98 103.572C291.98 102.56 291.158 101.741 290.147 101.741C289.135 101.741 288.316 102.56 288.316 103.572C288.316 104.584 289.135 105.405 290.147 105.405Z" fill="#3F81EB"/>
<path d="M63.7999 87.2771C62.7881 87.2771 61.969 88.0956 61.969 89.108C61.969 90.1205 62.7881 90.9411 63.7999 90.9411C64.8117 90.9411 65.6329 90.1198 65.6329 89.108C65.6329 88.0963 64.8117 87.2771 63.7999 87.2771Z" fill="#3F81EB"/>
<path d="M47.7283 25.431C47.921 25.5709 48.1931 25.5281 48.3337 25.334C48.4743 25.1392 48.43 24.8685 48.2367 24.7286L45.1191 22.4772C44.9243 22.3366 44.6543 22.3809 44.5137 22.5743C44.3731 22.769 44.4174 23.0397 44.6107 23.1797L47.7283 25.431Z" fill="#3F81EB"/>
<path d="M290.246 64.5559C290.246 63.5441 289.424 62.725 288.412 62.725C287.401 62.725 286.582 63.5441 286.582 64.5559C286.582 65.5677 287.401 66.389 288.412 66.389C289.424 66.389 290.246 65.5677 290.246 64.5559Z" fill="#3F81EB"/>
<path d="M202.058 14.2733C203.07 14.2733 203.891 13.452 203.891 12.4403C203.891 11.4285 203.07 10.6093 202.058 10.6093C201.046 10.6093 200.227 11.4278 200.227 12.4403C200.227 13.4527 201.046 14.2733 202.058 14.2733Z" fill="#3F81EB"/>
<path d="M294.904 82.0621C295.098 81.9222 295.142 81.6515 295.001 81.4567C294.861 81.2627 294.59 81.2177 294.396 81.3597L291.278 83.6111C291.084 83.751 291.041 84.0217 291.181 84.2165C291.638 84.8458 292.211 83.8276 294.904 82.0628V82.0621Z" fill="#3F81EB"/>
<path d="M280.151 48.6894C280.344 48.8293 280.616 48.7864 280.756 48.5924C280.897 48.3983 280.853 48.1276 280.659 47.987L277.541 45.7356C277.347 45.595 277.076 45.6393 276.936 45.8327C276.795 46.0274 276.839 46.2981 277.033 46.438L280.151 48.6894Z" fill="#3F81EB"/>
<path d="M71.4885 116.409C71.3479 116.603 71.3922 116.873 71.5856 117.014L74.7039 119.265C74.8965 119.405 75.1687 119.362 75.3093 119.168C75.4499 118.974 75.4056 118.703 75.2122 118.563L72.0939 116.312C71.8999 116.171 71.6292 116.215 71.4885 116.409Z" fill="#3F81EB"/>
<path d="M93.9503 35.7605C94.1429 35.9004 94.415 35.8575 94.5556 35.6635C94.6963 35.4687 94.652 35.198 94.4586 35.0581L91.341 32.8067C91.1469 32.6682 90.8762 32.7111 90.7356 32.9037C90.595 33.0978 90.6393 33.3685 90.8326 33.5091L93.9503 35.7605Z" fill="#3F81EB"/>
<path d="M88.199 98.9798C88.199 99.9916 89.0202 100.813 90.032 100.813C91.0438 100.813 91.8629 99.9916 91.8629 98.9798C91.8629 97.968 91.0438 97.1489 90.032 97.1489C89.0202 97.1489 88.199 97.9673 88.199 98.9798Z" fill="#3F81EB"/>
<path d="M119.549 11.6696L122.666 9.41896C122.86 9.27904 122.904 9.00834 122.763 8.81358C122.623 8.61952 122.352 8.57452 122.158 8.71655L119.04 10.9672C118.846 11.1071 118.803 11.3778 118.943 11.5726C119.084 11.7674 119.356 11.8096 119.549 11.6696Z" fill="#3F81EB"/>
</g>
<defs>
<clipPath id="clip0_194_360">
<rect width="302.34" height="173.967" fill="white"/>
</clipPath>
</defs>
</svg>
