<svg width="211" height="220" viewBox="0 0 211 220" fill="none" xmlns="http://www.w3.org/2000/svg">
<g clip-path="url(#clip0_193_342)">
<path d="M73.0634 58.0933C74.1347 56.6336 76.0595 56.0877 77.7304 56.7498C77.9494 56.8383 78.1986 56.7298 78.2866 56.5098C78.3736 56.2898 78.2656 56.0407 78.0466 55.9537C75.9914 55.1402 73.6604 55.8309 72.3727 57.5863C72.233 57.7771 72.2739 58.0452 72.4648 58.1849C72.6546 58.3246 72.9247 58.2831 73.0634 58.0928V58.0933Z" fill="#3F81EB"/>
<path d="M77.0535 60.6146C77.0899 61.4409 77.6557 62.0774 78.2958 62.0492C78.9568 62.02 79.4643 61.3365 79.428 60.5102C79.3917 59.6845 78.8258 59.047 78.1653 59.0761C77.5253 59.1043 77.0177 59.7888 77.0535 60.6146Z" fill="#3F81EB"/>
<path d="M64.8916 56.9447C64.932 57.6369 64.4265 58.2468 63.7323 58.3333C63.1659 58.4018 63.2795 59.2619 63.8361 59.1826C64.9643 59.0454 65.8151 58.0488 65.7465 56.8946C65.7143 56.3241 64.8583 56.3829 64.8921 56.9447H64.8916Z" fill="#3F81EB"/>
<path d="M94.9115 73.3531H106.031C106.248 73.3531 106.431 73.1899 106.456 72.9735L108.391 56.0928C108.419 55.8396 108.222 55.6165 107.965 55.6165H96.8449C96.6275 55.6165 96.4443 55.7797 96.4193 55.9961L94.4858 72.8768C94.4577 73.13 94.6547 73.3531 94.9115 73.3531ZM97.2271 56.4725H107.485L105.649 72.4972H95.3914L97.2271 56.4725Z" fill="#3F81EB"/>
<path d="M99.6813 75.3188C99.1989 75.3188 98.7747 75.7015 98.7195 76.187C98.6647 76.6634 99.0004 77.0553 99.4823 77.0553C99.9643 77.0553 100.39 76.6628 100.445 76.187C100.5 75.7015 100.155 75.3188 99.6813 75.3188Z" fill="#3F81EB"/>
<path d="M99.5073 0C99.271 0 99.0791 0.191349 99.0791 0.428233V36.433C99.0791 36.762 99.4352 36.9667 99.7186 36.805L110.812 30.512H151.133C151.37 30.512 151.561 30.3206 151.561 30.0837V0.428233C151.561 0.19186 151.37 0 151.133 0H99.5073ZM150.705 29.6555H110.699C110.625 29.6555 110.552 29.6749 110.488 29.7113L99.9356 35.6978V0.855954H150.705V29.6555Z" fill="#3F81EB"/>
<path d="M113.364 11.0957C129.076 11.1351 123.034 11.1197 138.751 11.1591C138.987 11.1591 139.178 10.9683 139.179 10.7324C139.18 10.496 138.988 10.3037 138.752 10.3032L113.366 10.2397H113.365C113.129 10.2397 112.938 10.4306 112.937 10.6664C112.936 10.9028 113.127 11.0952 113.364 11.0957H113.364Z" fill="#3F81EB"/>
<path d="M113.364 17.1534C123.797 17.1794 119.603 17.1692 130.542 17.1963C130.778 17.1963 130.969 17.0055 130.97 16.7696C130.971 16.5333 130.779 16.3409 130.543 16.3404C120.111 16.3143 124.304 16.3245 113.365 16.2974C113.13 16.2974 112.938 16.4882 112.937 16.7241C112.936 16.9605 113.128 17.1528 113.364 17.1534Z" fill="#3F81EB"/>
<path d="M146.591 69.8505L142.996 66.3377C142.345 65.7038 141.257 65.9263 140.911 66.7705L138.045 73.787C137.588 74.9039 138.788 75.9742 139.845 75.4001L146.305 71.896C147.065 71.4857 147.21 70.4558 146.591 69.8505ZM145.898 71.1439L139.437 74.6481C139.08 74.8409 138.687 74.4792 138.838 74.1114L141.703 67.0949C141.818 66.8109 142.184 66.7408 142.398 66.9501L145.993 70.4619C146.203 70.6666 146.146 71.0099 145.898 71.1434V71.1439Z" fill="#3F81EB"/>
<path d="M187.331 32.493L184.749 46.7904C184.649 47.3496 185.49 47.5041 185.592 46.9424L188.174 32.6449C188.216 32.4126 188.061 32.1896 187.828 32.1476C187.599 32.1093 187.373 32.2597 187.331 32.493Z" fill="#3F81EB"/>
<path d="M188.633 49.7937C188.473 49.9676 188.484 50.2383 188.659 50.3979C188.834 50.558 189.103 50.5463 189.263 50.3718C196.193 42.8243 202.514 35.6819 209.298 29.0344C209.467 28.8686 209.471 28.5979 209.305 28.4291C209.139 28.2593 208.868 28.2587 208.7 28.4225C201.935 35.0506 195.63 42.1689 188.633 49.7932V49.7937Z" fill="#3F81EB"/>
<path d="M204.396 56.4515C200.626 54.9816 196.133 54.4648 191.979 53.5183C191.421 53.3935 191.24 54.2274 191.788 54.3528C195.876 55.284 200.421 55.8201 204.085 57.2496C204.616 57.4584 204.919 56.6566 204.396 56.452V56.4515Z" fill="#3F81EB"/>
<path d="M196.758 120.76C196.537 120.843 196.425 121.09 196.508 121.311C198.953 127.809 200.342 134.974 200.526 142.032C200.532 142.264 200.722 142.449 200.954 142.449H200.965C201.201 142.442 201.388 142.246 201.382 142.01C201.196 134.857 199.788 127.595 197.309 121.01C197.226 120.788 196.977 120.675 196.758 120.76L196.758 120.76Z" fill="#3F81EB"/>
<path d="M203.819 135.289C203.838 135.512 204.025 135.68 204.244 135.68C204.496 135.68 204.693 135.465 204.671 135.214C204.35 131.559 203.581 127.979 202.387 124.572C202.199 124.037 201.392 124.322 201.58 124.855C202.75 128.195 203.503 131.705 203.819 135.289H203.819Z" fill="#3F81EB"/>
<path d="M8.95794 181.022C10.3173 182.736 11.4992 185.545 10.3567 187.819C9.11757 190.287 5.76691 191.112 3.8744 193.442C2.0438 195.699 1.92817 199.319 3.59864 202.049C5.04808 204.42 7.71008 206.181 10.9006 206.882C12.8151 207.303 14.6493 207.868 16.5316 207.89C17.1813 210.137 17.9513 212.338 18.7628 214.481C15.3518 213.044 12.0144 215.682 12.2477 219.144H9.30073C9.06436 219.144 8.8725 219.335 8.8725 219.572C8.8725 219.809 9.06384 220.001 9.30073 220.001H36.1837C36.4201 220.001 36.6119 219.809 36.6119 219.572C36.6119 219.335 36.4206 219.144 36.1837 219.144H33.1446C30.8172 213.33 26.1389 211.659 22.7371 212.961C23.2129 211.504 23.8499 210.052 24.6414 208.613C25.3326 208.97 29.1151 210.554 30.3793 210.346C34.1684 209.719 34.9906 204.819 35.2848 201.767C35.4761 199.783 35.6455 197.745 36.5014 195.944C38.7705 191.17 45.086 189.463 47.5383 184.781C49.3336 181.353 48.4055 176.727 45.4268 174.256C43.1301 172.352 39.7625 171.793 37.0151 172.957C34.5363 174.007 32.7261 176.307 31.8379 178.848C29.5039 185.53 33.2505 190.35 30.2631 193.423C30.1654 190.819 29.3345 188.246 27.749 186.167C27.7465 186.163 27.7434 186.16 27.7408 186.157L35.756 139.6C37.1798 139.6 56.0144 139.6 61.3466 139.599L52.674 205.346L48.4638 205.49C47.9061 205.51 47.9215 206.346 48.4781 206.346C48.6572 206.346 54.192 206.152 64.8441 205.788C65.0805 205.78 65.2651 205.581 65.258 205.346C65.2498 205.11 65.04 204.921 64.8149 204.932L59.1998 205.124L70.4751 139.6C162.657 139.595 130.822 139.597 137.769 139.596L149.021 204.989L138.137 204.844L138.125 205.699L159.467 205.985L159.478 205.13L155.535 205.077L146.897 139.597H169.652L172.123 153.918C172.627 161.286 172.835 168.468 173.019 174.85C173.08 177.119 174.497 179.093 176.595 179.952L177.474 185.06C177.378 185.165 177.29 185.282 177.215 185.418C176.423 186.86 176.596 188.164 176.903 189.475C175.661 191.123 173.332 192.294 172.742 194.463C172.382 195.783 172.424 196.36 172.356 197.088C172.195 199.261 171.86 202.526 173.539 203.891C175.264 205.291 177.602 204.407 179.297 204.699C179.838 204.79 180.374 204.899 180.91 205.008L181.053 205.837C181.088 206.041 181.267 206.192 181.475 206.192H185.84C189.219 207.091 195.445 208.882 199.293 208.882C202.159 208.882 205.033 207.616 207.646 205.192C210.107 202.924 210.067 200.748 210.528 197.379C210.491 197.039 211.242 194.802 208.377 191.894C206.668 190.164 203.527 191.695 201.525 191.811C200.987 191.843 200.415 191.924 199.829 192.019C200.312 191.666 200.741 191.315 201.155 190.983C201.867 190.412 202.545 189.723 202.679 188.556C202.812 187.392 202.12 186.807 200.94 186.838C199.018 186.899 197.476 188.56 196.419 190.155C196.49 189.48 196.518 188.776 196.473 188.051C196.373 186.452 194.218 185.728 193.222 187.554C192.937 188.075 192.874 188.55 193.002 189.194C193.214 190.246 193.318 191.508 194.031 192.38C192.45 192.039 191.282 191.271 190.083 190.293C190.135 190.254 190.18 190.205 190.21 190.147C191.066 188.5 192.136 187.033 191.468 185.139C191.015 183.85 189.826 183.787 188.836 183.468C189.039 182.882 189.19 182.306 189.292 181.729C190.818 181.579 192.215 181.262 193.478 180.759C195.465 179.958 196.849 178.035 197.003 175.861C197.998 162.246 196.556 145.994 195.78 137.263C194.917 127.7 191.952 120.961 187.904 116.238C187.766 115.63 187.79 116.568 182.24 103.161C179.527 96.6076 176.94 90.3632 174.299 85.8926L185.578 55.2052C185.616 55.0998 185.612 54.9846 185.566 54.8823C183.314 49.8679 183.424 50.0024 183.247 49.8991C183.188 49.8658 183.123 49.8443 183.054 49.8418L119.432 46.8498C119.236 46.8329 119.057 46.9669 119.001 47.1547L106.227 90.221L95.6441 91.8771C97.9674 87.8665 99.7581 83.4102 101.472 79.1202C101.514 79.0383 101.576 78.9544 101.632 78.87H107.625C107.683 78.87 107.738 78.8562 107.789 78.8347C107.793 78.8332 107.797 78.8337 107.801 78.8321L109.165 78.2161C109.299 78.1553 109.393 78.0304 109.413 77.8851L112.865 53.2344C112.896 53.0118 112.75 52.8041 112.531 52.756C112.133 52.6726 110.948 52.4122 110.886 52.4122H94.675C94.4561 52.4122 94.2729 52.5769 94.2494 52.7944L92.3047 70.8743C91.2651 70.3002 90.3462 70.4834 89.7051 71.2201C88.4322 72.6747 90.2362 74.9796 90.7887 76.185C91.6513 78.0678 90.7053 79.5106 89.5066 81.336C88.2608 83.2357 87.9149 84.0538 86.6108 86.0553C82.7945 84.0697 79.4388 82.8725 75.1764 82.0395L74.8745 81.0823C74.4427 79.7127 73.2399 78.7416 71.8104 78.6065C71.7956 77.835 71.8068 77.0639 71.8344 76.2955C75.8579 76.2945 79.955 73.5312 81.4039 68.4369C81.9565 66.4953 82.1376 65.3395 82.1571 65.2535C84.0936 64.2671 84.7868 62.0548 83.2345 59.6461C81.8158 57.441 80.241 56.9585 80.1458 52.3933C81.2479 52.5181 82.3955 52.2787 83.3358 51.6933C83.7697 51.4191 84.1857 51.0385 84.2742 50.534C84.3627 50.0295 83.9554 49.4273 83.451 49.5072C84.3801 49.1091 85.2918 48.5867 85.9027 47.7814C86.5136 46.9761 86.7612 45.8342 86.292 44.9404C85.8229 44.0466 84.5218 43.6127 83.7252 44.241C84.8139 43.5948 85.1327 42.0282 84.5663 40.8954C84.0086 39.7714 82.7608 39.0899 81.5037 38.9569C80.2466 38.8331 78.9814 39.1958 77.8307 39.7003C78.9282 39.1692 79.0346 37.4788 78.2114 36.5758C77.3882 35.682 75.9899 35.5223 74.8213 35.8677C73.6528 36.2217 72.6618 36.983 71.6968 37.7264C71.971 36.7615 71.2277 35.7173 70.2627 35.4251C69.307 35.133 68.2449 35.4783 67.439 36.0713C66.6338 36.673 66.0408 37.4962 65.4565 38.3194C65.2708 37.0802 63.7569 36.496 62.509 36.6377C60.0573 36.9119 58.0834 39.2843 58.0655 41.7181C57.5657 40.7184 56.1034 40.3813 54.6755 41.7447C52.9318 43.4265 52.7461 46.418 54.1004 48.3831C53.6844 48.1529 53.1534 48.0997 52.6929 48.2506C51.8963 48.4982 51.3299 49.1976 50.9227 49.9323C49.3029 52.9064 50.1527 56.9953 52.8167 59.0843C50.7011 58.7569 48.6214 60.5445 48.2228 62.6514C47.2722 67.6991 53.0449 71.2058 57.8266 71.3982C58.0911 73.1137 58.4723 75.3684 58.813 77.417C56.7302 77.3668 55.1554 79.0122 55.1554 80.9626V81.2747C51.6855 81.8502 48.6311 83.776 46.5815 86.7266H14.417C11.622 86.7266 9.64659 89.4663 10.5455 92.1242L26.3318 138.761C25.813 138.86 25.901 139.602 26.4096 139.602H26.6301L24.4071 156.421C22.5862 154.152 20.0638 152.428 17.1895 151.738C11.3846 150.342 4.75952 153.284 1.77826 158.58C-1.12932 163.747 -0.412015 170.849 3.48505 175.469C5.1678 177.466 7.38161 179.037 8.95743 181.024L8.95794 181.022ZM149.89 205.001L138.638 139.6H146.033L154.668 205.065L149.89 205.001ZM32.2319 219.144H13.0934C12.9665 217.653 13.7432 216.124 15.0289 215.409C16.5137 214.585 18.576 214.916 19.7246 216.166C19.9247 216.382 20.291 216.34 20.4251 216.063C22.3068 212.18 29.1923 212.014 32.2324 219.144H32.2319ZM21.676 213.491C20.9776 213.93 20.378 214.498 19.9446 215.174C19.0288 212.803 18.1458 210.359 17.4141 207.859C18.8666 207.731 20.5934 207.049 21.9067 206.425C22.4854 207.122 23.0748 207.66 23.9 208.184C22.9346 209.937 22.1881 211.71 21.676 213.491V213.491ZM51.0859 87.5815H56.545C58.4451 87.5815 60.132 88.791 60.7413 90.5919L74.741 131.952C74.6689 132.218 74.6612 131.859 76.9569 138.744H68.4608C62.5648 121.382 54.2626 96.9366 51.0859 87.582V87.5815ZM162.156 132.925C164.904 132.921 166.765 132.915 169.7 133.23C170.029 135.045 170.321 136.885 170.584 138.74H77.9428L75.9674 132.904C171.859 132.738 151.827 132.947 162.156 132.925ZM58.3254 205.154L53.5417 205.317L62.2102 139.6H69.6053L58.3254 205.154ZM170.52 139.596H170.7C170.874 140.878 171.038 142.166 171.185 143.457L170.52 139.596ZM178.803 184.189C178.703 184.245 178.331 184.448 178.245 184.495L177.518 180.267C177.917 180.38 178.314 180.49 178.703 180.59C178.559 181.975 178.705 183.332 178.803 184.189ZM181.834 205.336L181.811 205.199C182.011 205.243 182.209 205.29 182.408 205.336H181.834ZM199.769 192.896C198.393 194.247 197.548 195.633 197.027 197.375C196.96 197.602 197.089 197.84 197.316 197.908C197.544 197.974 197.78 197.846 197.848 197.619C198.811 194.39 200.899 193.142 201.218 192.704C204.001 192.448 206.522 191.234 207.766 192.495C209.303 194.054 209.947 195.648 209.684 197.231H209.685C209.033 200.37 205.631 202.495 202.697 203.676C195.913 206.423 186.272 201.541 180.782 200.501C179.972 200.349 178.842 200.36 178.929 200.361C177.396 200.361 175.916 200.516 174.669 199.625C173.01 198.441 173.028 196.665 173.567 194.687C174.064 192.858 176.245 191.721 177.536 190.061C182.256 191.393 185.246 191.075 189.035 190.535C190.694 191.94 192.202 193.031 194.593 193.338C192.966 194.809 192.081 196.308 191.631 198.309C191.569 198.578 191.778 198.831 192.048 198.831C193.02 198.831 191.841 196.611 195.827 193.412C196.961 193.39 196.831 193.383 199.768 192.895L199.769 192.896ZM200.965 187.694C201.701 187.668 201.891 187.896 201.826 188.458C201.745 189.171 201.417 189.674 200.618 190.315C199.599 191.131 198.392 192.155 197.101 192.452C196.921 192.475 196.255 192.546 196.088 192.527C196.979 190.578 198.817 187.76 200.965 187.694ZM193.971 187.963C194.54 186.923 195.567 187.328 195.617 188.105C195.709 189.595 195.469 191.017 195.188 192.252C194.382 191.807 194.18 190.919 193.952 189.634C193.812 188.844 193.668 188.52 193.971 187.963ZM187.671 184.105C187.313 184.558 186.884 185.148 186.311 185.207C181.959 185.647 180.226 184.662 179.667 184.203C179.537 183.067 179.433 181.973 179.542 180.797C182.544 181.519 185.445 181.949 188.41 181.791C188.26 182.551 188.024 183.299 187.671 184.105H187.671ZM196.286 173.529C190.545 174.151 184.785 173.804 179.164 172.489C178.607 172.364 178.42 173.193 178.968 173.323C184.49 174.614 190.245 175.025 196.233 174.392C196.205 174.862 196.18 175.335 196.147 175.799C196.016 177.651 194.843 179.285 193.158 179.964C189.308 181.499 184.154 181.298 177.408 179.349C175.351 178.745 173.93 176.928 173.874 174.826C173.48 161.107 172.986 146.36 170.486 132.762C170.452 132.577 170.3 132.435 170.113 132.414C165.924 131.945 169.564 132.144 119.696 131.857C122.312 121.028 122.283 114.57 124.062 105.207C124.106 104.975 123.953 104.751 123.721 104.707C123.491 104.662 123.265 104.815 123.221 105.048C121.382 114.737 121.477 121.031 118.774 132.049H75.6788C71.2011 118.819 72.8613 123.725 65.2252 101.165C71.663 105.635 77.3452 111.024 82.111 117.196C83.0458 118.411 88.845 115.751 90.1911 115.014C93.0721 117.672 99.7519 123.373 104.452 123.778C107.281 124.019 110.275 123.46 112.483 121.694C113.932 120.533 118.637 114.929 121.462 104.635C135.828 104.665 147.967 105.548 162.312 106.604C164.047 106.967 178.065 106.185 187.059 116.414C187.113 116.528 187.141 116.625 187.306 116.707C191.587 121.725 194.14 128.608 194.928 137.339C195.658 145.565 196.98 160.483 196.288 173.53L196.286 173.529ZM113.992 91.3343L114.031 91.3834C114.252 91.6592 114.703 91.5747 114.786 91.2202C115.255 89.2427 114.944 85.3288 117.027 85.4485C117.273 85.4633 117.543 85.5851 117.753 85.7632C116.77 87.1957 116.481 89.5973 116.157 90.7628C116.005 91.3118 116.831 91.5374 116.983 90.9899C117.357 89.63 117.737 86.437 119.038 85.6557C119.915 85.1298 121.181 85.8056 121.049 87.2525C120 88.2921 119.242 90.7817 118.825 92.0946C118.739 92.3683 118.945 92.6497 119.234 92.6497C119.416 92.6497 119.585 92.5325 119.642 92.3488C120.987 88.0752 121.74 87.5871 122.114 87.5871C122.561 87.5927 123.027 88.134 123.117 88.5853C123.244 89.1839 122.949 90.0716 122.688 90.5305C122.381 91.0094 121.857 92.1314 121.822 92.2174C121.606 92.7382 122.394 93.0723 122.612 92.5448C122.663 92.421 123.389 91.034 123.436 90.948C124.23 89.7088 124.784 89.9892 124.88 90.7914C125.018 91.9953 124.309 92.9715 123.217 95.2938C122.847 96.0807 122.497 96.8225 122.088 97.5741C122.064 97.6191 122.048 97.6677 122.04 97.7189C120.405 109.221 115.009 118.572 111.947 121.024C110.107 122.496 107.472 123.17 104.524 122.923C99.533 122.493 91.3843 115.231 87.8996 111.561C90.6705 106.803 93.1734 104.103 95.9623 102.864C97.4123 103.912 101.845 109.409 102.969 110.803C104.482 112.674 107.204 112.452 108.513 110.692C110.087 108.581 113.787 99.3535 114.241 96.1763C114.258 96.0561 114.223 95.9348 114.146 95.8417C113.208 94.7105 112.292 93.4279 111.438 92.3115C111.184 91.9846 110.955 91.6643 110.943 91.3292C110.885 90.2798 112.554 89.5426 113.993 91.3327L113.992 91.3343ZM157.694 103.013C158.075 103.8 158.456 104.623 158.835 105.491C154.434 105.169 150.146 104.867 145.896 104.609L157.694 103.013ZM101.254 99.1202L111.605 101.946C110.904 103.814 108.934 108.697 107.826 110.183C106.86 111.48 104.811 111.723 103.634 110.266C101.842 108.044 100.418 106.335 99.2823 105.044C100.524 102.346 101.073 100.013 101.253 99.1197L101.254 99.1202ZM186.077 114.311C176.957 105.594 164.535 106.094 162.374 105.75C161.506 105.686 160.66 105.625 159.803 105.562C159.399 104.623 158.993 103.741 158.586 102.892C166.967 101.718 163.298 102.365 168.321 101.48C168.48 101.46 168.615 101.353 168.67 101.204L173.913 86.9358C177.883 93.9047 181.872 105.105 186.077 114.311H186.077ZM106.625 91.0247C106.788 90.9986 106.923 90.882 106.969 90.7239L119.725 47.7195L182.454 50.6696L167.942 95.9973L165.322 96.3861L132.675 92.1718C132.436 92.1375 132.227 92.3074 132.195 92.5412C132.165 92.776 132.331 92.9909 132.565 93.0211L162.211 96.8481L132.804 101.215L122.586 99.6109C122.691 99.0517 122.794 98.4884 122.876 97.9174C123.283 97.1648 123.642 96.3999 123.991 95.6596C124.813 93.9124 126.462 91.3916 125.423 89.8531L162.4 93.895L176.101 55.5167L122.959 52.7463L112.436 88.4252L114.274 88.6273C114.215 89.1952 114.187 89.5855 114.099 90.2031C111.976 88.5321 110.003 89.8153 110.087 91.3706C110.111 92.0009 110.502 92.5049 110.76 92.8359C111.666 94.0239 112.477 95.1566 113.364 96.2408C113.282 96.7243 113.125 97.3577 112.91 98.0867L99.3426 95.9548C98.3153 94.8021 97.2086 93.7205 96.0611 92.6783L106.625 91.0253V91.0247ZM131.634 71.6873C132.935 65.6598 138.839 60.7829 144.822 60.7829C150.806 60.7829 154.603 65.6598 153.293 71.6873C151.992 77.706 146.088 82.5829 140.096 82.5829C134.104 82.5829 130.333 77.706 131.634 71.6873ZM95.0577 53.2681H110.398L107.246 78.0135H92.3963L95.0577 53.2681ZM90.3477 71.7824C90.8767 71.1751 91.5633 71.3327 92.2008 71.8244L91.7271 76.229C91.264 74.9361 89.4841 72.7709 90.3477 71.7829V71.7824ZM90.2198 81.8057C90.8665 80.8198 91.4917 79.8626 91.792 78.8424C91.9716 78.8997 91.2937 78.8547 100.651 78.8695C98.9277 83.1759 97.1411 87.6122 94.8321 91.5696C93.1008 90.111 91.2523 88.7726 89.2922 87.5718V87.5728C89.0518 87.3993 87.8162 86.702 87.369 86.4559C88.7402 84.3424 88.9643 83.7151 90.2203 81.8052L90.2198 81.8057ZM69.4283 52.3917C70.0565 51.9845 70.1896 51.0287 69.7204 50.4711C71.9455 52.8936 75.9618 53.8586 79.2791 52.1364C79.2791 52.1574 79.2802 52.1784 79.2807 52.1993L79.2617 52.2147C79.2679 52.2167 79.275 52.2178 79.2812 52.2193C79.3416 57.2153 81.1374 57.972 82.5121 60.1076C82.9317 60.7589 83.5548 62.0318 83.0171 63.2408C82.5505 64.2891 81.1594 65.0049 80.0292 64.7695C79.801 64.7158 79.5718 64.8698 79.5232 65.1016C79.4746 65.3323 79.6235 65.5595 79.8552 65.6076C80.3438 65.7094 80.7644 65.6823 81.2218 65.584C81.0591 66.3781 80.7429 67.6198 80.5782 68.202C80.397 68.838 80.1576 69.4294 79.8895 69.9963C79.8158 69.9544 79.7319 69.9262 79.6363 69.9308C78.701 70.0193 77.7258 69.894 76.8172 69.5686C76.5957 69.4908 76.3506 69.6044 76.2703 69.828C76.191 70.0506 76.3061 70.2951 76.5297 70.3749C77.4398 70.6998 78.4053 70.8579 79.4731 70.795C78.3321 72.7571 76.6437 74.2116 74.5302 74.9775C71.1478 76.2003 67.0021 74.9397 64.8763 72.0474C64.7351 71.8561 64.4665 71.8167 64.2777 71.9553C64.0869 72.0955 64.0459 72.3631 64.1856 72.554C65.7568 74.6915 68.3303 76.0085 70.9759 76.2453C70.9483 77.0036 70.9386 77.7639 70.9514 78.5257L59.6879 77.4722C59.3492 75.4334 58.966 73.1756 58.6923 71.4094C64.0577 71.3711 66.6767 68.4093 66.27 62.9604C66.7852 62.9307 67.2927 62.8253 67.7798 62.6447C68.0013 62.5619 68.1134 62.3153 68.0315 62.0937C67.9486 61.8732 67.703 61.7576 67.4805 61.842C64.267 63.0423 60.7424 60.3506 61.3261 56.7886C61.827 53.6964 65.3445 53.0067 67.831 56.4996C67.9681 56.692 68.2362 56.736 68.428 56.5999C68.6204 56.4627 68.6654 56.1962 68.5283 56.0028C68.1615 55.4876 67.9169 55.2302 67.6151 54.9258C68.1118 54.0438 68.1456 52.9018 67.6575 52.0111C68.0469 52.5508 68.8788 52.7371 69.4277 52.3917H69.4283ZM56.0998 82.0242L59.5712 82.193C59.5984 82.3839 59.6229 82.5645 59.6439 82.7261C59.6731 82.9482 59.87 83.1267 60.1304 83.0955L64.6282 82.4386C75.2342 82.9298 74.8464 83.0009 75.0674 82.8893C79.7432 83.8093 83.8342 85.292 88.7668 88.2399C88.9822 88.463 94.9135 91.6776 100.263 98.3451C98.4851 98.6971 92.9504 100.094 88.71 104.456C84.7193 108.553 83.1552 113.936 82.6579 116.118L82.4891 116.287C77.6614 110.116 71.925 104.725 65.4319 100.26C65.2759 100.151 65.0717 100.169 64.927 100.283L61.5538 90.3177C60.8263 88.1693 58.8145 86.7255 56.5465 86.7255H47.6575C49.7275 84.0333 52.7323 82.3608 56.1009 82.0242H56.0998ZM27.4952 139.6H34.8878L27.0225 185.286C26.3625 184.513 25.792 183.851 25.3715 183.14C22.1538 177.692 27.1407 170.977 27.3776 165.017C27.485 162.319 26.6378 159.66 25.1402 157.416L27.4947 139.601L27.4952 139.6ZM2.52575 158.998C4.85826 154.855 9.56217 152.245 14.2159 152.245C21.3925 152.245 26.7733 158.677 26.5221 164.984C26.2893 170.855 21.1848 177.735 24.6347 183.575C25.9235 185.758 29.4798 188.029 29.4302 194.04C27.5664 194.986 25.1627 193.947 23.1331 194.587C19.719 195.663 18.3678 201.298 21.3849 205.721C20.6399 206.068 19.8387 206.385 18.9628 206.676C18.3617 206.876 17.7666 206.975 17.1726 207.014C13.7882 194.796 16.6723 189.412 17.607 180.156C18.2824 173.606 17.1747 168.431 14.3142 164.775C14.1678 164.589 13.8998 164.558 13.713 164.703C13.5273 164.848 13.4951 165.117 13.6404 165.304C16.3591 168.778 17.407 173.746 16.7562 180.069C15.8245 189.281 12.9364 194.739 16.2891 207.023C14.5787 206.956 12.875 206.439 11.0868 206.046C8.12143 205.395 5.65998 203.776 4.33129 201.603C2.84347 199.172 2.93198 195.967 4.54208 193.983C6.32919 191.777 9.74278 190.952 11.1247 188.204C12.4462 185.572 11.2198 182.494 9.63073 180.491C7.97919 178.409 5.80426 176.886 4.14198 174.916C0.466961 170.559 -0.211969 163.864 2.52678 158.998H2.52575Z" fill="#3F81EB"/>
</g>
<defs>
<clipPath id="clip0_193_342">
<rect width="210.589" height="220" fill="white"/>
</clipPath>
</defs>
</svg>
