<svg width="248" height="240" viewBox="0 0 248 240" fill="none" xmlns="http://www.w3.org/2000/svg">
<g clip-path="url(#clip0_191_128)">
<path d="M150.412 2.64913C150.365 2.64913 150.316 2.63733 150.27 2.61372C150.125 2.53635 150.069 2.35405 150.147 2.20848L151.243 0.158642C151.321 0.0130687 151.503 -0.0420133 151.648 0.0353638C151.794 0.112741 151.849 0.295036 151.772 0.44061L150.675 2.49045C150.622 2.59143 150.518 2.64913 150.41 2.64913H150.412Z" fill="#3F81EB"/>
<path d="M147.86 7.42291C147.812 7.42291 147.764 7.4111 147.718 7.3875C147.572 7.31012 147.517 7.12783 147.595 6.98225L148.69 4.93242C148.767 4.78684 148.949 4.73176 149.095 4.80914C149.241 4.88651 149.296 5.06881 149.218 5.21438L148.123 7.26422C148.069 7.3652 147.966 7.42291 147.858 7.42291H147.86Z" fill="#3F81EB"/>
<path d="M148.321 3.28258C148.274 3.28258 148.225 3.27077 148.18 3.24717L146.13 2.15208C145.984 2.07471 145.929 1.89241 146.006 1.74684C146.084 1.60126 146.265 1.54618 146.412 1.62356L148.462 2.71864C148.607 2.79602 148.662 2.97831 148.585 3.12389C148.531 3.22487 148.427 3.28258 148.32 3.28258H148.321Z" fill="#3F81EB"/>
<path d="M153.096 5.83472C153.049 5.83472 153.001 5.82291 152.955 5.79931L150.905 4.70291C150.759 4.62554 150.704 4.44324 150.782 4.29767C150.859 4.15209 151.041 4.09701 151.187 4.17439L153.237 5.27078C153.382 5.34816 153.437 5.53045 153.36 5.67603C153.306 5.77701 153.203 5.83472 153.095 5.83472H153.096Z" fill="#3F81EB"/>
<path d="M12.5259 180.479C12.1154 180.479 11.7036 180.403 11.3075 180.249C10.4472 179.915 9.7705 179.258 9.39935 178.4C8.64263 176.648 9.42689 174.594 11.1462 173.822C11.9738 173.45 12.8957 173.427 13.7403 173.755C14.6007 174.089 15.2774 174.746 15.6485 175.604C16.4053 177.356 15.621 179.41 13.9016 180.182C13.461 180.38 12.9941 180.48 12.5259 180.48V180.479ZM11.3928 174.367C9.96984 175.006 9.32328 176.708 9.95017 178.163C10.2571 178.872 10.8157 179.415 11.5253 179.69C12.2203 179.961 12.9771 179.941 13.6564 179.635C15.0793 178.997 15.7259 177.294 15.099 175.84C14.7921 175.13 14.2334 174.588 13.5239 174.312C12.8289 174.042 12.0721 174.062 11.3928 174.367Z" fill="#3F81EB"/>
<path d="M97.6851 234.708C93.5959 234.708 89.7519 234.56 86.3172 234.344C72.4392 233.469 62.0877 231.325 61.9854 231.304C61.8241 231.269 61.7192 231.111 61.7533 230.949C61.7874 230.788 61.9447 230.685 62.1074 230.717C62.5179 230.804 103.465 239.188 132.991 229.188C133.147 229.136 133.318 229.22 133.372 229.376C133.424 229.532 133.34 229.702 133.184 229.756C121.827 233.603 108.851 234.709 97.6851 234.709V234.708Z" fill="#3F81EB"/>
<path d="M96.615 240C86.1757 240 78.4904 239.176 78.3212 239.158C78.1573 239.14 78.0379 238.991 78.0563 238.828C78.0747 238.664 78.2229 238.546 78.3868 238.563C78.7553 238.603 115.529 242.542 137.778 233.01C137.929 232.946 138.106 233.015 138.172 233.167C138.237 233.319 138.166 233.495 138.014 233.561C125.776 238.804 109.195 240 96.6137 240H96.615Z" fill="#3F81EB"/>
<path d="M59.1289 23.4325C59.201 22.0038 57.9113 20.7776 56.2483 20.6936C54.5852 20.6097 53.1785 21.6998 53.1064 23.1285C53.0343 24.5572 54.324 25.7834 55.9871 25.8674C57.6501 25.9513 59.0568 24.8612 59.1289 23.4325Z" fill="#3F81EB"/>
<path d="M62.093 8.63741C60.3973 7.44135 60.3422 6.25578 59.0307 5.97512C57.7193 5.69446 57.9147 8.06823 57.9147 8.06823L57.1737 22.7554C57.1475 23.2879 57.6012 23.7443 58.1337 23.7718C58.6661 23.7981 59.078 23.9633 59.1042 23.4309L59.8543 9.47282C63.4609 10.2886 65.1383 14.9168 65.1383 14.9168C65.5881 12.3961 63.6025 9.70233 62.093 8.6361V8.63741Z" fill="#3F81EB"/>
<path d="M30.535 45.8518C30.9048 43.941 32.7881 29.5502 32.3002 29.4335C32.1009 29.3862 31.954 29.2879 31.8071 29.318L22.2386 29.1594C20.9573 28.8958 20.8615 31.3495 20.8615 31.3495L18.4196 45.5213C18.0838 45.3482 17.714 45.2144 17.3127 45.1449C15.4753 44.8289 13.7665 45.8492 13.4937 47.4282C13.2209 49.0072 14.4904 50.543 16.3278 50.859C18.1652 51.1751 19.8753 50.1521 20.1468 48.5731C20.1638 48.4721 20.1756 48.3712 20.1796 48.2715C20.5324 46.4262 22.4209 36.4066 22.6832 31.6525L30.8104 31.4767L28.8091 43.0859C28.4734 42.9128 28.1022 42.783 27.7022 42.7148C25.8648 42.3974 24.1547 43.4217 23.8832 44.9994C23.6117 46.5784 24.8799 48.1154 26.7173 48.4315C28.5547 48.7489 30.5311 45.9489 30.5376 45.8544L30.535 45.8518Z" fill="#3F81EB"/>
<path d="M194.918 89.9371C215.032 89.9371 231.338 73.6314 231.338 53.5174C231.338 33.4034 215.032 17.0977 194.918 17.0977C174.804 17.0977 158.498 33.4034 158.498 53.5174C158.498 73.6314 174.804 89.9371 194.918 89.9371Z" fill="white"/>
<path d="M194.918 90.2361C174.671 90.2361 158.199 73.7639 158.199 53.5174C158.199 33.2708 174.671 16.7987 194.918 16.7987C215.164 16.7987 231.637 33.2708 231.637 53.5174C231.637 73.7639 215.164 90.2361 194.918 90.2361ZM194.918 17.398C175.002 17.398 158.799 33.6013 158.799 53.5174C158.799 73.4334 175.002 89.6367 194.918 89.6367C214.834 89.6367 231.037 73.4334 231.037 53.5174C231.037 33.6013 214.834 17.398 194.918 17.398Z" fill="#3F81EB"/>
<path d="M212.53 53.5174L183.669 36.8538V70.1797L212.53 53.5174Z" fill="white"/>
<path d="M203.121 59.2485C203.018 59.2485 202.917 59.1948 202.862 59.099C202.779 58.9561 202.828 58.7725 202.972 58.6898L211.932 53.5174L183.97 37.3731V56.0066C183.97 56.1718 183.836 56.3056 183.671 56.3056C183.506 56.3056 183.372 56.1718 183.372 56.0066V36.8551C183.372 36.7475 183.43 36.6492 183.521 36.5954C183.613 36.5416 183.729 36.5416 183.82 36.5954L212.681 53.2577C212.774 53.3115 212.83 53.4098 212.83 53.5174C212.83 53.6249 212.772 53.7233 212.681 53.7771L203.272 59.2092C203.225 59.2367 203.174 59.2498 203.123 59.2498L203.121 59.2485Z" fill="#3F81EB"/>
<path d="M169.836 197.812C165.694 194.429 161.346 191.273 156.892 188.264C147.853 182.156 138.328 176.696 128.7 171.406C123.635 168.623 118.378 166.105 113.187 163.515C107.966 160.909 102.729 158.328 97.4911 155.747C92.7056 153.389 87.9187 151.031 83.1423 148.66C72.2833 111.95 60.4905 70.3318 62.8328 70.3318L240.877 65.3062C245.069 65.3062 247.881 68.716 247.145 72.9075L225.569 195.93C224.834 200.122 220.826 203.53 216.635 203.53H177.014C174.678 201.562 172.199 199.744 169.835 197.812H169.836Z" fill="#3F81EB"/>
<path d="M57.7521 65.7363H237.187C241.147 65.7363 243.795 68.9468 243.1 72.9075L221.524 195.93C220.829 199.891 217.056 203.102 213.095 203.102H33.6616C29.7009 203.102 27.053 199.891 27.7481 195.93L49.3245 72.9075C50.0196 68.9468 53.7927 65.7363 57.7534 65.7363H57.7521Z" fill="white"/>
<path d="M5.34292 203.172H214.02C216.8 203.172 219.062 205.47 219.062 208.424C219.062 211.377 216.8 213.675 214.02 213.675H5.34292C2.55734 213.675 0.300293 211.381 0.300293 208.424C0.300293 205.466 2.55865 203.172 5.34292 203.172Z" fill="white"/>
<path d="M214.02 213.975H5.34295C2.34754 213.975 0 211.537 0 208.425C0 205.313 2.34754 202.873 5.34295 202.873H214.02C217.015 202.873 219.363 205.311 219.363 208.425C219.363 211.538 217.016 213.975 214.02 213.975ZM5.34295 203.473C2.68328 203.473 0.599344 205.649 0.599344 208.425C0.599344 211.201 2.68328 213.377 5.34295 213.377H214.02C216.679 213.377 218.763 211.203 218.763 208.425C218.763 205.647 216.679 203.473 214.02 203.473H5.34295Z" fill="#3F81EB"/>
<path d="M62.1756 70.48H231.757C235.5 70.48 238.002 73.4689 237.345 77.1554L216.955 191.683C216.298 195.369 212.732 198.358 208.989 198.358H39.4071C35.6641 198.358 33.1618 195.369 33.8189 191.683L54.2097 77.1554C54.8667 73.4689 58.4326 70.48 62.1756 70.48Z" fill="white"/>
<path d="M208.987 198.657H39.4072C37.5068 198.657 35.8478 197.925 34.7344 196.595C33.6196 195.266 33.1895 193.502 33.5239 191.629L53.9147 77.1016C54.5941 73.2839 58.3003 70.1783 62.1757 70.1783H231.757C233.658 70.1783 235.317 70.9101 236.43 72.24C237.544 73.5698 237.974 75.3338 237.641 77.2065L217.25 191.734C216.57 195.551 212.864 198.657 208.989 198.657H208.987ZM62.1757 70.779C58.577 70.779 55.1357 73.6629 54.5049 77.2079L34.1141 191.735C33.8124 193.429 34.1954 195.02 35.1947 196.212C36.1927 197.403 37.6891 198.059 39.4085 198.059H208.99C212.589 198.059 216.03 195.175 216.661 191.63L237.052 77.1029C237.353 75.4085 236.97 73.8177 235.971 72.6269C234.973 71.4361 233.477 70.7803 231.757 70.7803H62.1757V70.779Z" fill="#3F81EB"/>
<path d="M236.46 82.1299L237.346 77.1659C238.001 73.4794 235.5 70.4997 231.757 70.4997H62.1757C58.4328 70.4997 54.8669 73.4794 54.2098 77.1659L53.3246 82.1299H236.46Z" fill="white"/>
<path d="M236.459 82.4302H53.3245C53.2353 82.4302 53.1514 82.3908 53.095 82.3226C53.0386 82.2544 53.0137 82.1653 53.0294 82.0774L53.9147 77.1135C54.594 73.301 58.2989 70.2007 62.1756 70.2007H231.757C233.66 70.2007 235.321 70.9325 236.433 72.261C237.545 73.5882 237.974 75.3495 237.641 77.2197L236.755 82.1836C236.73 82.3266 236.606 82.4302 236.46 82.4302H236.459ZM53.6812 81.8308H236.208L237.05 77.1135C237.352 75.4216 236.969 73.8348 235.974 72.6453C234.977 71.4544 233.479 70.7987 231.757 70.7987H62.1756C58.5756 70.7987 55.1356 73.6787 54.5048 77.2184L53.6825 81.8295L53.6812 81.8308Z" fill="#3F81EB"/>
<path d="M211.538 79.503C209.685 79.503 208.178 77.9961 208.178 76.143C208.178 74.2899 209.685 72.783 211.538 72.783C213.391 72.783 214.898 74.2899 214.898 76.143C214.898 77.9961 213.391 79.503 211.538 79.503ZM211.538 73.3836C210.017 73.3836 208.778 74.6217 208.778 76.1443C208.778 77.6669 210.016 78.9049 211.538 78.9049C213.061 78.9049 214.299 77.6669 214.299 76.1443C214.299 74.6217 213.061 73.3836 211.538 73.3836Z" fill="#3F81EB"/>
<path d="M219.999 79.6839C218.146 79.6839 216.639 78.177 216.639 76.3239C216.639 74.4708 218.146 72.9639 219.999 72.9639C221.852 72.9639 223.359 74.4708 223.359 76.3239C223.359 78.177 221.852 79.6839 219.999 79.6839ZM219.999 73.5646C218.477 73.5646 217.238 74.8026 217.238 76.3252C217.238 77.8479 218.476 79.0859 219.999 79.0859C221.521 79.0859 222.759 77.8479 222.759 76.3252C222.759 74.8026 221.521 73.5646 219.999 73.5646Z" fill="#3F81EB"/>
<path d="M228.278 79.6839C226.425 79.6839 224.918 78.177 224.918 76.3239C224.918 74.4708 226.425 72.9639 228.278 72.9639C230.131 72.9639 231.638 74.4708 231.638 76.3239C231.638 78.177 230.131 79.6839 228.278 79.6839ZM228.278 73.5646C226.757 73.5646 225.517 74.8026 225.517 76.3252C225.517 77.8479 226.755 79.0859 228.278 79.0859C229.801 79.0859 231.039 77.8479 231.039 76.3252C231.039 74.8026 229.801 73.5646 228.278 73.5646Z" fill="#3F81EB"/>
<path d="M200.809 186.046H49.4518C49.3626 186.046 49.2774 186.005 49.2197 185.936C49.1619 185.866 49.1397 185.776 49.1567 185.688L68.5351 88.2216C68.5626 88.0813 68.6859 87.9803 68.8288 87.9803H219.958C220.047 87.9803 220.132 88.021 220.189 88.0892C220.245 88.1587 220.269 88.2492 220.252 88.337L201.1 185.803C201.073 185.944 200.949 186.045 200.807 186.045L200.809 186.046ZM49.8177 185.447H200.564L219.597 88.5797H69.0767L49.8164 185.447H49.8177Z" fill="#3F81EB"/>
<path d="M100.904 185.428C103.106 181.536 104.98 178.22 106.06 176.58C106.365 176.118 107.075 176.281 107.149 176.829C107.447 179.054 108.038 182.012 108.825 185.428H135.196C134.645 177.254 134.321 170.014 134.19 165.457C133.942 156.863 130.371 149.473 127.81 145.238C126.518 143.103 125.301 138.994 124.734 136.919C124.546 136.226 123.826 135.823 123.136 136.024L119.487 137.087C108.233 140.021 96.4983 140.622 85.0045 138.852C84.219 138.732 83.5134 139.347 83.5252 140.143L83.6445 148.104C83.68 150.424 83.0662 152.708 81.8741 154.699L78.5901 160.181C73.7901 168.194 69.7901 176.652 66.6373 185.428H100.905H100.904Z" fill="#3F81EB"/>
<path d="M56.5179 93.2249C56.4445 93.0373 56.3868 92.8458 56.3422 92.6517L49.4543 100.19C47.7232 102.085 44.5874 101.372 43.8451 98.9153L41.8071 92.1704C40.6753 88.4262 40.0812 84.5403 40.0405 80.6281L39.9933 76.0078C39.9776 74.476 38.3304 69.7967 39.4005 68.7003C41.2064 66.8485 38.3277 68.5639 36.7238 69.5488C36.7855 69.2052 36.813 68.7999 36.7933 68.3593C36.7041 66.3029 36.4418 65.1658 34.7264 64.0275C32.6097 62.6229 31.6681 64.4432 29.5763 66.7934C28.114 68.4354 25.7848 68.9954 28.3369 72.6111C28.5179 72.8681 32.4091 78.2308 32.4091 78.2308C33.0543 79.0963 33.3691 80.1639 33.2969 81.2406L32.6674 90.6386C32.2386 97.0478 32.6832 103.487 33.992 109.776L35.5894 117.453C35.9986 119.418 38.072 120.544 39.9422 119.818L46.3592 117.326C51.912 115.17 57.1592 112.298 61.9671 108.782L62.4694 108.414L56.5179 93.2249Z" fill="white"/>
<path d="M38.7659 120.337C38.1823 120.337 37.6 120.193 37.0741 119.907C36.1561 119.408 35.5082 118.536 35.2957 117.513L33.6984 109.836C32.3843 103.521 31.937 97.0544 32.3685 90.6176L32.998 81.2196C33.0649 80.2137 32.7711 79.2157 32.1679 78.4091C32.0066 78.1862 28.2715 73.0386 28.0918 72.7829C25.8977 69.6734 27.1895 68.5481 28.4393 67.4596C28.7502 67.1894 29.0715 66.9101 29.3521 66.594C29.6708 66.2373 29.962 65.8924 30.2348 65.5685C31.7692 63.7521 32.8774 62.4406 34.8918 63.7783C36.657 64.9494 36.9967 66.1337 37.0925 68.3462C37.1016 68.5599 37.1003 68.7711 37.0898 68.9744C39.7272 67.3796 39.9869 67.4531 40.1967 67.7167C40.4184 67.9934 40.1744 68.3357 39.6144 68.9101C39.0085 69.5304 39.5213 71.9134 39.8951 73.6524C40.1049 74.6294 40.2872 75.4727 40.2925 76.0065L40.3397 80.6268C40.3803 84.5114 40.9705 88.3672 42.0944 92.0852L44.1325 98.8301C44.4498 99.8793 45.2774 100.65 46.3462 100.894C47.4151 101.137 48.4944 100.799 49.2341 99.9894L56.122 92.4511C56.1967 92.3685 56.3108 92.3344 56.4197 92.3632C56.5272 92.3921 56.6098 92.4773 56.6361 92.5862C56.678 92.7711 56.7331 92.9494 56.7987 93.116L62.7502 108.306C62.8 108.433 62.758 108.576 62.6479 108.657L62.1456 109.024C57.318 112.555 52.0446 115.441 46.4695 117.607L40.0525 120.098C39.638 120.26 39.2026 120.34 38.7685 120.34L38.7659 120.337ZM33.3626 63.8321C32.5311 63.8321 31.8334 64.6032 30.6925 65.9553C30.417 66.2819 30.122 66.6308 29.7993 66.9927C29.4925 67.3363 29.1567 67.6288 28.8328 67.9121C27.5934 68.9914 26.699 69.7704 28.581 72.438C28.7593 72.6898 32.6111 77.9999 32.6505 78.0537C33.3364 78.9717 33.6721 80.1114 33.5948 81.259L32.9652 90.657C32.5377 97.0399 32.981 103.452 34.2846 109.713L35.882 117.39C36.059 118.24 36.598 118.965 37.36 119.378C38.122 119.793 39.0243 119.85 39.8334 119.536L46.2505 117.044C51.777 114.898 57.0059 112.035 61.7902 108.536L62.1062 108.306L56.24 93.3311C56.2282 93.3022 56.2177 93.2721 56.2059 93.2432L49.6761 100.391C48.7895 101.361 47.4938 101.766 46.2125 101.475C44.9311 101.184 43.9384 100.258 43.558 99.0006L41.52 92.2557C40.3803 88.4826 39.781 84.5717 39.7403 80.6308L39.6931 76.0104C39.6879 75.537 39.5043 74.6819 39.3089 73.777C38.8616 71.6983 38.3541 69.3416 39.1843 68.4904C39.1987 68.476 39.2131 68.4603 39.2275 68.4458C38.7856 68.6701 38.063 69.0753 36.8787 69.8032C36.7777 69.8649 36.6505 69.8622 36.5534 69.7953C36.4564 69.7285 36.4066 69.6117 36.4275 69.495C36.4879 69.1606 36.5102 68.7724 36.4931 68.3724C36.4079 66.4039 36.1902 65.3586 34.56 64.278C34.1049 63.9763 33.722 63.8321 33.3626 63.8321Z" fill="#3F81EB"/>
<path d="M42.7068 66.7763L37.5344 70.8694L29.2983 76.6675C28.4918 77.2353 27.4675 77.1724 26.956 76.5258L26.8563 76.3999C26.3436 75.7521 26.5193 74.7409 27.2563 74.0878L34.7921 67.4045L39.9645 63.3114L42.7082 66.7776L42.7068 66.7763Z" fill="white"/>
<path d="M28.1245 77.3521C27.5724 77.3521 27.0557 77.1344 26.7199 76.7108L26.6203 76.5849C26.0117 75.815 26.2032 74.619 27.057 73.8622L34.5927 67.179L39.7783 63.074C39.9081 62.9718 40.097 62.9927 40.1993 63.1226L42.9429 66.5888C42.9927 66.6518 43.015 66.7304 43.0058 66.8091C42.9967 66.8878 42.956 66.96 42.8944 67.0098L37.7219 71.1029L29.4714 76.9101C29.0517 77.2052 28.577 77.3495 28.1258 77.3495L28.1245 77.3521ZM39.9147 63.7298L34.977 67.638L27.4544 74.3108C26.838 74.8577 26.678 75.6931 27.0898 76.2137L27.1895 76.3396C27.6013 76.8603 28.4511 76.897 29.1252 76.4222L37.3613 70.6242L42.2858 66.7265L39.9147 63.7298Z" fill="#3F81EB"/>
<path d="M38.3608 62.9331L42.7006 68.4164L45.6036 66.1187L41.2639 60.6355L38.3608 62.9331Z" fill="white"/>
<path d="M42.7042 68.7173C42.6924 68.7173 42.6806 68.7173 42.6701 68.7147C42.5914 68.7055 42.5193 68.6649 42.4695 68.6032L38.1298 63.12C38.0275 62.9901 38.0485 62.8013 38.1783 62.699L41.0819 60.4013C41.1449 60.3514 41.2236 60.3304 41.3023 60.3383C41.3809 60.3475 41.4531 60.3882 41.5029 60.4498L45.8426 65.9331C45.9449 66.0629 45.9239 66.2518 45.7941 66.3541L42.8905 68.6518C42.8367 68.6937 42.7711 68.716 42.7042 68.716V68.7173ZM38.7855 62.9836L42.7527 67.9973L45.1855 66.0721L41.2183 61.0583L38.7855 62.9836Z" fill="#3F81EB"/>
<path d="M52.4707 56.2308C54.2149 58.4354 53.8425 61.6367 51.6379 63.3809L47.0451 67.015C45.9067 67.916 44.2543 67.7232 43.3546 66.5849L40.2975 62.7213C39.3966 61.5829 39.5894 59.9304 40.7277 59.0308L45.3205 55.3967C47.5251 53.6524 50.7264 54.0249 52.4707 56.2295V56.2308Z" fill="#3F81EB"/>
<path d="M37.3009 66.5075C34.7435 59.1645 26.1428 66.9849 26.6438 71.2616C26.8563 73.0753 29.3573 73.676 31.0661 73.0334C36.2294 71.0911 37.4045 68.8485 37.3009 66.5075Z" fill="white"/>
<path d="M29.6301 73.5842C28.8668 73.5842 28.1101 73.398 27.5173 73.036C26.8367 72.6216 26.4314 72.0196 26.3475 71.2957C26.0078 68.3973 29.5278 64.0668 32.8419 63.3049C34.1075 63.0137 36.4078 63.0295 37.5842 66.4091C37.5934 66.4367 37.5986 66.4655 37.5999 66.4944C37.7337 69.4885 35.7521 71.5908 31.1724 73.3141C30.6885 73.4963 30.1573 73.5842 29.6301 73.5842ZM33.8281 63.7875C33.5554 63.7875 33.2708 63.8216 32.9744 63.8898C29.9632 64.5822 26.636 68.6268 26.9416 71.2275C27.0203 71.9016 27.4675 72.3055 27.8281 72.5259C28.6688 73.0386 29.9567 73.1318 30.9613 72.754C36.4262 70.699 37.0727 68.3737 37.0032 66.5665C36.354 64.7344 35.2668 63.7888 33.8281 63.7888V63.7875Z" fill="#3F81EB"/>
<path d="M38.7304 77.1881C33.7009 72.8577 30.7593 68.9691 31.0058 67.3652C32.4366 66.8878 37.9671 70.3213 38.7304 70.3213C40.4471 70.7986 41.0189 74.2308 38.7304 77.1881Z" fill="white"/>
<path d="M39.9919 76.3081C39.9618 76.3081 39.9316 76.3042 39.9028 76.295C39.7454 76.2452 39.6562 76.0773 39.706 75.92C40.1493 74.4983 40.0064 72.4826 39.3795 71.3311C39.1696 70.9455 38.9283 70.7003 38.6792 70.619C38.3303 70.5875 37.6457 70.2531 36.3224 69.5921C34.7815 68.8236 32.2713 67.5737 31.2929 67.617C31.3336 68.6098 32.5047 70.7344 35.7297 73.9921C35.8464 74.1101 35.8451 74.299 35.727 74.4157C35.609 74.5324 35.4201 74.5311 35.3034 74.4131C32.1769 71.255 30.5021 68.6688 30.7093 67.318C30.7264 67.2065 30.8037 67.1147 30.91 67.0793C31.866 66.7619 33.9552 67.7403 36.5874 69.0544C37.4883 69.5029 38.5074 70.0131 38.7303 70.0209C38.7539 70.0209 38.7867 70.0262 38.809 70.0314C39.2287 70.1481 39.6064 70.497 39.9041 71.0426C40.611 72.3396 40.771 74.5127 40.2765 76.0957C40.2372 76.2242 40.1178 76.3055 39.9906 76.3055L39.9919 76.3081Z" fill="#3F81EB"/>
<path d="M168.076 160.378C165.334 158.82 164.241 157.567 163.228 154.989C163.228 154.989 157.572 137.062 153.153 125.814C151.384 121.311 147.422 112.881 143.394 104.561L129.091 112.546C128.939 112.631 128.796 112.725 128.66 112.829C135.677 124.565 148.567 146.08 149.94 148.067C149.94 148.067 156.959 158.442 156.616 163.827C156.4 167.23 157.726 173.508 162.75 177.027C163.801 177.763 165.171 176.633 164.647 175.464C164.639 175.445 164.63 175.427 164.62 175.407C163.837 173.753 162.445 171.663 162.445 171.663C162.445 171.663 165.189 171.689 168.062 173.953C170.932 176.216 177.029 180.274 178.292 178.909C180.458 176.57 179.169 166.681 168.075 160.378H168.076Z" fill="white"/>
<path d="M177.521 179.471C174.618 179.471 167.954 174.248 167.878 174.187C165.898 172.626 163.975 172.16 163.037 172.021C163.503 172.75 164.341 174.111 164.893 175.279L164.922 175.34C165.217 175.999 165.045 176.724 164.483 177.188C163.92 177.654 163.172 177.687 162.58 177.271C157.191 173.496 156.127 166.813 156.319 163.806C156.65 158.584 149.763 148.336 149.693 148.232C148.329 146.26 135.769 125.298 128.404 112.98C128.325 112.848 128.358 112.679 128.481 112.586C128.637 112.468 128.789 112.368 128.947 112.281L143.25 104.298C143.322 104.257 143.407 104.248 143.486 104.274C143.564 104.299 143.63 104.355 143.665 104.429C148.627 114.678 151.913 121.836 153.432 125.702C157.806 136.831 163.458 154.717 163.515 154.897C164.513 157.432 165.571 158.607 168.225 160.117C177.313 165.28 179.031 172.22 179.342 174.224C179.673 176.368 179.365 178.195 178.515 179.112C178.284 179.363 177.942 179.471 177.523 179.471H177.521ZM162.446 171.363H162.448C162.565 171.363 165.33 171.416 168.248 173.717C172.281 176.896 177.189 179.659 178.073 178.706C178.788 177.933 179.046 176.252 178.747 174.316C178.447 172.379 176.782 165.668 167.928 160.639C165.164 159.069 164 157.774 162.948 155.099C162.885 154.9 157.238 137.033 152.873 125.924C151.374 122.107 148.142 115.061 143.263 104.978L129.238 112.807C129.179 112.839 129.12 112.875 129.061 112.913C136.442 125.255 148.842 145.947 150.187 147.895C150.479 148.324 157.262 158.42 156.917 163.844C156.733 166.734 157.752 173.158 162.923 176.779C163.368 177.09 163.835 176.944 164.101 176.725C164.364 176.506 164.595 176.076 164.374 175.583L164.35 175.532C163.585 173.917 162.211 171.847 162.197 171.827C162.135 171.735 162.13 171.616 162.182 171.519C162.235 171.422 162.336 171.361 162.446 171.361V171.363Z" fill="#3F81EB"/>
<path d="M56.7673 89.634L59.8152 86.2124C64.9785 80.4786 71.4808 76.1127 78.7398 73.5055L83.7011 71.7245C84.0867 71.5855 84.4709 71.937 84.3673 72.3344C82.8618 77.7717 86.985 83.0006 92.585 84.5691C109.209 89.2235 116.488 73.9632 116.488 73.9632C117.666 72.1862 119.832 71.3403 121.899 71.8583C128.017 73.3888 135.712 78.4694 146.361 100.038C147.148 101.63 146.514 103.645 144.964 104.51L129.351 113.225C127.992 113.983 128.028 115.69 128.23 117.234L132.87 142.349C133.136 143.787 132.519 145.255 131.291 146.047C127.418 148.543 116.137 134.178 92.2401 141.726C84.0552 144.311 73.5936 139.93 72.2742 134.207L75.0781 117.761C74.7962 116.097 72.5195 115.284 70.7555 114.9C69.7654 114.685 68.7503 114.665 67.7391 114.734C65.6106 114.88 63.5909 113.566 62.909 111.461L56.0027 93.8334C55.4414 92.4025 55.7378 90.7776 56.766 89.6353L56.7673 89.634Z" fill="white"/>
<path d="M130.193 146.645C128.891 146.645 127.175 145.835 124.891 144.754C118.713 141.833 108.374 136.946 92.3318 142.012C87.6263 143.498 81.663 142.788 77.1397 140.203C74.3253 138.595 72.4944 136.49 71.9843 134.275C71.9751 134.237 71.9738 134.197 71.9803 134.157L74.7751 117.764C74.4695 116.235 72.0931 115.498 70.6925 115.193C69.8348 115.007 68.9023 114.956 67.76 115.033C65.4492 115.189 63.339 113.76 62.6243 111.553L55.7246 93.9422C55.1187 92.396 55.4322 90.6688 56.5443 89.4347L59.5908 86.0144C64.7712 80.2622 71.3574 75.84 78.6387 73.2249L83.6 71.4439C83.8833 71.3429 84.1981 71.4059 84.4197 71.6078C84.6426 71.8111 84.7331 72.118 84.6571 72.4104C83.1292 77.9318 87.6249 82.8695 92.6663 84.2806C99.4597 86.1822 105.487 85.0059 110.58 80.7803C114.383 77.6262 116.199 73.8714 116.218 73.8334C116.224 73.8203 116.231 73.8085 116.239 73.7967C117.485 71.916 119.789 71.0203 121.972 71.5659C127.639 72.9836 135.562 77.4859 146.631 99.9029C147.489 101.641 146.807 103.823 145.112 104.77L129.499 113.485C128.303 114.152 128.337 115.734 128.529 117.193L133.166 142.294C133.457 143.869 132.786 145.441 131.454 146.299C131.083 146.538 130.665 146.645 130.193 146.645ZM105.788 139.21C114.568 139.21 120.85 142.181 125.146 144.212C127.972 145.549 130.014 146.514 131.129 145.795C132.254 145.07 132.824 143.739 132.576 142.404L127.936 117.289C127.715 115.616 127.697 113.806 129.205 112.964L144.818 104.249C146.239 103.456 146.811 101.626 146.092 100.172C135.132 77.975 127.367 73.537 121.826 72.1508C119.895 71.6668 117.857 72.4563 116.748 74.114C116.585 74.4485 114.762 78.0904 110.96 81.2445C107.348 84.2399 101.214 87.2983 92.5023 84.8603C89.6827 84.0708 87.1541 82.3278 85.5646 80.0786C83.8715 77.6826 83.343 74.9049 84.0761 72.257C84.1036 72.1508 84.0407 72.0786 84.0131 72.0524C83.9843 72.0262 83.9082 71.9698 83.7994 72.0091L78.8381 73.7901C71.6486 76.3711 65.1476 80.737 60.0341 86.4144L56.9876 89.8347C56.0289 90.8996 55.7587 92.3895 56.2807 93.7232L63.1869 111.351C63.8217 113.313 65.6826 114.572 67.7181 114.435C68.9181 114.354 69.9043 114.408 70.8184 114.607C72.7266 115.023 75.0649 115.898 75.3731 117.711C75.3784 117.744 75.3784 117.778 75.3731 117.812L72.5797 134.198C73.0715 136.227 74.7935 138.173 77.4348 139.683C81.8204 142.189 87.5961 142.879 92.1495 141.44C97.2472 139.829 101.777 139.21 105.786 139.21H105.788Z" fill="#3F81EB"/>
<path d="M108.249 112.212C108.186 112.212 108.122 112.193 108.067 112.151C101.537 107.154 99.5908 101.666 99.5121 101.435C99.4584 101.279 99.541 101.108 99.6971 101.054C99.8531 101.001 100.024 101.083 100.077 101.239C100.097 101.294 102.054 106.795 108.43 111.675C108.561 111.776 108.586 111.963 108.485 112.094C108.426 112.172 108.337 112.212 108.247 112.212H108.249Z" fill="#3F81EB"/>
<path d="M84.9653 111.424C84.8748 111.424 84.7843 111.384 84.7253 111.305C79.7758 104.737 79.3732 98.9271 79.3574 98.6832C79.3469 98.518 79.4728 98.3763 79.6381 98.3658C79.8073 98.3593 79.945 98.4812 79.9555 98.6465C79.9594 98.7042 80.3699 104.53 85.204 110.943C85.3037 111.075 85.2774 111.263 85.145 111.363C85.0912 111.403 85.0282 111.423 84.9653 111.423V111.424Z" fill="#3F81EB"/>
<path d="M87.0819 34.7121C87.0819 49.2433 96.7435 65.8269 111.275 65.8269C125.806 65.8269 140.597 53.3062 140.597 38.7751C140.597 24.2439 128.371 10.2478 113.839 10.2478C99.3061 10.2478 87.0806 20.1797 87.0806 34.7121H87.0819Z" fill="#3F81EB"/>
<path d="M138.001 49.8453C139.652 49.6132 140.802 48.0866 140.57 46.4355C140.338 44.7843 138.811 43.634 137.16 43.866C135.509 44.0981 134.359 45.6247 134.591 47.2758C134.823 48.9269 136.349 50.0773 138.001 49.8453Z" fill="#3F81EB"/>
<path d="M134.73 56.8513C137.074 55.8922 138.197 53.2143 137.238 50.87C136.279 48.5257 133.601 47.4027 131.257 48.3618C128.912 49.3209 127.789 51.9988 128.749 54.3431C129.708 56.6874 132.386 57.8104 134.73 56.8513Z" fill="#3F81EB"/>
<path d="M131.132 53.5029C133.279 55.6498 133.279 59.1292 131.132 61.2747C128.985 63.4216 125.505 63.4216 123.36 61.2747C121.213 59.1279 121.213 55.6485 123.36 53.5029C125.507 51.356 128.986 51.356 131.132 53.5029Z" fill="#3F81EB"/>
<path d="M124.995 61.5553C125.602 58.1652 123.347 54.9245 119.957 54.317C116.567 53.7094 113.326 55.9651 112.718 59.3552C112.111 62.7453 114.366 65.986 117.757 66.5935C121.147 67.2011 124.387 64.9454 124.995 61.5553Z" fill="#3F81EB"/>
<path d="M116.128 63.5515C117.843 60.1596 116.482 56.0203 113.09 54.3062C109.699 52.5921 105.559 53.9522 103.845 57.3441C102.131 60.7361 103.491 64.8753 106.883 66.5894C110.275 68.3036 114.414 66.9435 116.128 63.5515Z" fill="#3F81EB"/>
<path d="M143.241 37.0279C143.56 33.945 141.319 31.1875 138.236 30.8689C135.153 30.5504 132.396 32.7913 132.077 35.8742C131.759 38.9571 134 41.7145 137.082 42.0331C140.165 42.3517 142.923 40.1108 143.241 37.0279Z" fill="#3F81EB"/>
<path d="M134.502 35.9082C137.869 35.9082 140.598 33.179 140.598 29.8125C140.598 26.4459 137.869 23.7167 134.502 23.7167C131.136 23.7167 128.406 26.4459 128.406 29.8125C128.406 33.179 131.136 35.9082 134.502 35.9082Z" fill="#3F81EB"/>
<path d="M137.764 46.0514C139.687 45.9933 141.199 44.3874 141.141 42.4645C141.083 40.5416 139.477 39.0299 137.554 39.088C135.631 39.146 134.119 40.7519 134.178 42.6748C134.236 44.5977 135.842 46.1094 137.764 46.0514Z" fill="#3F81EB"/>
<path d="M91.5308 40.0975C94.0399 39.388 95.4988 36.7788 94.7893 34.2697C94.0797 31.7605 91.4705 30.3017 88.9614 31.0112C86.4523 31.7208 84.9934 34.33 85.7029 36.8391C86.4125 39.3482 89.0217 40.8071 91.5308 40.0975Z" fill="#3F81EB"/>
<path d="M90.5331 34.4589C93.2771 34.1457 95.2477 31.6675 94.9346 28.9235C94.6214 26.1795 92.1432 24.2089 89.3992 24.522C86.6552 24.8352 84.6846 27.3134 84.9977 30.0574C85.3109 32.8014 87.7891 34.772 90.5331 34.4589Z" fill="#3F81EB"/>
<path d="M93.4465 28.8092C96.3691 28.8092 98.7383 26.44 98.7383 23.5174C98.7383 20.5948 96.3691 18.2256 93.4465 18.2256C90.5239 18.2256 88.1547 20.5948 88.1547 23.5174C88.1547 26.44 90.5239 28.8092 93.4465 28.8092Z" fill="#3F81EB"/>
<path d="M97.2012 22.0026C99.9399 22.0026 102.16 19.7825 102.16 17.0439C102.16 14.3053 99.9399 12.0852 97.2012 12.0852C94.4626 12.0852 92.2426 14.3053 92.2426 17.0439C92.2426 19.7825 94.4626 22.0026 97.2012 22.0026Z" fill="#3F81EB"/>
<path d="M103.49 17.0439C105.366 17.0439 106.888 15.5226 106.888 13.6459C106.888 11.7692 105.366 10.2478 103.49 10.2478C101.613 10.2478 100.092 11.7692 100.092 13.6459C100.092 15.5226 101.613 17.0439 103.49 17.0439Z" fill="#3F81EB"/>
<path d="M110.535 16.7071C112.841 16.1627 114.27 13.8516 113.725 11.545C113.181 9.23844 110.87 7.80993 108.563 8.35433C106.257 8.89873 104.828 11.2099 105.373 13.5164C105.917 15.823 108.228 17.2515 110.535 16.7071Z" fill="#3F81EB"/>
<path d="M121.772 17.3454C122.999 14.3829 121.592 10.9867 118.629 9.75958C115.667 8.5325 112.271 9.93928 111.044 12.9017C109.817 15.8641 111.223 19.2604 114.186 20.4875C117.148 21.7146 120.545 20.3078 121.772 17.3454Z" fill="#3F81EB"/>
<path d="M123.94 20.5779C126.777 20.1807 128.755 17.5589 128.358 14.722C127.961 11.885 125.339 9.90718 122.502 10.3044C119.665 10.7016 117.687 13.3234 118.084 16.1603C118.482 18.9973 121.103 20.9751 123.94 20.5779Z" fill="#3F81EB"/>
<path d="M129.31 23.7878C132.385 23.2886 134.473 20.3912 133.974 17.3162C133.475 14.2412 130.577 12.1531 127.502 12.6522C124.427 13.1513 122.339 16.0488 122.838 19.1238C123.337 22.1988 126.235 24.2869 129.31 23.7878Z" fill="#3F81EB"/>
<path d="M139.678 23.1236C139.886 21.0174 138.348 19.1411 136.242 18.9328C134.136 18.7244 132.259 20.2629 132.051 22.369C131.843 24.4752 133.381 26.3514 135.487 26.5598C137.593 26.7682 139.47 25.2297 139.678 23.1236Z" fill="#3F81EB"/>
<path d="M84.3514 72.4039L87.2668 71.6065C91.9147 70.7974 90.9652 58.8433 90.6347 55.7115L86.5626 54.1495C85.6891 53.6118 85.2013 52.6216 85.2904 51.6L85.6983 46.9102L85.3534 44.1443C89.0124 42.779 91.7809 37.9751 91.7809 37.9751L99.7337 39.5869C103.688 41.1974 100.561 42.859 98.7396 46.7239C98.7396 46.7239 98.0826 50.059 101.213 48.0118C104.056 46.1521 104.724 46.3436 105.466 47.5344C106.046 48.4656 105.601 50.3987 105.058 51.3521L104.915 51.6039C104.37 52.5626 103.435 53.2367 102.353 53.4531L102.34 53.4557C101.862 64.4603 109.174 71.3075 116.53 72.939C116.716 72.9797 116.904 73.019 117.091 73.0544L117.231 73.0806C116.956 73.3416 116.707 73.6354 116.49 73.9606C116.49 73.9606 109.212 89.221 92.5875 84.5665C87.0111 83.0046 82.9022 77.8151 84.3527 72.4026L84.3514 72.4039Z" fill="white"/>
<path d="M98.6596 85.7429C96.775 85.7429 94.7238 85.478 92.5061 84.8577C87.1094 83.3469 82.476 78.2465 84.0629 72.3279C84.0904 72.2256 84.1704 72.1443 84.2727 72.1167L87.1881 71.3193C91.5658 70.5561 90.6425 58.7606 90.3566 55.9265L86.4563 54.4315C86.4392 54.4249 86.4222 54.417 86.4065 54.4065C85.4347 53.8085 84.893 52.7239 84.9927 51.5764L85.3966 46.9193L85.0556 44.1849C85.0386 44.0472 85.1186 43.9161 85.2484 43.8675C88.7658 42.5561 91.4937 37.8767 91.5212 37.8295C91.5855 37.718 91.714 37.6603 91.8399 37.6852L99.7927 39.297C99.811 39.301 99.8294 39.3062 99.8465 39.3128C101.037 39.798 101.683 40.3239 101.878 40.9705C102.155 41.8833 101.496 42.8551 100.664 44.0852C100.132 44.8695 99.5304 45.7587 99.0268 46.8197C98.9678 47.1606 98.9022 48.0485 99.2799 48.3016C99.5815 48.5036 100.21 48.3121 101.049 47.7639C102.834 46.5967 103.812 46.2046 104.538 46.3646C105.098 46.4879 105.437 46.9259 105.719 47.3797C106.374 48.4315 105.898 50.4852 105.318 51.5029L105.175 51.7547C104.623 52.7239 103.704 53.4229 102.629 53.6997C102.266 64.5088 109.589 71.0951 116.594 72.6492C116.778 72.6898 116.961 72.7279 117.146 72.7633L117.286 72.7895C117.397 72.8105 117.486 72.8918 117.517 72.9993C117.549 73.1069 117.517 73.2236 117.436 73.301C117.178 73.5462 116.947 73.819 116.75 74.1115C116.587 74.4472 114.764 78.0892 110.963 81.242C108.271 83.4754 104.177 85.7429 98.6596 85.7429ZM84.5979 72.6479C83.2379 78.139 87.6012 82.8629 92.6674 84.2806C99.4622 86.1823 105.488 85.0059 110.581 80.7803C114.384 77.6249 116.201 73.8715 116.219 73.8334C116.225 73.8203 116.232 73.8085 116.24 73.7967C116.362 73.6131 116.494 73.4374 116.639 73.2708C116.581 73.259 116.523 73.2459 116.465 73.2328C109.175 71.6157 101.551 64.7331 102.041 53.4439C102.047 53.3062 102.147 53.1895 102.282 53.1633C103.292 52.9626 104.152 52.341 104.654 51.4583L104.797 51.2065C105.304 50.3174 105.717 48.5075 105.21 47.6957C104.914 47.2197 104.69 47.0111 104.408 46.9482C103.874 46.8302 102.966 47.2236 101.376 48.2636C100.274 48.9836 99.4792 49.158 98.9429 48.7974C98.1547 48.2662 98.4117 46.8302 98.4432 46.6675C98.4484 46.6439 98.455 46.6203 98.4655 46.598C98.9927 45.4793 99.6156 44.5587 100.165 43.7469C100.909 42.6479 101.496 41.781 101.302 41.141C101.166 40.6924 100.623 40.278 99.6432 39.8754L91.9251 38.3108C91.377 39.2092 88.914 43.002 85.6747 44.337L85.9907 46.8721C85.9933 46.8931 85.9933 46.9141 85.9907 46.9351L85.5829 51.6249C85.5042 52.5364 85.9278 53.398 86.6911 53.8793L90.737 55.4308C90.8419 55.4715 90.9153 55.5672 90.9271 55.6787C91.3061 59.2708 92.1638 71.0557 87.3127 71.9003L84.5927 72.6465L84.5979 72.6479Z" fill="#3F81EB"/>
<path d="M97.234 73.979C96.1875 73.979 95.5317 73.5357 95.4924 73.5095C95.356 73.4151 95.3219 73.2288 95.4163 73.0925C95.5108 72.9574 95.6957 72.9233 95.8321 73.0164C95.8806 73.0492 96.9822 73.7731 98.6203 73.0833C98.7724 73.019 98.9481 73.0898 99.0124 73.2433C99.0767 73.3954 99.0058 73.5711 98.8524 73.6354C98.2478 73.8898 97.7009 73.979 97.2327 73.979H97.234Z" fill="#3F81EB"/>
<path d="M103.151 62.1606C105.756 61.5507 107.373 58.945 106.763 56.3406C106.153 53.7362 103.547 52.1193 100.943 52.7292C98.3382 53.3391 96.7213 55.9448 97.3312 58.5492C97.9411 61.1536 100.547 62.7705 103.151 62.1606Z" fill="white"/>
<path d="M102.045 62.5954C99.2091 62.5954 96.9022 60.2885 96.9022 57.4531C96.9022 54.6177 99.2091 52.3108 102.045 52.3108C104.88 52.3108 107.187 54.6177 107.187 57.4531C107.187 60.2885 104.88 62.5954 102.045 62.5954ZM102.045 52.9088C99.5396 52.9088 97.5003 54.9469 97.5003 57.4531C97.5003 59.9593 99.5383 61.9974 102.045 61.9974C104.551 61.9974 106.589 59.9593 106.589 57.4531C106.589 54.9469 104.551 52.9088 102.045 52.9088Z" fill="#3F81EB"/>
<path d="M198.683 192.319H49.1934C48.0366 192.319 47.0963 191.378 47.0963 190.222C47.0963 189.065 48.0366 188.125 49.1934 188.125H198.683C199.84 188.125 200.78 189.065 200.78 190.222C200.78 191.378 199.84 192.319 198.683 192.319ZM49.1934 188.724C48.3671 188.724 47.6957 189.395 47.6957 190.222C47.6957 191.048 48.3671 191.719 49.1934 191.719H198.683C199.509 191.719 200.181 191.048 200.181 190.222C200.181 189.395 199.509 188.724 198.683 188.724H49.1934Z" fill="#3F81EB"/>
<path d="M143.794 192.853C145.081 191.566 145.081 189.48 143.794 188.192C142.507 186.905 140.421 186.905 139.134 188.192C137.846 189.48 137.846 191.566 139.134 192.853C140.421 194.14 142.507 194.14 143.794 192.853Z" fill="#3F81EB"/>
<path d="M213.096 203.401H33.6616C31.676 203.401 29.937 202.631 28.7619 201.231C27.5633 199.803 27.0977 197.903 27.4531 195.878L40.0944 123.802C40.1233 123.639 40.278 123.529 40.4406 123.559C40.6033 123.588 40.7121 123.743 40.6833 123.906L28.0419 195.982C27.718 197.829 28.1364 199.557 29.2197 200.846C30.278 202.106 31.8557 202.801 33.6603 202.801H213.095C216.91 202.801 220.559 199.696 221.229 195.878L242.805 72.8551C243.129 71.0085 242.711 69.28 241.629 67.9908C240.569 66.7305 238.993 66.0354 237.188 66.0354H137.896C137.731 66.0354 137.597 65.9016 137.597 65.7364C137.597 65.5711 137.731 65.4374 137.896 65.4374H237.188C239.174 65.4374 240.913 66.2072 242.088 67.6065C243.287 69.0347 243.752 70.9351 243.397 72.96L221.82 195.983C221.103 200.073 217.189 203.402 213.096 203.402V203.401Z" fill="#3F81EB"/>
<path d="M46.5901 88.7974C46.5731 88.7974 46.556 88.7961 46.5377 88.7934C46.375 88.7646 46.2662 88.6098 46.295 88.4472L49.0295 72.8564C49.7468 68.7659 53.6603 65.4374 57.7534 65.4374H68.2478C68.4131 65.4374 68.5468 65.5712 68.5468 65.7364C68.5468 65.9016 68.4131 66.0354 68.2478 66.0354H57.7534C53.9383 66.0354 50.2898 69.141 49.6196 72.9587L46.8852 88.5495C46.8603 88.6951 46.7331 88.7974 46.5901 88.7974Z" fill="#3F81EB"/>
</g>
<defs>
<clipPath id="clip0_191_128">
<rect width="247.263" height="240" fill="white"/>
</clipPath>
</defs>
</svg>
