<svg width="241" height="240" viewBox="0 0 241 240" fill="none" xmlns="http://www.w3.org/2000/svg">
<g clip-path="url(#clip0_192_234)">
<path d="M221.593 186.439H18.5534C8.32262 186.439 0 178.117 0 167.886V45.4112C0 35.1803 8.32262 26.8577 18.5534 26.8577H221.593C231.824 26.8577 240.147 35.1803 240.147 45.4112V167.887C240.147 178.118 231.824 186.441 221.593 186.441V186.439ZM18.5534 27.4361C8.64262 27.4361 0.578361 35.499 0.578361 45.4112V167.887C0.578361 177.798 8.64131 185.862 18.5534 185.862H221.593C231.506 185.862 239.569 177.799 239.569 167.887V45.4112C239.569 35.5003 231.506 27.4361 221.593 27.4361H18.5534Z" fill="#3F81EB"/>
<path d="M239.797 157.626H0.348918C0.188918 157.626 0.059082 157.496 0.059082 157.336C0.059082 157.176 0.188918 157.047 0.348918 157.047H239.797C239.957 157.047 240.087 157.176 240.087 157.336C240.087 157.496 239.957 157.626 239.797 157.626Z" fill="#3F81EB"/>
<path d="M160.314 228.379H79.8322C79.7469 228.379 79.6656 228.341 79.6119 228.277C79.5568 228.211 79.5332 228.126 79.5476 228.042L86.6689 186.102C86.6925 185.963 86.8132 185.861 86.9535 185.861H153.192C153.333 185.861 153.453 185.963 153.477 186.102L160.598 228.042C160.613 228.126 160.589 228.212 160.534 228.277C160.479 228.342 160.399 228.379 160.314 228.379ZM80.1745 227.801H159.971L152.948 186.439H87.1988L80.1758 227.801H80.1745Z" fill="#3F81EB"/>
<path d="M171.141 236.529H69.0033C66.5993 236.529 64.6439 234.573 64.6439 232.169C64.6439 229.765 66.5993 227.799 69.0033 227.799H171.141C173.545 227.799 175.5 229.755 175.5 232.159C175.5 234.563 173.545 236.527 171.141 236.527V236.529ZM69.0033 228.379C66.9193 228.379 65.2223 230.075 65.2223 232.16C65.2223 234.245 66.918 235.95 69.0033 235.95H171.141C173.225 235.95 174.922 234.254 174.922 232.171C174.922 230.087 173.226 228.38 171.141 228.38H69.0033V228.379Z" fill="#3F81EB"/>
<path d="M120.073 175.49C118.13 175.49 116.548 173.904 116.548 171.955C116.548 170.007 118.13 168.421 120.073 168.421C122.017 168.421 123.599 170.007 123.599 171.955C123.599 173.904 122.017 175.49 120.073 175.49ZM120.073 169.001C118.449 169.001 117.127 170.327 117.127 171.957C117.127 173.587 118.449 174.913 120.073 174.913C121.698 174.913 123.02 173.587 123.02 171.957C123.02 170.327 121.698 169.001 120.073 169.001Z" fill="#3F81EB"/>
<path d="M136.432 157.267H50.9535V119.277H122.832L136.432 157.267Z" fill="#3F81EB"/>
<path d="M61.7191 33.113L51.9698 37.5642L58.449 51.7551L68.1983 47.3039L61.7191 33.113Z" fill="#D9E8FF"/>
<path d="M58.4511 52.038C58.341 52.038 58.236 51.9751 58.1875 51.8689L51.7075 37.6787C51.676 37.6092 51.6734 37.5292 51.6996 37.457C51.7259 37.3849 51.781 37.3272 51.8505 37.2944L61.6 32.842C61.7456 32.7751 61.9174 32.8393 61.9829 32.9849L68.4629 47.1751C68.4944 47.2446 68.497 47.3246 68.4708 47.3967C68.4446 47.4688 68.3895 47.5266 68.32 47.558L58.5705 52.0105C58.5311 52.0288 58.4905 52.0367 58.4498 52.0367L58.4511 52.038ZM52.3541 37.701L58.5941 51.3652L67.8177 47.1541L61.5777 33.4898L52.3541 37.701Z" fill="#3F81EB"/>
<path d="M61.4931 39.8887C65.4483 37.2388 66.2805 31.5468 63.3517 27.1751C60.4229 22.8034 54.8422 21.4075 50.8869 24.0573C46.9316 26.7072 46.0995 32.3993 49.0283 36.771C51.9571 41.1427 57.5378 42.5385 61.4931 39.8887Z" fill="#D9E8FF"/>
<path d="M57.0296 41.5252C56.2965 41.5252 55.5515 41.4334 54.8053 41.2459C52.3817 40.64 50.2453 39.1082 48.7883 36.9338C47.3325 34.7593 46.7292 32.2006 47.0912 29.7285C47.4545 27.2459 48.745 25.1462 50.7279 23.819C54.8092 21.0859 60.581 22.5193 63.5935 27.0164C65.0506 29.1908 65.6525 31.7495 65.2906 34.2216C64.9273 36.7043 63.6368 38.8039 61.6538 40.1311C60.2794 41.0518 58.6886 41.5239 57.0309 41.5239L57.0296 41.5252ZM55.3535 23.0111C53.8427 23.0111 52.3528 23.4269 51.0479 24.3003C49.204 25.5357 48.0014 27.4938 47.6617 29.8125C47.3207 32.1429 47.8912 34.5574 49.2683 36.6125C50.644 38.6675 52.661 40.1128 54.9456 40.6846C57.2197 41.2538 59.4873 40.8865 61.3312 39.6511C63.1751 38.4157 64.3778 36.4577 64.7174 34.139C65.0584 31.8085 64.4879 29.3941 63.1109 27.339C61.2446 24.5534 58.2624 23.0111 55.3535 23.0111Z" fill="#3F81EB"/>
<path d="M48.7384 36.998L63.6237 27.0269C66.5823 31.558 65.7023 37.4033 61.6223 40.1364C57.5423 42.8695 51.802 41.4584 48.7384 36.9993V36.998Z" fill="#3F81EB"/>
<path d="M62.2007 34.1036C62.0892 34.8629 61.7469 35.5934 61.162 36.177C59.8597 37.4793 57.8282 37.6 56.3856 36.5495L62.2007 34.1036Z" fill="white"/>
<path d="M59.0977 2.97311L64.2255 14.2033C66.1049 18.3187 64.2924 23.1777 60.177 25.057L56.817 26.5915L47.3259 33.381L45.7495 29.9279C44.0682 26.2466 44.5573 21.9384 47.019 18.7266L59.0977 2.97311Z" fill="#3F81EB"/>
<path d="M51.3141 21.7744C47.0689 23.7128 45.3653 29.0872 47.5082 33.7797C47.701 34.202 47.9187 34.6033 48.1574 34.9836L51.4571 29.04L61.4492 24.4774C58.901 21.402 54.7948 20.1862 51.3141 21.7757V21.7744Z" fill="#3F81EB"/>
<path d="M162.258 31.1659L165.001 26.1377C165.001 26.1377 161.496 22.1325 164.54 17.1607C165.246 16.0079 166.905 13.7652 168.327 11.8885C169.944 9.75344 171.271 7.41508 172.275 4.93245L173.427 2.08786C174.005 0.658356 175.609 -0.0603328 177.062 0.4577L177.373 0.567864C178.845 1.09377 179.629 2.69901 179.137 4.18229L175.969 13.7469H180.856C183.361 13.7469 185.818 13.0492 187.949 11.7311L196.66 6.57967C198.108 5.72327 199.965 6.06688 201.011 7.3836L201.19 7.60786L205.586 4.38426C206.91 3.47672 208.714 3.7718 209.68 5.05442C210.631 6.31344 210.445 8.0918 209.255 9.12655L179.975 34.5993L176.636 40.3882L162.258 31.1646V31.1659Z" fill="#D9E8FF"/>
<path d="M176.636 40.3895L162.258 31.1659L163.851 28.2492L177.555 38.7974L176.636 40.3895Z" fill="#3F81EB"/>
<path d="M176.636 40.6793C176.581 40.6793 176.527 40.6636 176.48 40.6334L162.102 31.4098C161.975 31.3285 161.932 31.1607 162.004 31.0282L164.654 26.1692C164.038 25.3534 161.519 21.5436 164.292 17.0125C165.02 15.823 166.762 13.4754 168.096 11.7167C169.694 9.60656 171.01 7.28918 172.007 4.82754L173.158 1.98295C173.797 0.403935 175.554 -0.38295 177.158 0.188853L177.469 0.300328C179.075 0.873443 179.946 2.65836 179.41 4.27803L176.369 13.4623H180.856C183.31 13.4623 185.709 12.7803 187.797 11.4898L196.513 6.33574C198.077 5.41115 200.109 5.78623 201.238 7.20918L201.243 7.21574L205.415 4.15607C206.877 3.1541 208.85 3.47672 209.912 4.88393C210.95 6.25705 210.745 8.21902 209.445 9.34951L180.202 34.7908L176.887 40.5377C176.847 40.6059 176.782 40.6557 176.704 40.6741C176.682 40.6793 176.658 40.682 176.636 40.682V40.6793ZM162.641 31.0689L176.536 39.983L179.725 34.4577C179.74 34.4302 179.761 34.4052 179.785 34.3843L209.065 8.91148C210.135 7.98033 210.304 6.36328 209.449 5.23148C208.573 4.07082 206.948 3.80459 205.748 4.62689L201.36 7.84525C201.234 7.93836 201.06 7.91344 200.963 7.79148L200.784 7.5659C199.833 6.36853 198.123 6.05246 196.807 6.83016L188.096 11.9816C185.923 13.3259 183.418 14.0367 180.856 14.0367H175.969C175.875 14.0367 175.789 13.9921 175.734 13.9174C175.679 13.8426 175.664 13.7456 175.693 13.6577L178.862 4.09312C179.3 2.76984 178.589 1.31016 177.275 0.841968L176.964 0.730492C175.654 0.262295 174.216 0.90623 173.694 2.19672L172.543 5.04262C171.527 7.55148 170.186 9.91344 168.556 12.0643C166.656 14.5718 165.352 16.3869 164.786 17.3128C161.894 22.038 165.081 25.7915 165.218 25.9489C165.298 26.0407 165.313 26.1718 165.254 26.278L162.64 31.0689H162.641Z" fill="#3F81EB"/>
<path d="M182.287 23.2L184.372 21.1515C185.698 19.8492 186.618 18.1915 187.019 16.3764L189.216 6.44327C189.532 5.01508 190.936 4.10491 192.37 4.4C193.734 4.68065 194.656 5.96196 194.488 7.34426L193.115 18.6544C193.003 19.5685 192.711 20.4511 192.253 21.2498L189.786 25.5528L182.289 23.2H182.287Z" fill="#D9E8FF"/>
<path d="M187.622 17.5921L190.017 15.9174C191.54 14.8525 192.72 13.3692 193.416 11.6459L197.225 2.21245C197.773 0.855076 199.309 0.190158 200.673 0.718683C201.972 1.22098 202.669 2.63606 202.274 3.97245L199.05 14.8997C198.79 15.7823 198.355 16.6046 197.772 17.3167L194.627 21.1528L187.621 17.5934L187.622 17.5921Z" fill="#D9E8FF"/>
<path d="M197.772 17.6052C197.708 17.6052 197.642 17.5843 197.588 17.5397C197.465 17.4387 197.447 17.2564 197.548 17.1331C198.11 16.4472 198.522 15.6682 198.772 14.8171L201.996 3.88984C202.345 2.70689 201.718 1.43213 200.568 0.987542C199.357 0.519346 197.978 1.11738 197.492 2.32L194.598 9.5764C194.539 9.72459 194.37 9.79672 194.223 9.73771C194.075 9.67869 194.003 9.51082 194.062 9.36131L196.956 2.10361C197.559 0.608526 199.275 -0.135081 200.776 0.447214C202.205 0.999346 202.985 2.58361 202.551 4.05246L199.327 14.9797C199.054 15.9043 198.606 16.7528 197.995 17.4977C197.938 17.5672 197.854 17.6039 197.77 17.6039L197.772 17.6052Z" fill="#3F81EB"/>
<path d="M179.793 25.3075C179.71 25.3075 179.629 25.2721 179.571 25.2052C179.468 25.0833 179.483 24.901 179.605 24.7974L184.184 20.9298C185.456 19.6787 186.344 18.0774 186.734 16.3134L188.931 6.38032C189.279 4.80655 190.847 3.79147 192.425 4.1154C193.925 4.42491 194.956 5.85704 194.771 7.37835L193.848 17.2603C193.642 19.4636 192.62 21.217 191.537 23.0728L191.469 23.1895C191.389 23.3272 191.212 23.3744 191.073 23.2931C190.935 23.2131 190.888 23.0361 190.969 22.8984L191.037 22.7803C192.087 20.981 193.078 19.2813 193.271 17.2052L194.194 7.3154C194.344 6.08393 193.515 4.92983 192.307 4.68065C191.036 4.41835 189.774 5.23672 189.494 6.5036L187.297 16.4367C186.883 18.3108 185.94 20.0118 184.572 21.3547L179.976 25.2367C179.921 25.2826 179.856 25.3049 179.79 25.3049L179.793 25.3075Z" fill="#3F81EB"/>
<path d="M174.546 18.2347C174.515 18.2347 174.484 18.2295 174.453 18.219C174.302 18.1679 174.22 18.0039 174.272 17.8518L175.694 13.6551C175.746 13.5043 175.91 13.4229 176.062 13.4741C176.213 13.5252 176.294 13.6892 176.243 13.8413L174.82 18.038C174.779 18.1587 174.666 18.2347 174.546 18.2347Z" fill="#3F81EB"/>
<path d="M127.263 120.559H47.9711L18.8629 119.69L20.5809 78.8157C20.9705 69.562 26.7396 61.3928 35.3298 57.9318L84.4747 38.1325C91.2668 35.3954 98.7895 35.2944 105.593 37.7639C107.228 38.3567 108.791 39.1318 110.294 40.0066L137.365 55.7508L157.673 26.2361L181.565 43.6512L155.264 80.5325C149.356 88.8184 138.083 91.1908 129.335 85.9908L111.841 75.5908L127.262 120.56L127.263 120.559Z" fill="white"/>
<path d="M91.7758 83.2931L45.1476 53.8584L73.1332 42.7016L91.7758 83.2931Z" fill="white"/>
<path d="M91.7758 83.5816C91.722 83.5816 91.6683 83.5672 91.6211 83.5371L44.9929 54.1036C44.9011 54.0459 44.8499 53.941 44.8591 53.8321C44.8696 53.7233 44.9391 53.6302 45.0401 53.5895L73.0256 42.4315C73.1686 42.3751 73.3312 42.4393 73.3955 42.5797L92.0381 83.1712C92.0919 83.2879 92.0617 83.4256 91.966 83.5095C91.9122 83.5567 91.844 83.5816 91.7758 83.5816ZM45.7824 53.9174L91.107 82.5285L72.9863 43.0715L45.7837 53.9174H45.7824Z" fill="#3F81EB"/>
<path d="M127.263 120.847H47.9711L18.855 119.978C18.7777 119.975 18.7042 119.942 18.6518 119.886C18.5993 119.83 18.5718 119.753 18.5744 119.677L20.2924 78.8026C20.6846 69.4557 26.5455 61.158 35.2223 57.663L84.3672 37.8636C91.1973 35.1121 98.7711 34.9797 105.693 37.4911C107.221 38.0459 108.774 38.7869 110.439 39.7548L137.28 55.3639L157.436 26.0708C157.481 26.0066 157.549 25.9633 157.626 25.9502C157.704 25.937 157.782 25.9554 157.845 26.0013L181.736 43.4164C181.865 43.5095 181.894 43.6892 181.802 43.8177L155.502 80.699C152.602 84.7659 148.313 87.5712 143.426 88.6007C138.538 89.6289 133.482 88.7908 129.189 86.2374L112.372 76.2387L127.538 120.464C127.568 120.552 127.554 120.65 127.5 120.727C127.447 120.803 127.359 120.847 127.266 120.847H127.263ZM19.1632 119.409L47.979 120.269H126.858L111.568 75.6813C111.529 75.5672 111.566 75.44 111.659 75.3626C111.753 75.2866 111.885 75.2761 111.989 75.339L129.483 85.739C138.034 90.8223 149.255 88.4603 155.029 80.362L181.163 43.7141L157.743 26.6426L137.604 55.9121C137.519 56.0367 137.351 56.0748 137.22 55.9987L110.147 40.2544C108.511 39.3036 106.989 38.5771 105.494 38.0341C98.7068 35.5711 91.28 35.701 84.5823 38.4L35.4373 58.1993C26.9705 61.6105 21.2524 69.7075 20.8695 78.8262L19.1632 119.409Z" fill="#3F81EB"/>
<path d="M64.1575 46.303L54.9194 45.4413L58.7922 53.8728L64.1575 46.303Z" fill="#3F81EB"/>
<path d="M63.1357 46.7725L72.3738 47.6341L68.501 39.2026L63.1357 46.7725Z" fill="#3F81EB"/>
<path d="M65.3731 88.9915C65.2171 88.9915 65.0885 88.8669 65.0846 88.7095L64.6557 72.3803L46.6846 79.1226C46.6098 79.1515 46.5272 79.1462 46.4564 79.1121C46.3856 79.0767 46.3305 79.0138 46.3069 78.9377L39.2603 56.3226C39.2131 56.1705 39.2984 56.0079 39.4505 55.9607C39.6026 55.9134 39.7653 55.9987 39.8125 56.1508L46.7685 78.4734L64.8328 71.6957C64.9207 71.663 65.0177 71.6748 65.0964 71.7259C65.1738 71.7784 65.221 71.8649 65.2236 71.958L65.663 88.6938C65.6669 88.8538 65.541 88.9862 65.381 88.9902C65.3784 88.9902 65.3757 88.9902 65.3731 88.9902V88.9915Z" fill="#3F81EB"/>
<path d="M121.471 81.4072L114.336 73.899L114.387 73.2787L116.493 71.1659C117.427 70.261 117.451 68.7712 116.547 67.8374L116.459 67.7469C115.554 66.8131 114.064 66.7895 113.131 67.6931L110.687 70.059L111.196 69.5659L112.101 68.6898L112.388 68.4118C113.294 67.5344 113.318 66.0866 112.439 65.1803L112.256 64.9915C111.378 64.0852 109.931 64.0616 109.024 64.9403L107.356 66.5561L109.781 64.2085C110.707 63.3128 110.731 61.8348 109.833 60.9102L109.717 60.7895C108.821 59.8636 107.343 59.84 106.418 60.7371L104.838 62.2675C105.757 61.3771 105.781 59.9095 104.891 58.9889L104.754 58.8472C103.864 57.9279 102.395 57.9043 101.475 58.7948L100.696 59.5489L88.7581 46.9849C89.0531 44.8498 88.404 42.6072 86.7882 40.939L86.0367 40.1639C83.2472 37.2839 78.6518 37.2105 75.7718 40C72.8918 42.7895 72.8184 47.3849 75.6079 50.2649L76.3594 51.04C77.8059 52.5325 79.7364 53.2643 81.663 53.242L91.5659 63.6013L91.4623 63.701L91.4545 63.7285C91.3692 63.8177 91.2879 63.9095 91.2066 64H91.2026C91.1581 64.0472 91.1161 64.0984 91.0715 64.1495C91.0112 64.219 90.9495 64.2885 90.8905 64.358C90.8092 64.4538 90.7305 64.5508 90.6518 64.6479C90.5954 64.7174 90.539 64.7869 90.484 64.859C90.404 64.9613 90.3279 65.0649 90.2518 65.1698C90.202 65.238 90.1508 65.3062 90.101 65.3757C90.0197 65.4911 89.941 65.6079 89.8623 65.7246C89.8217 65.7849 89.7797 65.8439 89.7404 65.9056C89.6328 66.0708 89.5292 66.2387 89.4295 66.4079C89.4217 66.421 89.4125 66.4354 89.4046 66.4485C89.2971 66.6321 89.1935 66.8184 89.0938 67.0059C89.0623 67.0649 89.0335 67.1252 89.002 67.1856C88.9351 67.3154 88.8695 67.4453 88.8066 67.5764C88.7712 67.6512 88.7384 67.7259 88.703 67.802C88.6492 67.92 88.5954 68.0394 88.5443 68.1587C88.5089 68.24 88.4761 68.3226 88.4433 68.4053C88.3961 68.5207 88.3502 68.6361 88.3069 68.7541C88.2754 68.8393 88.244 68.9246 88.2138 69.0098C88.1718 69.1266 88.1325 69.2433 88.0944 69.36C88.0656 69.4466 88.0381 69.5344 88.0118 69.621C87.9751 69.739 87.941 69.8571 87.9082 69.9764C87.8833 70.0643 87.8597 70.1521 87.8361 70.24C87.8046 70.3607 87.7758 70.4826 87.7469 70.6046C87.7272 70.6912 87.7063 70.7777 87.6866 70.8656C87.659 70.9928 87.6354 71.1213 87.6105 71.2498C87.5948 71.3325 87.5777 71.4151 87.5646 71.4977C87.5397 71.6407 87.52 71.7836 87.499 71.9279C87.4899 71.9974 87.4781 72.0669 87.4689 72.1364C87.4413 72.3502 87.419 72.5653 87.4007 72.7803L86.5613 82.9548L83.9476 84.998L83.5122 84.4734L81.2394 86.3593L80.0577 84.5849L22.2623 123.091C21.3036 137.3 37.0623 146.434 48.9141 138.538L95.3784 107.582L93.301 104.464L97.3312 101.119L95.5253 98.9443L95.1843 98.3357L103.532 88.7266L109.798 82.6728L114.518 87.6105L121.47 81.4085L121.471 81.4072Z" fill="#3F81EB"/>
<path d="M95.2604 58.3882L86.0171 67.0177L88.063 60.2977L90.3659 58.0669C91.6551 56.8184 93.7076 56.8354 94.9758 58.1036L95.2591 58.3869L95.2604 58.3882Z" fill="#D9E8FF"/>
<path d="M107.258 74.2282L99.7994 85.5882L82.8958 82.779L84 69.3784C84.2977 65.7744 85.8925 62.4 88.4905 59.8833L90.0787 58.3449L107.256 74.2282H107.258Z" fill="#D9E8FF"/>
<path d="M111.12 84.497C111.044 84.497 110.968 84.4669 110.912 84.4079L73.3889 45.1554C73.28 45.0426 73.2827 44.863 73.3928 44.7515L80.063 38.0197C80.1181 37.9646 80.1968 37.941 80.2715 37.9344C80.3502 37.9344 80.425 37.9672 80.4787 38.0249L118.283 77.8085C118.337 77.8649 118.366 77.941 118.362 78.0197C118.359 78.0984 118.324 78.1718 118.265 78.223L111.313 84.4249C111.258 84.4734 111.19 84.4984 111.12 84.4984V84.497ZM74.0014 44.9587L111.136 83.8059L117.656 77.9895L80.2623 38.6387L74 44.96L74.0014 44.9587Z" fill="#3F81EB"/>
<path d="M83.2262 47.8007C80.3462 50.5902 75.7508 50.5167 72.9613 47.6367L72.2098 46.8616C69.4203 43.9816 69.4938 39.3862 72.3738 36.5967C75.2538 33.8072 79.8492 33.8807 82.6387 36.7607L83.3902 37.5357C86.1797 40.4157 86.1062 45.0111 83.2262 47.8007Z" fill="#D9E8FF"/>
<path d="M78.1796 50.1351C78.1377 50.1351 78.097 50.1351 78.0551 50.1351C76.0393 50.1023 74.156 49.2879 72.7541 47.8387L72.0039 47.0636C70.6006 45.6157 69.8465 43.7075 69.8793 41.6918C69.9121 39.6761 70.7265 37.7928 72.1757 36.3908C73.6236 34.9875 75.541 34.2374 77.5475 34.2662C79.5633 34.299 81.4465 35.1134 82.8485 36.5626L83.5987 37.3377C85.0019 38.7856 85.756 40.6938 85.7233 42.7095C85.6905 44.7252 84.876 46.6085 83.4269 48.0105C82.0078 49.3849 80.1482 50.1364 78.1783 50.1364L78.1796 50.1351ZM77.4229 34.842C75.6039 34.842 73.8872 35.5371 72.577 36.8053C71.2393 38.101 70.4865 39.8387 70.4564 41.6997C70.4262 43.5607 71.1239 45.3233 72.4183 46.6597L73.1685 47.4348C74.4642 48.7725 76.2019 49.5252 78.0629 49.5554C79.9278 49.5869 81.6865 48.8879 83.0229 47.5934C84.3606 46.2977 85.1134 44.56 85.1436 42.699C85.1737 40.838 84.476 39.0754 83.1816 37.739L82.4314 36.9639C81.1357 35.6262 79.398 34.8734 77.537 34.8433C77.499 34.8433 77.461 34.8433 77.4216 34.8433L77.4229 34.842Z" fill="#3F81EB"/>
<path d="M87.5695 65.5746L98.0798 55.3965C98.9993 54.506 100.468 54.5296 101.358 55.4491L101.495 55.5904C102.386 56.5099 102.362 57.9787 101.443 58.8691L90.9324 69.0472L87.5695 65.5746Z" fill="#D9E8FF"/>
<path d="M91.9596 68.0528L103.022 57.34C103.947 56.4441 105.425 56.4679 106.321 57.393L106.438 57.5136C107.334 58.4388 107.31 59.9168 106.385 60.8127L95.3225 71.5254L91.9596 68.0528Z" fill="#D9E8FF"/>
<path d="M98.8469 74.8392L109.732 64.298C110.665 63.3948 112.157 63.4178 113.061 64.3514L113.149 64.4419C114.052 65.3746 114.029 66.8665 113.095 67.7707L102.21 78.3119L98.8469 74.8392Z" fill="#D9E8FF"/>
<path d="M108.546 77.1974L99.8911 85.5174L96.5115 82.0289L111.146 67.9174L110.775 72.4774C110.629 74.2702 109.836 75.9475 108.544 77.1987L108.546 77.1974Z" fill="#D9E8FF"/>
<path d="M108.858 61.5908L109.041 61.7797C109.919 62.6859 109.768 64.257 108.703 65.2892L98.0695 75.5882L94.7069 72.1154L105.34 61.8164C106.405 60.7843 107.98 60.6833 108.859 61.5895L108.858 61.5908Z" fill="#D9E8FF"/>
<path d="M102.651 64.7108C102.574 64.7108 102.5 64.682 102.443 64.623C102.332 64.5075 102.336 64.3252 102.45 64.2138L106.182 60.5993C106.992 59.8151 107.012 58.5193 106.228 57.7089L106.112 57.5882C105.327 56.779 104.032 56.758 103.221 57.5423L98.981 61.6485C98.8656 61.76 98.6833 61.7574 98.5718 61.642C98.4604 61.5266 98.4643 61.3443 98.5784 61.2328L102.818 57.1266C103.857 56.1207 105.52 56.1469 106.526 57.1856L106.643 57.3062C107.649 58.3449 107.622 60.0079 106.584 61.0138L102.851 64.6282C102.795 64.682 102.723 64.7095 102.651 64.7095V64.7108Z" fill="#3F81EB"/>
<path d="M105.466 68.7134C105.39 68.7134 105.315 68.6846 105.259 68.6256C105.148 68.5102 105.151 68.3279 105.266 68.2164L108.788 64.8039C109.171 64.4328 109.388 63.9344 109.395 63.402C109.405 62.8695 109.204 62.3646 108.834 61.9816L108.651 61.7928C108.279 61.4098 107.782 61.1948 107.249 61.1856C106.719 61.1764 106.211 61.377 105.828 61.7482L102.428 65.0413C102.312 65.1528 102.13 65.1502 102.018 65.0348C101.907 64.9193 101.911 64.737 102.025 64.6256L105.426 61.3325C105.92 60.8538 106.568 60.5928 107.258 60.6072C107.945 60.6177 108.588 60.8957 109.066 61.3902L109.25 61.579C110.237 62.5993 110.211 64.2321 109.192 65.2197L105.67 68.6321C105.613 68.6859 105.541 68.7134 105.469 68.7134H105.466Z" fill="#3F81EB"/>
<path d="M100.498 84.6098L89.0675 98.0616L75.6931 85.3915L83.162 79.5528L100.498 84.6098Z" fill="#D9E8FF"/>
<path d="M92.1259 95.5423L89.0675 98.0616L75.6931 85.3915L83.162 79.5528L92.1259 95.5423Z" fill="#3F81EB"/>
<path d="M88.5377 64.922C88.4616 64.922 88.3869 64.8931 88.3305 64.8341C88.219 64.7187 88.223 64.5364 88.3371 64.4249L97.878 55.1856C98.3777 54.7003 99.0334 54.4341 99.7338 54.4511C100.43 54.4616 101.081 54.7436 101.565 55.2446L101.701 55.3862C102.186 55.8872 102.446 56.5456 102.435 57.242C102.424 57.9384 102.143 58.5889 101.642 59.0741L98.2295 62.379C98.1141 62.4905 97.9318 62.4879 97.8203 62.3725C97.7089 62.257 97.7128 62.0748 97.8269 61.9633L101.239 58.6584C101.629 58.2807 101.848 57.7744 101.857 57.2328C101.866 56.6911 101.663 56.1784 101.285 55.7889L101.149 55.6472C100.771 55.2577 100.266 55.0387 99.7233 55.0295C99.1843 55.0256 98.6689 55.2236 98.2794 55.6013L88.7384 64.8407C88.682 64.8944 88.6098 64.922 88.5377 64.922Z" fill="#3F81EB"/>
<path d="M89.0675 98.3502C88.9941 98.3502 88.922 98.3213 88.8682 98.2715L75.4938 85.6013C75.4321 85.5436 75.3993 85.4623 75.4033 85.377C75.4072 85.2931 75.4479 85.2144 75.5147 85.1633L82.8839 79.402L83.7128 69.3534C83.9856 66.0446 85.3626 62.8643 87.5895 60.4013C87.697 60.2833 87.8793 60.2741 87.9974 60.3803C88.1154 60.4879 88.1246 60.6702 88.0184 60.7882C85.8767 63.158 84.5521 66.2164 84.2898 69.4007L83.4505 79.5751C83.4439 79.6551 83.4033 79.7298 83.3403 79.7797L76.1364 85.4125L89.0479 97.6433L99.9147 85.1344L108.345 76.9888C109.587 75.7862 110.348 74.1757 110.488 72.4525L110.699 69.8544C110.704 69.7862 110.734 69.722 110.783 69.6734L112.889 67.5607C113.289 67.1738 113.512 66.6584 113.521 66.1075C113.53 65.5567 113.323 65.0348 112.94 64.6387L112.852 64.5482C112.06 63.7298 110.75 63.7102 109.933 64.501L105.125 69.1567C105.01 69.2682 104.828 69.2656 104.716 69.1502C104.605 69.0348 104.609 68.8525 104.723 68.741L109.529 64.0852C110.037 63.5948 110.703 63.3233 111.41 63.3416C112.115 63.3534 112.775 63.638 113.266 64.1456L113.353 64.2361C113.844 64.7436 114.109 65.4111 114.097 66.1167C114.085 66.8223 113.801 67.482 113.293 67.9725L111.264 70.0066L111.061 72.4984C110.909 74.362 110.087 76.1036 108.744 77.4046L100.33 85.5318L89.2826 98.2505C89.2315 98.3095 89.1567 98.3462 89.078 98.3502C89.0728 98.3502 89.0688 98.3502 89.0636 98.3502H89.0675Z" fill="#3F81EB"/>
<path d="M80.1122 81.0717L69.7845 89.6459L83.6037 106.291L93.9313 97.717L80.1122 81.0717Z" fill="white"/>
<path d="M83.604 106.58C83.5214 106.58 83.4387 106.544 83.381 106.475L69.562 89.8295C69.5135 89.7705 69.4899 89.6944 69.4964 89.6184C69.503 89.5423 69.541 89.4715 69.6 89.4229L79.9279 80.8485C80.0512 80.7462 80.2335 80.7633 80.3358 80.8866L94.1548 97.5318C94.2571 97.6551 94.2401 97.8374 94.1168 97.9397L83.7889 106.514C83.7351 106.559 83.6696 106.581 83.604 106.581V106.58ZM70.1915 89.6826L83.642 105.883L93.5253 97.6787L80.0761 81.478L70.1928 89.6826H70.1915Z" fill="#3F81EB"/>
<path d="M91.9791 104.178L45.5148 135.134C33.663 143.031 17.903 133.898 18.863 119.688L76.6584 81.1816L91.9791 104.177V104.178Z" fill="white"/>
<path d="M36.0027 138.325C32.9929 138.325 29.9751 137.537 27.2407 135.953C21.444 132.594 18.1247 126.354 18.5758 119.671C18.5863 119.511 18.724 119.388 18.884 119.402C19.0427 119.412 19.1633 119.55 19.1528 119.71C18.7161 126.173 21.9266 132.205 27.5306 135.453C33.1345 138.7 39.9647 138.488 45.3548 134.896L91.5778 104.1L76.5771 81.5856L33.4033 110.35C33.2696 110.439 33.0912 110.403 33.002 110.27C32.9129 110.138 32.9496 109.958 33.082 109.869L76.4971 80.9443C76.5614 80.9023 76.6388 80.8866 76.7148 80.901C76.7896 80.9167 76.8565 80.96 76.8984 81.0243L92.2191 104.02C92.3083 104.152 92.2715 104.332 92.1391 104.421L45.6748 135.378C42.7306 137.34 39.3706 138.328 36.0014 138.328L36.0027 138.325Z" fill="#3F81EB"/>
<path d="M123.313 138.686C134.946 138.686 144.376 129.255 144.376 117.622C144.376 105.989 134.946 96.5587 123.313 96.5587C111.68 96.5587 102.249 105.989 102.249 117.622C102.249 129.255 111.68 138.686 123.313 138.686Z" fill="white"/>
<path d="M123.313 138.976C111.538 138.976 101.961 129.397 101.961 117.624C101.961 105.85 111.54 96.2715 123.313 96.2715C135.086 96.2715 144.666 105.85 144.666 117.624C144.666 129.397 135.087 138.976 123.313 138.976ZM123.313 96.8485C111.857 96.8485 102.539 106.168 102.539 117.622C102.539 129.077 111.858 138.396 123.313 138.396C134.767 138.396 144.088 129.077 144.088 117.622C144.088 106.168 134.769 96.8485 123.313 96.8485Z" fill="#3F81EB"/>
<path d="M133.706 117.596L118.046 108.555V126.637L133.706 117.596Z" fill="white"/>
<path d="M118.046 126.927C117.996 126.927 117.946 126.914 117.902 126.889C117.813 126.838 117.757 126.742 117.757 126.639V108.556C117.757 108.452 117.813 108.357 117.902 108.306C117.991 108.254 118.101 108.254 118.192 108.306L133.852 117.347C133.941 117.398 133.996 117.494 133.996 117.597C133.996 117.701 133.941 117.797 133.852 117.848L118.192 126.889C118.147 126.915 118.097 126.927 118.047 126.927H118.046ZM118.336 109.056V126.136L133.129 117.596L118.336 109.056Z" fill="#3F81EB"/>
<path d="M196.708 224.98C220.489 224.98 239.767 205.739 239.767 182.004C239.767 158.269 220.489 139.028 196.708 139.028C172.928 139.028 153.65 158.269 153.65 182.004C153.65 205.739 172.928 224.98 196.708 224.98Z" fill="#3F81EB"/>
<path d="M190.536 222.022C214.317 222.022 233.595 202.781 233.595 179.047C233.595 155.312 214.317 136.071 190.536 136.071C166.756 136.071 147.478 155.312 147.478 179.047C147.478 202.781 166.756 222.022 190.536 222.022Z" fill="white"/>
<path d="M190.593 222.312C173.558 222.312 157.371 212.231 150.472 195.566C146.055 184.896 146.063 173.145 150.492 162.48C154.93 151.794 163.273 143.477 173.986 139.06C196.076 129.95 221.474 140.479 230.599 162.529C235.016 173.199 235.009 184.95 230.58 195.614C226.142 206.3 217.798 214.618 207.086 219.035C201.692 221.259 196.096 222.313 190.592 222.313L190.593 222.312ZM190.481 136.359C185.049 136.359 179.531 137.398 174.207 139.593C163.638 143.951 155.406 152.157 151.028 162.7C146.658 173.222 146.651 184.816 151.009 195.344C160.013 217.099 185.072 227.486 206.868 218.5C217.437 214.142 225.67 205.936 230.047 195.393C234.417 184.871 234.425 173.277 230.067 162.749C223.262 146.308 207.288 136.359 190.481 136.359Z" fill="#3F81EB"/>
<path d="M189.62 198.236C189.322 198.58 189.003 198.905 188.678 199.21C182.058 197.814 176.21 193.29 173.431 186.574C172.809 185.073 172.367 182.374 172.119 180.829C176.605 176.91 183.632 177.266 188.413 181.399C193.403 185.714 193.944 193.255 189.621 198.236H189.62Z" fill="#D9E8FF"/>
<path d="M179.592 203.541C176.594 203.541 173.592 202.497 171.17 200.4C168.571 198.16 167.003 195.044 166.755 191.624C166.508 188.203 167.611 184.893 169.86 182.3C170.054 182.084 170.27 181.844 170.496 181.629C175.235 176.888 182.93 176.61 188.008 180.999C190.603 183.243 192.167 186.362 192.412 189.782C192.657 193.203 191.554 196.511 189.306 199.102C188.994 199.46 188.654 199.811 188.295 200.147C185.836 202.405 182.716 203.538 179.592 203.538V203.541ZM179.596 178.46C176.434 178.46 173.279 179.663 170.901 182.043C170.687 182.248 170.479 182.48 170.294 182.685C168.15 185.155 167.096 188.316 167.333 191.583C167.569 194.847 169.066 197.823 171.548 199.962C176.27 204.051 183.301 203.95 187.902 199.725C188.245 199.403 188.571 199.066 188.87 198.724C191.015 196.25 192.068 193.091 191.835 189.826C191.6 186.56 190.108 183.582 187.629 181.439C185.325 179.447 182.458 178.462 179.596 178.462V178.46Z" fill="#3F81EB"/>
<path d="M205.751 194.808C203.849 194.382 202.008 193.495 200.429 192.125C195.33 187.715 194.778 180.01 199.195 174.921C202.674 170.917 208.199 169.711 212.872 171.551C215.562 180.135 212.577 189.348 205.751 194.808Z" fill="#D9E8FF"/>
<path d="M209.389 196.093C208.447 196.093 207.499 195.99 206.557 195.777C204.488 195.313 202.552 194.337 200.957 192.953C198.362 190.71 196.799 187.591 196.554 184.169C196.308 180.75 197.411 177.44 199.659 174.85C203.226 170.744 209.01 169.321 214.051 171.305C215.395 171.815 216.656 172.572 217.795 173.553C220.395 175.793 221.962 178.91 222.21 182.329C222.458 185.75 221.355 189.06 219.106 191.651C216.626 194.506 213.07 196.09 209.389 196.09V196.093ZM209.381 171.001C205.894 171.001 202.479 172.491 200.096 175.231C197.949 177.704 196.896 180.864 197.129 184.13C197.364 187.395 198.856 190.375 201.335 192.518C202.858 193.839 204.707 194.771 206.683 195.214C211.1 196.209 215.693 194.7 218.668 191.276C220.816 188.801 221.869 185.641 221.632 182.375C221.395 179.111 219.898 176.135 217.416 173.995C216.328 173.058 215.125 172.336 213.841 171.848C212.392 171.277 210.879 171.002 209.38 171.002L209.381 171.001Z" fill="#3F81EB"/>
<path d="M191.757 168.946C187.511 173.839 180.087 174.369 175.184 170.13C174.622 169.642 174.113 169.108 173.666 168.55C175.853 164.313 179.483 160.801 184.226 158.846C187.407 157.534 191.73 157.047 194.951 157.338C196.312 161.178 194.622 165.642 191.759 168.946H191.757Z" fill="#D9E8FF"/>
<path d="M182.708 173.037C179.723 173.037 176.725 172.009 174.298 169.91C173.694 169.386 173.136 168.805 172.636 168.181C168.795 163.365 168.942 156.476 172.984 151.801C177.634 146.451 185.774 145.868 191.132 150.5C192.831 151.974 194.113 153.85 194.838 155.929C196.376 160.268 195.456 165.129 192.434 168.614C189.895 171.538 186.312 173.037 182.708 173.037ZM174.675 169.471C179.794 173.896 187.563 173.342 191.997 168.233C194.881 164.905 195.761 160.264 194.292 156.119C193.6 154.135 192.375 152.344 190.753 150.935C185.638 146.511 177.862 147.069 173.42 152.178C169.561 156.643 169.42 163.221 173.089 167.819C173.566 168.414 174.101 168.97 174.677 169.471H174.675Z" fill="#3F81EB"/>
<path d="M222.34 69.7469L204.354 78.3082L203.723 71.6734L221.709 63.1121L222.34 69.7469Z" fill="#3F81EB"/>
<path d="M206.092 90.2387C205.945 90.2387 205.819 90.1272 205.805 89.9764L204.303 74.202C204.287 74.0433 204.404 73.9016 204.564 73.8872C204.725 73.8728 204.864 73.9895 204.879 74.1482L206.38 89.9226C206.396 90.0813 206.279 90.223 206.119 90.2374C206.11 90.2374 206.101 90.2374 206.092 90.2374V90.2387Z" fill="#3F81EB"/>
<path d="M222.841 82.48C222.694 82.48 222.568 82.3685 222.554 82.2177L221.052 66.4433C221.036 66.2846 221.153 66.143 221.313 66.1285C221.473 66.1128 221.613 66.2308 221.628 66.3895L223.129 82.1639C223.145 82.3226 223.028 82.4643 222.868 82.4787C222.859 82.4787 222.85 82.4787 222.841 82.4787V82.48Z" fill="#3F81EB"/>
<path d="M206.054 92.4596C207.257 90.9723 207.026 88.7914 205.539 87.5884C204.052 86.3853 201.871 86.6157 200.668 88.1029C199.465 89.5902 199.695 91.7711 201.183 92.9741C202.67 94.1771 204.851 93.9468 206.054 92.4596Z" fill="#3F81EB"/>
<path d="M220.699 85.526C222.552 85.1904 223.781 83.4167 223.445 81.5644C223.11 79.7121 221.336 78.4826 219.484 78.8182C217.631 79.1538 216.402 80.9275 216.738 82.7798C217.073 84.6321 218.847 85.8617 220.699 85.526Z" fill="#3F81EB"/>
<path d="M37.945 224.673L18.0591 225.828L19.9725 219.444L39.8584 218.289L37.945 224.673Z" fill="#3F81EB"/>
<path d="M15.2827 237.557C15.2551 237.557 15.2276 237.553 15.2 237.545C15.0466 237.499 14.96 237.338 15.0059 237.184L19.5568 222.007C19.6027 221.853 19.764 221.767 19.9174 221.812C20.0709 221.858 20.1574 222.02 20.1115 222.173L15.5607 237.351C15.5227 237.477 15.4086 237.557 15.284 237.557H15.2827Z" fill="#3F81EB"/>
<path d="M33.722 236.678C33.6945 236.678 33.6669 236.674 33.6394 236.666C33.4859 236.62 33.3994 236.459 33.4453 236.306L37.9961 221.128C38.042 220.974 38.2033 220.888 38.3568 220.934C38.5102 220.98 38.5968 221.141 38.5509 221.294L34 236.472C33.962 236.597 33.8479 236.678 33.7233 236.678H33.722Z" fill="#3F81EB"/>
<path d="M13.579 239.866C15.4197 239.345 16.4899 237.431 15.9694 235.59C15.4489 233.749 13.5347 232.679 11.694 233.2C9.85328 233.72 8.78305 235.634 9.30357 237.475C9.82409 239.316 11.7383 240.386 13.579 239.866Z" fill="#3F81EB"/>
<path d="M31.2539 238.754C33.1358 238.708 34.6244 237.146 34.5788 235.264C34.5331 233.382 32.9705 231.893 31.0886 231.939C29.2066 231.984 27.718 233.547 27.7637 235.429C27.8094 237.311 29.372 238.8 31.2539 238.754Z" fill="#3F81EB"/>
<path d="M178.779 120.008C178.757 120.008 178.735 120.005 178.712 120C178.557 119.963 178.462 119.807 178.498 119.651L182.989 100.825C183.026 100.669 183.183 100.574 183.338 100.611C183.493 100.648 183.588 100.804 183.552 100.96L179.061 119.786C179.03 119.919 178.91 120.008 178.78 120.008H178.779Z" fill="#3F81EB"/>
<path d="M178.916 121.753C180.284 120.126 180.074 117.697 178.447 116.328C176.819 114.96 174.39 115.17 173.021 116.797C171.653 118.425 171.863 120.854 173.49 122.222C175.118 123.591 177.547 123.381 178.916 121.753Z" fill="#3F81EB"/>
<path d="M183.458 100.7C186.749 104.157 188.123 107.419 188.282 111.641C186.544 106.025 184.876 104.119 183.103 101.647C183.047 101.567 183.392 100.63 183.458 100.699V100.7Z" fill="#3F81EB"/>
</g>
<defs>
<clipPath id="clip0_192_234">
<rect width="240.146" height="240" fill="white"/>
</clipPath>
</defs>
</svg>
