<svg width="40" height="40" viewBox="0 0 40 40" fill="none" xmlns="http://www.w3.org/2000/svg">
<path d="M38.8281 10.0416H1.17188C0.524687 10.0416 0 10.5663 0 11.2135V38.8281C0 39.4753 0.524687 40 1.17188 40H38.8281C39.4753 40 40 39.4753 40 38.8281V11.2135C40 10.5663 39.4753 10.0416 38.8281 10.0416Z" fill="#E6293F"/>
<path d="M38.828 10.0416H20V40H38.828C39.4752 40 39.9999 39.4753 39.9999 38.8281V11.2135C39.9999 10.5663 39.4752 10.0416 38.828 10.0416Z" fill="#E6293F"/>
<path d="M26.6122 24.0459L17.1981 17.7698C17.0216 17.6521 16.8165 17.5846 16.6047 17.5744C16.3928 17.5642 16.1822 17.6116 15.9952 17.7117C15.8082 17.8118 15.6518 17.9608 15.5428 18.1427C15.4338 18.3246 15.3762 18.5328 15.3762 18.7448V31.297C15.3763 31.6077 15.4998 31.9057 15.7195 32.1255C15.9392 32.3453 16.2372 32.4687 16.548 32.4688C16.7754 32.4688 17.0021 32.4027 17.1981 32.272L26.6122 25.9959C26.7727 25.8889 26.9043 25.744 26.9954 25.5739C27.0864 25.4038 27.1341 25.2138 27.1341 25.0209C27.1341 24.828 27.0864 24.638 26.9954 24.4679C26.9043 24.2978 26.7727 24.1529 26.6122 24.0459Z" fill="white" fill-opacity="0.71"/>
<path d="M4.9375 7.36469H35.0625C35.7097 7.36469 36.2344 6.84 36.2344 6.19281C36.2344 5.54562 35.7097 5.02094 35.0625 5.02094H4.9375C4.29031 5.02094 3.76562 5.54562 3.76562 6.19281C3.76562 6.84 4.29031 7.36469 4.9375 7.36469ZM8.70305 2.34375H31.2968C31.944 2.34375 32.4687 1.81906 32.4687 1.17188C32.4687 0.524687 31.944 0 31.2968 0H8.70305C8.05586 0 7.53117 0.524687 7.53117 1.17188C7.53117 1.81906 8.05586 2.34375 8.70305 2.34375Z" fill="#E6293F"/>
<path d="M26.6122 24.0459L20 19.6377V30.4041L26.6122 25.9959C26.7727 25.889 26.9044 25.744 26.9954 25.5739C27.0865 25.4038 27.1341 25.2138 27.1341 25.0209C27.1341 24.828 27.0865 24.638 26.9954 24.4679C26.9044 24.2978 26.7727 24.1529 26.6122 24.0459Z" fill="white"/>
<path d="M36.2344 6.19281C36.2344 5.54562 35.7097 5.02094 35.0625 5.02094H20V7.36469H35.0625C35.7097 7.36469 36.2344 6.84 36.2344 6.19281ZM32.4687 1.17188C32.4687 0.524687 31.944 0 31.2968 0H20V2.34375H31.2968C31.944 2.34375 32.4687 1.81906 32.4687 1.17188Z" fill="#FFACB6" fill-opacity="0.2"/>
</svg>
