<svg width="26" height="26" viewBox="0 0 26 26" fill="none" xmlns="http://www.w3.org/2000/svg">
<g clip-path="url(#clip0_71_1049)">
<path d="M22.2153 22.1924C27.2922 17.1156 27.2922 8.88441 22.2153 3.8076C17.1385 -1.26922 8.90739 -1.26922 3.83057 3.8076C-1.24624 8.88441 -1.24624 17.1156 3.83057 22.1924C8.90739 27.2692 17.1385 27.2692 22.2153 22.1924Z" fill="white" fill-opacity="0.35"/>
<path fill-rule="evenodd" clip-rule="evenodd" d="M19.4772 11.8436L10.6996 6.77616C10.4967 6.65909 10.2665 6.59749 10.0322 6.59752C9.79786 6.59755 9.56769 6.65922 9.36476 6.77634C9.16183 6.89345 8.99329 7.0619 8.87604 7.26475C8.7588 7.46761 8.69698 7.69774 8.6968 7.93204V18.068C8.69545 18.3026 8.75653 18.5333 8.87379 18.7365C8.99106 18.9397 9.16027 19.1081 9.36406 19.2243C9.5667 19.3427 9.79716 19.405 10.0318 19.405C10.2665 19.405 10.497 19.3427 10.6996 19.2243L19.4772 14.1563C19.68 14.039 19.8485 13.8705 19.9656 13.6675C20.0827 13.4645 20.1444 13.2343 20.1444 13C20.1444 12.7657 20.0827 12.5355 19.9656 12.3325C19.8485 12.1296 19.68 11.961 19.4772 11.8437V11.8436Z" fill="white"/>
</g>
<defs>
<clipPath id="clip0_71_1049">
<rect width="26" height="26" fill="white"/>
</clipPath>
</defs>
</svg>
