<svg width="26" height="26" viewBox="0 0 26 26" fill="none" xmlns="http://www.w3.org/2000/svg">
<g clip-path="url(#clip0_71_1035)">
<path d="M22.2153 22.1924C27.2922 17.1156 27.2922 8.88441 22.2153 3.8076C17.1385 -1.26922 8.90739 -1.26922 3.83057 3.8076C-1.24624 8.88441 -1.24624 17.1156 3.83057 22.1924C8.90739 27.2692 17.1385 27.2692 22.2153 22.1924Z" fill="white" fill-opacity="0.35"/>
<path d="M11.4375 8.3125C11.4375 7.44956 10.7379 6.75 9.875 6.75C9.01206 6.75 8.3125 7.44956 8.3125 8.3125V17.6875C8.3125 18.5504 9.01206 19.25 9.875 19.25C10.7379 19.25 11.4375 18.5504 11.4375 17.6875V8.3125Z" fill="white"/>
<path d="M17.6875 8.3125C17.6875 7.44956 16.9879 6.75 16.125 6.75C15.2621 6.75 14.5625 7.44956 14.5625 8.3125V17.6875C14.5625 18.5504 15.2621 19.25 16.125 19.25C16.9879 19.25 17.6875 18.5504 17.6875 17.6875V8.3125Z" fill="white"/>
</g>
<defs>
<clipPath id="clip0_71_1035">
<rect width="26" height="26" fill="white"/>
</clipPath>
</defs>
</svg>
