<svg width="40" height="40" viewBox="0 0 40 40" fill="none" xmlns="http://www.w3.org/2000/svg">
<rect width="40" height="40" rx="11.4286" fill="#297AFC" fill-opacity="0.05"/>
<path d="M20.0251 11.3004C22.3742 12.0783 24.7854 12.9944 26.8472 13.794C26.9904 14.7324 27.1869 16.342 27.2246 18.2877C27.2578 20.504 27.0745 21.7266 26.9932 22.1528C26.8232 22.7398 26.4662 23.3777 25.9323 24.0485C25.2992 24.8432 24.4372 25.6696 23.3703 26.504C23.3695 26.5044 23.3687 26.5052 23.3683 26.5056C21.852 27.6958 20.4481 28.463 20.0251 28.6839C19.6021 28.4634 18.1998 27.6978 16.6843 26.5084L16.6823 26.5068C15.6158 25.6728 14.7542 24.8468 14.1223 24.0525C13.6152 23.415 13.2679 22.8067 13.0886 22.2444C13.0838 22.2256 13.0786 22.2068 13.0726 22.1876C12.9925 21.9166 12.7352 20.8253 12.774 18.1392C12.8165 16.428 12.9733 14.8993 13.2182 13.7835C15.2736 12.9876 17.6776 12.0755 20.0251 11.3M20.0251 9.75882C19.9046 9.75882 19.7838 9.77803 19.6665 9.81685C17.365 10.5732 15.0043 11.4604 12.6036 12.3905C12.2806 12.5157 12.0097 12.7475 11.8336 13.0292C11.8472 13.0308 11.3401 14.6135 11.2537 18.1092C11.2025 21.6053 11.6379 22.6526 11.6235 22.6538C11.8592 23.4222 12.3002 24.2037 12.9321 24.9985C13.6384 25.8861 14.5929 26.803 15.7459 27.7042C17.6544 29.2021 19.4404 30.0974 19.5153 30.129C19.6769 30.2082 19.8486 30.2482 20.0255 30.2482H20.0259C20.2032 30.2482 20.3749 30.2078 20.5365 30.1282C20.6118 30.0966 22.3998 29.1985 24.3076 27.701C25.4609 26.799 26.4154 25.8821 27.1221 24.9949C27.7992 24.1437 28.257 23.3085 28.4784 22.4881C28.4695 22.4869 28.7897 21.2031 28.7453 18.2613C28.6889 15.3199 28.2791 13.1504 28.2847 13.1484C28.1142 12.8159 27.8152 12.5378 27.4495 12.3957C25.0483 11.4652 22.6872 10.5764 20.3853 9.81765C20.2672 9.77883 20.1464 9.75922 20.0255 9.75922L20.0251 9.75882Z" fill="#297AFC"/>
<path d="M20.0242 23.8852C19.5856 23.8852 19.1734 23.7147 18.8637 23.4046C18.5535 23.0944 18.3827 22.6822 18.3827 22.244V20.9622C17.7119 20.46 17.3109 19.6732 17.3105 18.8132C17.3105 17.3305 18.5167 16.1239 19.9994 16.1235C20.7178 16.1235 21.3933 16.4032 21.9011 16.9111C22.409 17.4189 22.6891 18.0944 22.6891 18.8128C22.6891 19.6464 22.3061 20.42 21.6654 20.9246V22.244C21.6654 22.6826 21.4949 23.0948 21.1848 23.4046C20.8747 23.7147 20.4625 23.8852 20.0242 23.8856V23.8852ZM19.9998 17.6438C19.3555 17.6438 18.8313 18.1681 18.8313 18.8124C18.8313 19.259 19.0802 19.6604 19.4812 19.8597C19.7397 19.9882 19.903 20.2519 19.903 20.5404V22.2436C19.9031 22.2757 19.9159 22.3063 19.9385 22.329C19.9611 22.3516 19.9918 22.3644 20.0238 22.3645C20.0651 22.3645 20.0931 22.3453 20.1091 22.3293C20.1251 22.3133 20.1443 22.2853 20.1443 22.244V20.5164C20.1443 20.2355 20.2992 19.9774 20.5473 19.8453C20.9303 19.6412 21.1684 19.2458 21.168 18.8128C21.168 18.5006 21.0463 18.2073 20.8258 17.9864C20.6049 17.7659 20.3116 17.6442 19.9994 17.6442L19.9998 17.6438Z" fill="#297AFC"/>
</svg>
