<svg width="20" height="20" viewBox="0 0 20 20" fill="none" xmlns="http://www.w3.org/2000/svg">
<g clip-path="url(#clip0_4_891)">
<path d="M19.4621 8.01437C19.6142 7.66388 19.6328 7.2699 19.5146 6.90661C19.3963 6.54332 19.1494 6.2358 18.8201 6.04194L17.0338 4.98129C17.0126 4.96989 16.9941 4.954 16.9796 4.93472C16.9651 4.91543 16.955 4.89322 16.9501 4.86964L16.4849 2.83208C16.4004 2.46071 16.1841 2.13256 15.8762 1.90845C15.5682 1.68434 15.1895 1.57946 14.8102 1.61326L12.7354 1.79934C12.7123 1.8048 12.6882 1.80424 12.6654 1.79773C12.6426 1.79121 12.6218 1.77895 12.6051 1.76212L11.0327 0.385142C10.7456 0.137608 10.3791 0.00144196 10 0.00144196C9.62091 0.00144196 9.25441 0.137608 8.96727 0.385142L7.39491 1.76212C7.37819 1.77895 7.35744 1.79121 7.33464 1.79773C7.31183 1.80424 7.28774 1.8048 7.26465 1.79934L5.18987 1.61326C4.80967 1.57779 4.4296 1.68248 4.12118 1.90763C3.81276 2.13277 3.59724 2.46287 3.51516 2.8358L3.04997 4.87336C3.04498 4.89695 3.0349 4.91915 3.02043 4.93844C3.00597 4.95772 2.98747 4.97362 2.96623 4.98501L1.17988 6.04194C0.850667 6.2358 0.60369 6.54332 0.48545 6.90661C0.36721 7.2699 0.385865 7.66388 0.537903 8.01437L1.36595 9.93099C1.38406 9.97574 1.38406 10.0258 1.36595 10.0705L0.537903 11.9872C0.386623 12.3363 0.368399 12.7288 0.486671 13.0904C0.604943 13.4521 0.851528 13.758 1.17988 13.9503L2.97554 15.024C3.01337 15.0506 3.03991 15.0904 3.04997 15.1356L3.51516 17.1732C3.59802 17.5454 3.81387 17.8746 4.12221 18.099C4.43055 18.3234 4.81019 18.4276 5.18987 18.392L7.26465 18.1966C7.28839 18.195 7.3122 18.1984 7.3346 18.2064C7.35701 18.2144 7.37753 18.2269 7.39491 18.2431L8.96727 19.6201C9.25509 19.8662 9.62133 20.0014 10 20.0014C10.3787 20.0014 10.7449 19.8662 11.0327 19.6201L12.6051 18.2431C12.6225 18.2269 12.643 18.2144 12.6654 18.2064C12.6878 18.1984 12.7116 18.195 12.7354 18.1966L14.8102 18.392C15.1898 18.4276 15.5695 18.3234 15.8778 18.099C16.1862 17.8746 16.402 17.5454 16.4849 17.1732L16.9501 15.1356C16.955 15.112 16.9651 15.0898 16.9796 15.0705C16.9941 15.0513 17.0126 15.0354 17.0338 15.024L18.8201 13.954C19.1485 13.7617 19.3951 13.4558 19.5134 13.0942C19.6316 12.7325 19.6134 12.34 19.4621 11.9909L18.6341 10.0743C18.616 10.0295 18.616 9.97947 18.6341 9.93471L19.4621 8.01437ZM14.1775 8.12602L9.56273 12.8524C9.42743 12.9821 9.24774 13.0554 9.06031 13.0571C8.91346 13.0585 8.77001 13.0128 8.65094 12.9269L5.91558 10.973C5.76506 10.8645 5.66384 10.7005 5.63417 10.5173C5.60451 10.3341 5.64884 10.1466 5.75741 9.99611C5.86599 9.84559 6.02991 9.74437 6.21311 9.7147C6.39632 9.68504 6.58381 9.72937 6.73433 9.83795L8.97658 11.4475L13.182 7.14911C13.2458 7.08323 13.3221 7.03069 13.4064 6.99452C13.4907 6.95836 13.5814 6.93929 13.6731 6.93843C13.7649 6.93756 13.8559 6.95491 13.9408 6.98948C14.0258 7.02405 14.1031 7.07515 14.1682 7.1398C14.2992 7.26989 14.3736 7.44638 14.3754 7.631C14.3771 7.81562 14.306 7.99349 14.1775 8.12602Z" fill="#3D57F9"/>
</g>
<defs>
<clipPath id="clip0_4_891">
<rect width="20" height="20" fill="white"/>
</clipPath>
</defs>
</svg>
