<svg width="40" height="40" viewBox="0 0 40 40" fill="none" xmlns="http://www.w3.org/2000/svg">
<rect width="40" height="40" rx="11.4286" fill="#297AFC" fill-opacity="0.05"/>
<path d="M19.2445 12.174C19.476 11.5081 19.5917 11.1751 19.7629 11.0829C19.911 11.003 20.0893 11.003 20.2375 11.0829C20.4086 11.1751 20.5243 11.5081 20.7558 12.174L22.2861 16.5764C22.352 16.7659 22.3849 16.8607 22.4443 16.9313C22.4967 16.9936 22.5636 17.0422 22.6391 17.0728C22.7245 17.1074 22.8248 17.1095 23.0254 17.1136L27.6852 17.2085C28.3901 17.2229 28.7425 17.2301 28.8832 17.3643C29.0049 17.4805 29.06 17.6501 29.0298 17.8157C28.995 18.007 28.7141 18.2199 28.1523 18.6459L24.4382 21.4616C24.2783 21.5829 24.1984 21.6435 24.1496 21.7217C24.1065 21.7909 24.081 21.8695 24.0752 21.9507C24.0687 22.0427 24.0977 22.1387 24.1558 22.3308L25.5055 26.7919C25.7096 27.4667 25.8117 27.8041 25.7275 27.9793C25.6546 28.131 25.5103 28.2358 25.3435 28.2583C25.1508 28.2842 24.8615 28.0829 24.2828 27.6802L20.4571 25.0181C20.2924 24.9035 20.2101 24.8462 20.1206 24.8239C20.0415 24.8043 19.9588 24.8043 19.8798 24.8239C19.7903 24.8462 19.7079 24.9035 19.5432 25.0181L15.7176 27.6802C15.1389 28.0829 14.8495 28.2842 14.6568 28.2583C14.4901 28.2358 14.3458 28.131 14.2729 27.9793C14.1887 27.8041 14.2907 27.4667 14.4949 26.7919L15.8445 22.3308C15.9026 22.1387 15.9317 22.0427 15.9252 21.9507C15.9194 21.8695 15.8938 21.7909 15.8507 21.7217C15.802 21.6435 15.722 21.5829 15.5621 21.4616L11.8481 18.6459C11.2863 18.2199 11.0054 18.007 10.9705 17.8157C10.9403 17.6501 10.9955 17.4805 11.1172 17.3643C11.2578 17.2301 11.6103 17.2229 12.3151 17.2085L16.9749 17.1136C17.1755 17.1095 17.2758 17.1074 17.3613 17.0728C17.4368 17.0422 17.5037 16.9936 17.5561 16.9313C17.6154 16.8607 17.6484 16.7659 17.7143 16.5764L19.2445 12.174Z" stroke="#297AFC" stroke-width="1.5" stroke-linecap="round" stroke-linejoin="round"/>
</svg>
