<svg width="35" height="35" viewBox="0 0 35 35" fill="none" xmlns="http://www.w3.org/2000/svg">
<circle cx="17.5" cy="17.5" r="17.5" fill="#3D57F9"/>
<path d="M25.6144 13.8789L25.0792 13.3438L21.6561 9.92063L21.121 9.3855C20.4723 8.7368 19.3413 8.81225 18.5993 9.5535L9.55414 18.601C8.81288 19.3423 8.73743 20.4732 9.38613 21.1227L13.8788 25.6153C14.5275 26.264 15.6584 26.1885 16.4004 25.4473L25.4471 16.4006C26.1884 15.6585 26.2638 14.5276 25.6144 13.8789ZM24.4687 15.6663L15.6662 24.4688C15.3963 24.7387 14.9856 24.7659 14.7491 24.5302L10.4704 20.2515C10.2339 20.0151 10.2612 19.6044 10.5318 19.3345L19.3343 10.532C19.6042 10.2621 20.0149 10.2349 20.2514 10.4705L20.4653 10.6844C20.7017 10.9209 20.6745 11.3316 20.4038 11.6015C20.1339 11.8714 20.1067 12.2821 20.3424 12.5185L22.4821 14.6583C22.7186 14.8947 23.1293 14.8675 23.3992 14.5968C23.6691 14.3269 24.0797 14.2997 24.3162 14.5354L24.5301 14.7493C24.7658 14.9857 24.7386 15.3964 24.4687 15.6663ZM18.9283 26.8341C18.7997 26.8342 18.6739 26.7962 18.5669 26.7248C18.4599 26.6534 18.3764 26.5519 18.3271 26.433C18.2778 26.3142 18.2649 26.1834 18.2899 26.0573C18.315 25.9311 18.3769 25.8152 18.4678 25.7242L20.319 23.873C20.3831 23.8083 20.4601 23.7579 20.545 23.725C20.6299 23.692 20.7207 23.6774 20.8117 23.6819C20.9026 23.6865 20.9915 23.7101 21.0727 23.7514C21.1539 23.7926 21.2254 23.8505 21.2827 23.9212L21.9688 24.7605C24.0665 23.6459 25.5117 21.4431 25.5319 18.9238C25.5332 18.7521 25.6022 18.5879 25.724 18.467C25.8458 18.3461 26.0105 18.2782 26.1822 18.2782H26.1876C26.3601 18.2796 26.525 18.3495 26.6461 18.4725C26.7671 18.5954 26.8344 18.7614 26.8332 18.9339C26.7998 23.2554 23.2553 26.7999 18.9338 26.8341H18.9283ZM16.0722 8.16667C16.2008 8.16656 16.3266 8.2046 16.4336 8.276C16.5406 8.34739 16.6241 8.44892 16.6734 8.56775C16.7227 8.68657 16.7356 8.81734 16.7106 8.94352C16.6855 9.0697 16.6236 9.18562 16.5327 9.2766L14.6815 11.1278C14.6171 11.1921 14.54 11.2423 14.4551 11.275C14.3702 11.3077 14.2794 11.3223 14.1885 11.3178C14.0976 11.3132 14.0087 11.2897 13.9275 11.2486C13.8463 11.2076 13.7746 11.15 13.717 11.0796L13.0309 10.2403C10.9332 11.3549 9.48802 13.5577 9.4678 16.077C9.46636 16.2487 9.39714 16.4129 9.2752 16.5338C9.15327 16.6547 8.98849 16.7226 8.81677 16.7226H8.81133C8.63893 16.7209 8.47423 16.651 8.35335 16.5281C8.23247 16.4051 8.16528 16.2393 8.16652 16.0669C8.20074 11.7454 11.7452 8.20089 16.0667 8.16667H16.0722Z" fill="white"/>
</svg>
