<svg width="34" height="34" viewBox="0 0 34 34" fill="none" xmlns="http://www.w3.org/2000/svg">
<rect x="0.305293" y="0.305293" width="33.3894" height="33.3894" rx="6.49471" stroke="#AAAAAA" stroke-width="0.610586"/>
<path d="M24.086 24.0833L22.6691 22.6667M16.647 23.375C17.5309 23.375 18.4061 23.2009 19.2227 22.8628C20.0393 22.5246 20.7812 22.0289 21.4062 21.4041C22.0312 20.7792 22.527 20.0374 22.8652 19.221C23.2035 18.4045 23.3775 17.5295 23.3775 16.6458C23.3775 15.7621 23.2035 14.8871 22.8652 14.0707C22.527 13.2543 22.0312 12.5124 21.4062 11.8876C20.7812 11.2627 20.0393 10.7671 19.2227 10.4289C18.4061 10.0907 17.5309 9.91666 16.647 9.91666C14.862 9.91666 13.15 10.6256 11.8878 11.8876C10.6256 13.1496 9.9165 14.8611 9.9165 16.6458C9.9165 18.4305 10.6256 20.1421 11.8878 21.4041C13.15 22.666 14.862 23.375 16.647 23.375V23.375Z" stroke="#AAAAAA" stroke-width="1.10814" stroke-linecap="round" stroke-linejoin="round"/>
</svg>
