<svg width="30" height="30" viewBox="0 0 30 30" fill="none" xmlns="http://www.w3.org/2000/svg">
<path fill-rule="evenodd" clip-rule="evenodd" d="M16.2082 2.5C17.2917 2.5 18.1944 3.33055 18.2844 4.41032L18.4383 6.25326C19.3208 6.59466 20.1388 7.06578 20.8688 7.64325L22.529 6.86097C23.5091 6.399 24.6797 6.76544 25.2215 7.70379L26.4295 9.79621C26.9713 10.7346 26.7033 11.9315 25.8132 12.5494L24.3256 13.5825C24.3957 14.0447 24.4321 14.5181 24.4321 15C24.4321 15.4819 24.3957 15.9553 24.3256 16.4175L25.8132 17.4506C26.7033 18.0685 26.9713 19.2654 26.4295 20.2038L25.2215 22.2962C24.6797 23.2346 23.5091 23.601 22.529 23.139L20.8688 22.3568C20.1391 22.934 19.3215 23.405 18.4393 23.7463L18.2844 25.5897C18.1944 26.6695 17.2917 27.5 16.2082 27.5H13.7921C12.7086 27.5 11.806 26.6695 11.716 25.5897L11.5581 23.7003C10.7038 23.3564 9.91182 22.8903 9.20378 22.3237L7.47134 23.139C6.49123 23.601 5.32064 23.2346 4.77888 22.2962L3.57083 20.2038C3.02907 19.2654 3.29702 18.0685 4.18714 17.4506L5.77791 16.3456C5.71475 15.9062 5.68206 15.4569 5.68206 15C5.68206 14.5427 5.7148 14.0931 5.77806 13.6534L4.18714 12.5494C3.29702 11.9315 3.02907 10.7346 3.57083 9.79621L4.77888 7.70379C5.32064 6.76544 6.49123 6.399 7.47134 6.86097L9.20378 7.67633C9.91182 7.10971 10.7038 6.64363 11.5581 6.29973L11.716 4.41032C11.806 3.33055 12.7086 2.5 13.7921 2.5H16.2082Z" stroke="#5E5F60" stroke-width="1.8"/>
<circle cx="15.057" cy="15" r="4.16667" stroke="#5E5F60" stroke-width="1.8"/>
</svg>
