<svg width="40" height="40" viewBox="0 0 40 40" fill="none" xmlns="http://www.w3.org/2000/svg">
<rect width="40" height="40" rx="11.4286" fill="#297AFC" fill-opacity="0.05"/>
<path d="M16.9995 20C16.9995 21.3807 15.8802 22.5 14.4995 22.5C13.1188 22.5 11.9995 21.3807 11.9995 20C11.9995 18.6193 13.1188 17.5 14.4995 17.5C15.8802 17.5 16.9995 18.6193 16.9995 20Z" stroke="#297AFC" stroke-width="1.5"/>
<path d="M22 14.5L17 18" stroke="#297AFC" stroke-width="1.5" stroke-linecap="round"/>
<path d="M22 25.5L17 22" stroke="#297AFC" stroke-width="1.5" stroke-linecap="round"/>
<path d="M27 26.5C27 27.8807 25.8807 29 24.5 29C23.1193 29 22 27.8807 22 26.5C22 25.1193 23.1193 24 24.5 24C25.8807 24 27 25.1193 27 26.5Z" stroke="#297AFC" stroke-width="1.5"/>
<path d="M27 13.5C27 14.8807 25.8807 16 24.5 16C23.1193 16 22 14.8807 22 13.5C22 12.1193 23.1193 11 24.5 11C25.8807 11 27 12.1193 27 13.5Z" stroke="#297AFC" stroke-width="1.5"/>
</svg>
