<svg width="39" height="37" viewBox="0 0 39 37" xmlns="http://www.w3.org/2000/svg">
    <defs>
        <linearGradient id="quarterGradient" x1="0%" y1="0%" x2="100%" y2="0%">
            <stop offset="25%" stop-color="#FFA800"/>
            <stop offset="25%" stop-color="white"/>
        </linearGradient>
    </defs>

    <path
        d="M13.0826 11.7654C13.0826 11.7654 5.84685 12.5691 1.01999 13.1064C0.58493 13.1592 0.200247 13.4508 0.0559911 13.894C-0.0882651 14.3371 0.0559908 14.7987 0.37656 15.0903C3.96236 18.3715 9.35021 23.2852 9.35021 23.2852C9.34563 23.2852 7.87101 30.4331 6.89099 35.2022C6.80855 35.6339 6.96426 36.0908 7.33978 36.364C7.71302 36.6373 8.19387 36.6419 8.57169 36.4283C12.794 34.022 19.1184 30.4032 19.1184 30.4032C19.1184 30.4032 25.4451 34.022 29.6606 36.4306C30.0452 36.6419 30.5261 36.6373 30.8993 36.364C31.2749 36.0908 31.4306 35.6339 31.3458 35.2045C30.3658 30.4331 28.8935 23.2852 28.8935 23.2852C28.8935 23.2852 34.2813 18.3715 37.8671 15.0972C38.1877 14.7964 38.3297 14.3348 38.1877 13.894C38.0457 13.4531 37.6611 13.1615 37.226 13.111C32.3991 12.5691 25.1611 11.7654 25.1611 11.7654C25.1611 11.7654 22.1615 5.11122 20.1626 0.675067C19.9748 0.277834 19.581 0 19.1184 0C18.6559 0 18.2597 0.28013 18.0811 0.675067C16.0799 5.11122 13.0826 11.7654 13.0826 11.7654Z"
        fill="url(#quarterGradient)"
    />
</svg>