<svg width="25" height="23" viewBox="0 0 25 23" fill="none" xmlns="http://www.w3.org/2000/svg">
<path d="M7.02637 0.544922C8.87025 0.341357 10.7227 0.84174 12.2109 1.94531L12.5078 2.16504L12.8057 1.94629C14.2183 0.905743 15.959 0.404587 17.7109 0.535156C19.4627 0.665793 21.109 1.41906 22.3506 2.65723C23.032 3.3361 23.5727 4.14229 23.9414 5.0293C24.3101 5.91627 24.5 6.86712 24.5 7.82715C24.5 8.7873 24.3101 9.73889 23.9414 10.626C23.5727 11.5129 23.0319 12.3192 22.3506 12.998L13.043 22.2773L13.041 22.2793C12.9716 22.349 12.889 22.4045 12.7979 22.4424C12.7064 22.4804 12.6079 22.5 12.5088 22.5C12.4097 22.5 12.3111 22.4804 12.2197 22.4424C12.1286 22.4045 12.046 22.349 11.9766 22.2793L11.9746 22.2773L2.66699 12.998L2.66602 12.9961L2.42578 12.7471C1.25633 11.4744 0.573811 9.82722 0.505859 8.0957C0.4334 6.24886 1.06565 4.44319 2.27539 3.04199C3.48517 1.64079 5.18253 0.748483 7.02637 0.544922Z" stroke="black"/>
</svg>
