<svg width="35" height="35" viewBox="0 0 35 35" fill="none" xmlns="http://www.w3.org/2000/svg">
    <circle cx="17.5" cy="17.5" r="17.5" fill="white" />
    <path
        d="M25.5068 19.5251C25.4339 19.4524 25.342 19.4019 25.2416 19.3794C25.1412 19.3568 25.0364 19.3632 24.9395 19.3977C23.637 19.8621 22.2294 19.9474 20.8803 19.6436C19.5312 19.3399 18.296 18.6595 17.3182 17.6817C16.3405 16.7038 15.6602 15.4686 15.3565 14.1195C15.0528 12.7704 15.1382 11.3628 15.6027 10.0603C15.6372 9.96337 15.6435 9.85863 15.6209 9.75824C15.5983 9.65784 15.5477 9.5659 15.475 9.49308C15.4023 9.42026 15.3105 9.36954 15.2101 9.3468C15.1098 9.32405 15.005 9.33022 14.908 9.36458C13.7337 9.77926 12.668 10.4534 11.7903 11.3369C10.2168 12.9116 9.33308 15.0467 9.3335 17.2729C9.33392 19.499 10.2184 21.6338 11.7925 23.2079C13.3666 24.782 15.5014 25.6665 17.7275 25.6669C19.9536 25.6673 22.0888 24.7836 23.6635 23.2101C24.547 22.3322 25.2212 21.2663 25.6358 20.0918C25.67 19.9948 25.6761 19.8901 25.6532 19.7898C25.6304 19.6895 25.5796 19.5977 25.5068 19.5251Z"
        fill="#3D57F9" />
</svg>
