<svg width="45" height="45" viewBox="0 0 45 45" fill="none" xmlns="http://www.w3.org/2000/svg">
<circle cx="22.5" cy="22.5" r="22.5" fill="#3D57F9"/>
<path d="M29.7368 19.8348H28.4331V18.1586C28.4331 14.9237 25.704 12.292 22.3492 12.292C18.9945 12.292 16.2654 14.9237 16.2654 18.1586V19.8348H14.9617C14.9046 19.8347 14.8481 19.8456 14.7953 19.8666C14.7426 19.8877 14.6947 19.9185 14.6543 19.9574C14.6139 19.9964 14.5819 20.0426 14.5601 20.0934C14.5383 20.1443 14.5271 20.1988 14.5271 20.2538V30.7299C14.5271 31.6544 15.3067 32.4061 16.2654 32.4061H28.4332C29.3918 32.4061 30.1714 31.6544 30.1714 30.7299V20.2538C30.1714 20.1988 30.1602 20.1443 30.1384 20.0934C30.1166 20.0426 30.0846 19.9964 30.0442 19.9574C30.0038 19.9185 29.9559 19.8877 29.9032 19.8666C29.8504 19.8456 29.7939 19.8347 29.7368 19.8348ZM23.6504 28.5885C23.6571 28.647 23.651 28.7063 23.6323 28.7624C23.6137 28.8186 23.583 28.8703 23.5422 28.9142C23.5014 28.9581 23.4515 28.9932 23.3957 29.0173C23.3399 29.0413 23.2795 29.0537 23.2184 29.0538H21.4801C21.419 29.0537 21.3586 29.0413 21.3028 29.0173C21.247 28.9932 21.1971 28.9581 21.1563 28.9142C21.1156 28.8703 21.0848 28.8186 21.0662 28.7624C21.0476 28.7063 21.0414 28.647 21.0481 28.5885L21.3223 26.2113C20.8771 25.8991 20.611 25.4051 20.611 24.8633C20.611 23.9389 21.3906 23.1871 22.3493 23.1871C23.308 23.1871 24.0876 23.9388 24.0876 24.8633C24.0876 25.4051 23.8215 25.8991 23.3763 26.2113L23.6504 28.5885ZM25.8257 19.8348H18.8728V18.1586C18.8728 16.3101 20.4323 14.8063 22.3492 14.8063C24.2662 14.8063 25.8257 16.3101 25.8257 18.1586V19.8348Z" fill="white"/>
</svg>
