<svg width="35" height="35" viewBox="0 0 35 35" fill="none" xmlns="http://www.w3.org/2000/svg">
<circle cx="17.5" cy="17.5" r="17.5" fill="#3D57F9"/>
<path d="M26.3332 18.7639V20.2778C26.3332 21.9431 24.9707 23.3056 23.3054 23.3056H10.7401L12.4811 25.0465C12.7839 25.3493 12.7839 25.8035 12.4811 26.1063C12.1783 26.409 11.7241 26.409 11.4214 26.1063L8.39359 23.0785C8.09081 22.7757 8.09081 22.3215 8.39359 22.0187L11.4214 18.991C11.7241 18.6882 12.1783 18.6882 12.4811 18.991C12.7839 19.2937 12.7839 19.7479 12.4811 20.0507L10.7401 21.7917H23.3054C24.1381 21.7917 24.8193 21.1104 24.8193 20.2778V18.7639C24.8193 18.3097 25.1221 18.0069 25.5762 18.0069C26.0304 18.0069 26.3332 18.3097 26.3332 18.7639ZM8.92345 16.493C9.37762 16.493 9.68039 16.1903 9.68039 15.7361V14.2222C9.68039 13.3896 10.3616 12.7083 11.1943 12.7083H23.7596L22.0186 14.4493C21.7158 14.7521 21.7158 15.2062 22.0186 15.509C22.3214 15.8118 22.7755 15.8118 23.0783 15.509L26.1061 12.4812C26.4089 12.1785 26.4089 11.7243 26.1061 11.4215L23.0783 8.39373C22.7755 8.09095 22.3214 8.09095 22.0186 8.39373C21.7158 8.69651 21.7158 9.15068 22.0186 9.45346L23.7596 11.1944H11.1943C9.52901 11.1944 8.1665 12.5569 8.1665 14.2222V15.7361C8.1665 16.1903 8.46928 16.493 8.92345 16.493Z" fill="white"/>
</svg>
