<svg width="35" height="35" viewBox="0 0 35 35" fill="none" xmlns="http://www.w3.org/2000/svg">
<circle cx="17.5" cy="17.5" r="17.5" fill="#3D57F9"/>
<path d="M24.0332 10.5H10.9665C10.2246 10.5021 9.51368 10.7793 8.98905 11.2711C8.46443 11.763 8.16872 12.4294 8.1665 13.125V21.875C8.16872 22.5706 8.46443 23.237 8.98905 23.7289C9.51368 24.2207 10.2246 24.4979 10.9665 24.5H24.0332C24.7751 24.4979 25.486 24.2207 26.0106 23.7289C26.5352 23.237 26.831 22.5706 26.8332 21.875V13.125C26.831 12.4294 26.5352 11.763 26.0106 11.2711C25.486 10.7793 24.7751 10.5021 24.0332 10.5ZM22.1665 21.875H18.4332C17.9386 21.8736 17.4646 21.6888 17.1149 21.3609C16.7651 21.033 16.568 20.5887 16.5665 20.125V18.375C16.568 17.9113 16.7651 17.467 17.1149 17.1391C17.4646 16.8112 17.9386 16.6264 18.4332 16.625H22.1665C22.6611 16.6264 23.1351 16.8112 23.4848 17.1391C23.8346 17.467 24.0317 17.9113 24.0332 18.375V20.125C24.0317 20.5887 23.8346 21.033 23.4848 21.3609C23.1351 21.6888 22.6611 21.8736 22.1665 21.875Z" fill="white"/>
</svg>
