<svg width="35" height="35" viewBox="0 0 35 35" fill="none" xmlns="http://www.w3.org/2000/svg">
<circle cx="17.5" cy="17.5" r="17.5" transform="matrix(-1 0 0 1 35 0)" fill="#3D57F9"/>
<path fill-rule="evenodd" clip-rule="evenodd" d="M20.2086 25.2778C20.2983 25.3706 20.4055 25.4447 20.5241 25.4957C20.6428 25.5466 20.7703 25.5734 20.8994 25.5745C21.0285 25.5757 21.1565 25.5511 21.276 25.5022C21.3955 25.4533 21.5041 25.3811 21.5953 25.2898C21.6866 25.1985 21.7588 25.09 21.8077 24.9705C21.8566 24.851 21.8812 24.723 21.8801 24.5939C21.8789 24.4648 21.8521 24.3372 21.8012 24.2186C21.7502 24.1 21.6761 23.9927 21.5833 23.9031L15.8676 18.1874C15.6853 18.005 15.5829 17.7578 15.5829 17.5C15.5829 17.2422 15.6853 16.995 15.8676 16.8126L21.5843 11.0969C21.7666 10.9145 21.8689 10.6671 21.8688 10.4092C21.8687 10.1513 21.7662 9.90403 21.5838 9.72174C21.4013 9.53944 21.154 9.43707 20.8961 9.43716C20.6382 9.43725 20.3909 9.53979 20.2086 9.72222L13.1181 16.8126C12.9359 16.995 12.8335 17.2422 12.8335 17.5C12.8335 17.7578 12.9359 18.005 13.1181 18.1874L20.2086 25.2778Z" fill="white"/>
</svg>
