<svg width="35" height="35" viewBox="0 0 35 35" fill="none" xmlns="http://www.w3.org/2000/svg">
<circle cx="17.5" cy="17.5" r="17.5" fill="#3D57F9"/>
<path fill-rule="evenodd" clip-rule="evenodd" d="M14.7914 25.2778C14.7017 25.3706 14.5945 25.4447 14.4759 25.4957C14.3572 25.5466 14.2297 25.5734 14.1006 25.5745C13.9715 25.5757 13.8435 25.5511 13.724 25.5022C13.6045 25.4533 13.4959 25.3811 13.4047 25.2898C13.3134 25.1985 13.2412 25.09 13.1923 24.9705C13.1434 24.851 13.1188 24.723 13.1199 24.5939C13.1211 24.4648 13.1479 24.3372 13.1988 24.2186C13.2498 24.1 13.3239 23.9927 13.4167 23.9031L19.1324 18.1874C19.3147 18.005 19.4171 17.7578 19.4171 17.5C19.4171 17.2422 19.3147 16.995 19.1324 16.8126L13.4157 11.0969C13.2334 10.9145 13.1311 10.6671 13.1312 10.4092C13.1313 10.1513 13.2338 9.90403 13.4162 9.72174C13.5987 9.53944 13.846 9.43707 14.1039 9.43716C14.3618 9.43725 14.6091 9.53979 14.7914 9.72222L21.8819 16.8126C22.0641 16.995 22.1665 17.2422 22.1665 17.5C22.1665 17.7578 22.0641 18.005 21.8819 18.1874L14.7914 25.2778Z" fill="white"/>
</svg>
