<svg width="35" height="35" viewBox="0 0 35 35" fill="none" xmlns="http://www.w3.org/2000/svg">
    <circle cx="17.5" cy="17.5" r="17.5" fill="#ffffff" />
    <path
        d="M19.1724 15.3826C19.7408 14.8597 20.4072 14.5833 21.0994 14.5833H23.5367L22.6102 15.4229C22.5205 15.5042 22.4494 15.6006 22.4009 15.7068C22.3524 15.813 22.3274 15.9267 22.3274 16.0416C22.3274 16.1566 22.3524 16.2703 22.4009 16.3765C22.4494 16.4827 22.5205 16.5791 22.6102 16.6604C22.7913 16.8245 23.0369 16.9167 23.2929 16.9167C23.4197 16.9167 23.5453 16.894 23.6624 16.8501C23.7796 16.8061 23.886 16.7416 23.9757 16.6604L26.5504 14.3271C26.64 14.2458 26.7112 14.1493 26.7597 14.0432C26.8082 13.937 26.8332 13.8232 26.8332 13.7083C26.8332 13.5934 26.8082 13.4796 26.7597 13.3735C26.7112 13.2673 26.64 13.1709 26.5504 13.0896L23.9757 10.7563C23.886 10.675 23.7796 10.6106 23.6624 10.5666C23.5453 10.5226 23.4197 10.5 23.2929 10.5C23.1661 10.5 23.0406 10.5226 22.9234 10.5666C22.8063 10.6106 22.6998 10.675 22.6102 10.7563C22.5205 10.8375 22.4494 10.934 22.4009 11.0402C22.3524 11.1463 22.3274 11.2601 22.3274 11.375C22.3274 11.4899 22.3524 11.6037 22.4009 11.7099C22.4494 11.816 22.5205 11.9125 22.6102 11.9937L23.5367 12.8333H21.0994C19.6541 12.8333 18.3292 13.4921 17.3759 14.5862C17.805 15.1652 18.1344 15.8001 18.3527 16.4689C18.5569 16.0678 18.834 15.7006 19.1724 15.3826ZM14.7824 19.6173C14.2139 20.1402 13.5475 20.4166 12.8553 20.4166H9.13202C8.87595 20.4166 8.63037 20.5088 8.4493 20.6729C8.26823 20.837 8.1665 21.0595 8.1665 21.2916C8.1665 21.5237 8.26823 21.7462 8.4493 21.9103C8.63037 22.0744 8.87595 22.1666 9.13202 22.1666H12.8553C14.3006 22.1666 15.6255 21.5078 16.5788 20.4138C16.1497 19.8347 15.8203 19.1999 15.6019 18.531C15.3977 18.9321 15.1207 19.2993 14.7824 19.6173Z"
        fill="#3D57F9" />
    <path
        d="M23.9757 18.3397C23.886 18.2584 23.7796 18.1939 23.6624 18.15C23.5453 18.106 23.4197 18.0834 23.2929 18.0834C23.1661 18.0834 23.0406 18.106 22.9234 18.15C22.8063 18.1939 22.6998 18.2584 22.6102 18.3397C22.5205 18.4209 22.4494 18.5174 22.4009 18.6235C22.3524 18.7297 22.3274 18.8435 22.3274 18.9584C22.3274 19.0733 22.3524 19.1871 22.4009 19.2932C22.4494 19.3994 22.5205 19.4959 22.6102 19.5771L23.5367 20.4167H21.0994C20.4072 20.4167 19.7408 20.1403 19.1724 19.6174C18.5614 19.0554 18.1186 18.2448 17.9255 17.3348C17.363 14.6844 15.2781 12.8334 12.8553 12.8334H9.13202C8.87595 12.8334 8.63037 12.9256 8.4493 13.0897C8.26823 13.2538 8.1665 13.4764 8.1665 13.7084C8.1665 13.9405 8.26823 14.163 8.4493 14.3271C8.63037 14.4912 8.87595 14.5834 9.13202 14.5834H12.8553C13.5475 14.5834 14.2139 14.8598 14.7823 15.3827C15.3933 15.9447 15.8361 16.7553 16.0292 17.6653C16.5916 20.3156 18.6766 22.1667 21.0994 22.1667H23.5367L22.6102 23.0063C22.4291 23.1704 22.3274 23.3929 22.3274 23.625C22.3274 23.8571 22.4291 24.0796 22.6102 24.2437C22.7913 24.4078 23.0369 24.5 23.2929 24.5C23.549 24.5 23.7946 24.4078 23.9757 24.2437L26.5504 21.9104C26.64 21.8292 26.7112 21.7327 26.7597 21.6266C26.8082 21.5204 26.8332 21.4066 26.8332 21.2917C26.8332 21.1768 26.8082 21.063 26.7597 20.9568C26.7112 20.8507 26.64 20.7542 26.5504 20.673L23.9757 18.3397Z"
        fill="#3D57F9" />
</svg>
