<svg width="45" height="45" viewBox="0 0 45 45" fill="none" xmlns="http://www.w3.org/2000/svg">
<circle cx="22.5" cy="22.5" r="22.5" fill="#3D57F9"/>
<path d="M30.2143 19.3184H18.6429V15.5898C18.6429 13.6612 19.9286 11.9898 21.7286 11.6041C24.1714 11.2184 26.3571 13.0184 26.3571 15.4612C26.3571 16.2326 27 16.7469 27.6429 16.7469C28.2857 16.7469 28.9286 16.2326 28.9286 15.4612C28.9286 11.7326 25.7143 8.64693 21.8571 9.03265C18.5143 9.41836 16.0714 12.3755 16.0714 15.7184V19.3184H14.7857C14.1429 19.3184 13.5 19.8326 13.5 20.6041V33.4612C13.5 34.1041 14.1429 34.7469 14.7857 34.7469H30.2143C30.9857 34.7469 31.5 34.1041 31.5 33.4612V20.6041C31.5 19.8326 30.9857 19.3184 30.2143 19.3184ZM23.7857 27.9326V29.6041C23.7857 30.3755 23.2714 30.8898 22.5 30.8898C21.7286 30.8898 21.2143 30.3755 21.2143 29.6041V27.9326C20.4429 27.4184 19.9286 26.6469 19.9286 25.7469C19.9286 24.0755 21.4714 22.9184 23.1429 23.3041C24.0429 23.5612 24.8143 24.3326 25.0714 25.2326C25.3286 26.3898 24.6857 27.4184 23.7857 27.9326Z" fill="white"/>
</svg>
