<svg width="45" height="45" viewBox="0 0 45 45" fill="none" xmlns="http://www.w3.org/2000/svg">
<circle cx="22.5" cy="22.5" r="22.5" fill="#3D57F9"/>
<g clip-path="url(#clip0_2537_1039)">
<path d="M30.9864 20.1002H25.3992C24.782 20.1002 24.2817 19.5999 24.2817 18.9828V13.3955C24.2817 12.7783 24.7821 12.2781 25.3992 12.2781C26.0164 12.2781 26.5167 12.7783 26.5167 13.3955V16.2852L31.3139 11.488C31.7469 11.0698 32.4334 11.0698 32.8665 11.488C33.3103 11.9167 33.3227 12.6241 32.8939 13.0681L28.0967 17.8653H30.9864C31.6036 17.8653 32.1039 18.3656 32.1039 18.9828C32.1039 19.5999 31.6036 20.1002 30.9864 20.1002Z" fill="white"/>
<path d="M13.0939 24.5839H18.6812C19.2983 24.5839 19.7986 25.0842 19.7986 25.7013V31.2886C19.7986 31.9057 19.2982 32.406 18.6811 32.406C18.064 32.406 17.5637 31.9057 17.5637 31.2886V28.3989L12.7665 33.1961C12.3334 33.6143 11.6469 33.6143 11.2139 33.1961C10.77 32.7673 10.7577 32.0599 11.1864 31.616L15.9836 26.8188H13.0939C12.4767 26.8188 11.9765 26.3185 11.9765 25.7013C11.9765 25.0842 12.4767 24.5839 13.0939 24.5839Z" fill="white"/>
</g>
<defs>
<clipPath id="clip0_2537_1039">
<rect width="22.349" height="22.349" fill="white" transform="translate(11.1748 11.1743)"/>
</clipPath>
</defs>
</svg>
