<svg width="45" height="45" viewBox="0 0 45 45" fill="none" xmlns="http://www.w3.org/2000/svg">
<circle cx="22.5" cy="22.5" r="22.5" fill="#3D57F9"/>
<g clip-path="url(#clip0_2537_1060)">
<path d="M26.0041 20.1139C26.3005 20.1139 26.5847 19.9961 26.7942 19.7865L31.5914 14.9893V17.879C31.5914 18.4962 32.0917 18.9964 32.7088 18.9964C33.326 18.9964 33.8262 18.4962 33.8262 17.879V12.2917C33.8263 11.6746 33.326 11.1743 32.7088 11.1743H27.1216C26.5045 11.1743 26.0042 11.6746 26.0042 12.2917C26.0042 12.9089 26.5045 13.4092 27.1216 13.4092H30.0113L25.2141 18.2064C24.7778 18.6428 24.7779 19.3504 25.2144 19.7867C25.4238 19.9961 25.7079 20.1138 26.0041 20.1139ZM12.5947 33.5233H18.182C18.7991 33.5233 19.2994 33.023 19.2994 32.4059C19.2994 31.7887 18.7991 31.2884 18.182 31.2884H15.2923L20.0895 26.4912C20.5182 26.0473 20.5059 25.3399 20.062 24.9111C19.629 24.4929 18.9424 24.4929 18.5094 24.9111L13.7122 29.7083V26.8186C13.7122 26.2015 13.2119 25.7012 12.5948 25.7012C11.9776 25.7012 11.4773 26.2015 11.4773 26.8186V32.4059C11.4773 33.023 11.9776 33.5233 12.5947 33.5233Z" fill="white"/>
</g>
<defs>
<clipPath id="clip0_2537_1060">
<rect width="22.349" height="22.349" fill="white" transform="translate(11.4773 11.1743)"/>
</clipPath>
</defs>
</svg>
